<svg width="1920" height="48" viewBox="0 0 1920 48" fill="none" xmlns="http://www.w3.org/2000/svg">
<mask id="mask0_16231_1417" style="mask-type:alpha" maskUnits="userSpaceOnUse" x="0" y="0" width="1920" height="48">
<rect width="1920" height="48" fill="white"/>
</mask>
<g mask="url(#mask0_16231_1417)">
<path d="M2633.61 24.9282C2633.54 24.9713 2633.48 24.9556 2633.36 24.9239C2633.52 24.7786 2633.65 24.5584 2633.77 24.3382L2634.67 20.9752C2633.8 20.6789 2632.56 20.5984 2632.39 19.7955C2634.46 19.401 2634.47 18.6455 2633.36 17.5894C2628.96 16.7883 2629.84 19.8705 2628.45 21.2693C2629.05 22.5686 2633.09 21.1854 2633.38 22.7165C2633.36 24.9239 2628.75 23.6897 2627.47 24.9273C2626.22 24.654 2625.92 23.6267 2624.52 23.4397C2624.4 25.0528 2620.31 23.7682 2618.62 24.1986C2616.21 22.7944 2610.37 24.0137 2607.8 22.7548C2604.03 22.8833 2600.65 22.7368 2598.96 21.2706C2599.08 19.4057 2602.26 19.8156 2604.85 19.8153C2606.81 19.8339 2606.1 21.7923 2608.77 21.2453C2608.48 18.5731 2614.04 20.2534 2615.69 19.0517C2614.72 21.2577 2617.88 20.3336 2619.61 20.4816C2620.25 19.5146 2621.7 19.0799 2623.55 19.0077C2623.34 20.2784 2621.83 20.6973 2619.61 20.4816C2621.04 22.6989 2624.75 21.1618 2627.46 20.4967L2627.47 17.5929C2625.8 16.5124 2617.26 19.0933 2615.65 16.132C2613.21 16.0459 2612.62 17.2806 2610.7 17.5887C2610.7 17.1441 2610.7 16.6404 2610.71 16.1368C2606.94 16.2652 2603.51 16.103 2601.85 14.7116C2598.92 15.2544 2595.75 15.541 2593.99 16.9038C2593.53 16.0218 2592.74 15.4305 2591.03 15.4163C2584.84 14.896 2577.87 14.9253 2572.31 13.9416C2569.93 13.6195 2570.18 15.2686 2567.38 14.6429C2563.63 12.8158 2554.13 15.2024 2551.64 12.4485C2549.3 12.8977 2547.11 13.5124 2543.72 13.1731C2543.54 15.9705 2549.44 14.2633 2547.67 18.2782C2544.28 17.9389 2542.15 18.5693 2539.81 19.0185C2540.78 16.3678 2535.36 18.3944 2535.86 16.0618L2530.92 16.0666C2530.32 17.6122 2532.16 20.8885 2529.93 21.1765L2526.95 21.1998L2526.92 16.8282L2517.1 16.8536C2516.46 15.2276 2519.88 14.5006 2516.11 14.629C2512.61 14.7027 2518.2 17.0204 2515.14 16.8351C2509.58 17.0514 2506.39 15.5005 2500.34 16.0939C2498.81 17.3272 2501.55 19.389 2498.4 20.5059C2495.58 20.6357 2493 20.577 2493.48 18.3034C2490.4 17.9842 2490.87 20.2592 2488.6 20.4723C2487.37 17.488 2480.84 19.6586 2477.79 19.7251C2476.05 19.8289 2475.74 18.8605 2473.87 18.9916C2470.85 18.4364 2470.31 19.746 2467.97 19.7506C2467.97 19.0541 2466.73 19.1665 2466.01 19.0356C2460.67 18.8706 2454.17 19.5302 2450.26 18.293C2448.57 20.8128 2444.04 17.8908 2440.43 19.7704C2439.17 19.0525 2437.94 17.7129 2436.52 17.5849C2436.83 17.6051 2435 18.3146 2434.55 18.3219C2432.31 18.417 2430.77 19.2058 2427.65 19.0636C2427.66 18.3082 2427.66 17.6117 2427.67 16.8563C2424.87 17.6235 2423.55 17.5862 2420.77 16.8425C2421.34 19.4599 2417.84 19.03 2414.86 19.0533C2415.74 16.253 2412.46 16.449 2411.93 14.6618C2411.38 13.3783 2411.41 11.6156 2409.94 10.9682C2409.13 13.5325 2403.61 12.6236 2405.01 16.8555C2402.63 16.5334 2402.88 18.1824 2400.07 17.5567C2397.8 17.7699 2398.98 15.4934 2397.12 15.3727C2396.49 14.636 2394.84 14.6376 2395.12 13.1309C2394.81 11.2142 2400.63 13.8471 2399.06 10.9606C2396.04 10.4055 2396.19 12.2156 2393.16 11.7195C2390.74 12.7155 2394.9 13.9569 2392.19 14.622C2389.59 14.8741 2393.1 10.5036 2389.24 11.6825C2386.07 11.0208 2387.9 14.1044 2385.31 13.8528C2383.51 13.9407 2383.2 12.9723 2381.39 13.1193C2381.59 15.1971 2375.35 12.5126 2375.49 14.5746C2376.51 15.0364 2376.5 16.2365 2378.45 16.0622C2378.61 15.2204 2380.25 15.4707 2381.43 15.3425C2383.3 16.1597 2386.05 16.2658 2388.31 16.8081C2389.22 15.7863 2395.32 13.564 2394.2 17.5012C2391.7 17.1474 2390.79 16.5244 2389.31 18.2772C2391.88 19.0914 2385.4 19.1884 2384.36 19.7339C2383.51 19.1267 2383.76 17.7381 2382.43 17.508C2382.72 19.4837 2380.4 19.4292 2378.48 19.7374C2377.3 18.9173 2375.02 18.9376 2372.6 18.9854C2372.79 16.8844 2369.26 17.5208 2370.61 14.5952C2367.91 14.0602 2368.65 16.0286 2366.68 16.0691C2367.33 16.6878 2368.21 18.1253 2366.65 18.2765C2362.75 20.077 2356.06 18.5998 2352.86 17.5526C2351.11 17.4635 2350.78 18.4507 2348.93 18.271C2341.93 17.4702 2336.86 18.1987 2328.24 17.5333C2326.96 17.8226 2326.7 18.8256 2325.25 19.0085C2324.25 17.7912 2321.1 18.2117 2319.32 17.5442C2318.04 18.53 2314.7 18.0137 2313.42 18.9995C2314.2 14.6566 2309.38 18.7381 2305.53 17.5167C2307.2 14.8041 2305.34 16.0763 2303.59 14.5943C2305.02 14.2186 2305.98 13.4645 2306.52 12.4068C2302.32 12.2317 2302.52 14.8131 2298.66 13.1472C2298.38 14.6538 2296.05 14.5994 2294.71 15.3766C2292.83 15.063 2292.93 13.2571 2289.79 13.8704C2287.98 14.9657 2287.16 16.8334 2283.89 16.7776C2281.55 16.5303 2279.83 15.8787 2278.01 15.3292C2276.67 17.4993 2270.9 16.8379 2268.2 16.051C2265.38 18.0773 2260.78 17.2878 2258.33 15.3051C2260.68 15.3006 2261.2 14.0501 2264.23 14.5463C2263.94 12.5706 2269.74 15.2623 2268.17 12.3759C2265.88 12.8999 2259.79 14.3668 2260.27 10.8931C2264.09 11.2841 2265.06 9.58168 2269.14 10.1698C2269.47 9.18267 2271.58 9.55948 2273.07 9.45141C2273.82 8.76783 2274.15 7.78072 2274.05 6.48998C2267.16 6.22441 2263.47 8.39902 2259.28 10.1204C2258.83 9.4312 2258.43 8.81683 2257.33 8.65002C2256.48 9.68759 2255.88 10.9813 2253.4 10.8203C2249.73 10.7876 2247.18 11.5591 2244.52 12.299C2244.18 10.2485 2241.5 11.0474 2240.59 12.3209C2242.23 13.5194 2246.38 12.9234 2249.44 13.0497C2252.11 13.5099 2257.23 12.1006 2258.3 13.7783C2252.97 14.058 2247.2 15.9897 2242.54 14.4879C2241.47 14.7067 2241.89 15.9586 2240.57 15.9213C2240.44 14.3039 2238.08 14.3674 2235.64 14.4741C2235.39 16.6182 2237.5 16.995 2238.59 18.1101C2241.3 18.6451 2240.56 16.6767 2242.53 16.6363C2243.23 17.3298 2244.32 17.7484 2245.49 18.1239C2247.24 15.6199 2250.55 18.1508 2255.3 17.4021C2256.08 17.8006 2256.86 18.199 2258.27 18.1341L2265.17 18.1479C2266.58 18.5277 2270.27 17.3013 2270.09 18.8986C2266.58 20.4243 2259.42 19.2651 2254.33 19.6081C2252.47 19.932 2251.83 21.1509 2249.38 21.0648C2245.76 19.4621 2238.51 20.5535 2234.65 21.0359C2230.58 20.1369 2226.1 19.6308 2221.87 18.8772C2221.08 19.2342 2220.27 19.6501 2218.89 19.597C2215.49 18.3684 2214.53 19.5672 2210.04 18.8682C2206.54 20.5867 2200.6 18.8706 2197.25 18.1615C2195.39 19.6856 2193 19.6152 2190.34 18.9032C2190.44 19.9421 2190.49 20.9652 2189.37 21.1092C2186.79 21.3023 2185.13 20.8593 2185.46 18.9238C2181.41 18.2177 2177.74 18.9403 2174.64 18.932C2174.39 18.9277 2172.83 19.079 2172.68 18.9135C2171 17.3883 2171.89 19.2704 2168.75 18.9354C2168.69 18.9196 2168.55 18.2505 2167.74 18.2218C2166.92 18.1931 2165.51 19.4581 2163.81 18.9403C2163.04 18.2899 2161.15 18.48 2160.86 17.4526C2143.38 19.1551 2123.52 16.4906 2104.79 16.7197C2103.92 16.1715 2102.53 15.9256 2100.87 15.9862C2099.85 17.4209 2096.34 17.0501 2094.96 18.197C2099.83 17.0353 2098.08 20.7394 2101.83 20.4181C2102.63 20.0612 2103.43 19.6452 2104.75 19.6825C2107.64 21.4061 2108.42 18.2634 2109.69 19.6778C2109.86 20.2289 2110.7 20.3915 2110.69 21.1469C2107.69 23.1258 2106.07 21.6164 2100.87 21.8687C2095.54 25.4969 2084.88 20.6183 2080.21 24.8062C2080.08 22.937 2076.54 23.6323 2075.3 22.6036C2073.69 24.1319 2070.57 24.4344 2068.44 25.5095C2067.82 24.521 2064.68 25.3861 2064.52 24.0796C2061.51 23.5244 2062.59 26.0914 2059.58 25.5363C2057.52 23.9752 2056.75 25.9178 2053.69 25.5397C2053.71 24.2806 2052.99 23.646 2051.74 23.3727C2051.31 24.2692 2050.51 24.878 2048.81 24.8638C2048.97 22.8219 2046 23.038 2044.85 21.9071C2045.32 24.182 2043.6 24.9233 2041.91 25.5465C2041.14 24.8962 2040.84 23.8687 2040.92 22.6255C2037.58 22.1092 2039.31 25.3539 2036.98 25.5513C2035.88 25.3845 2036.29 24.1024 2034.97 24.0651C2034.19 23.9184 2034.02 23.3672 2033.01 23.3501C2033.38 24.7789 2028.54 24.4297 2030.04 22.6179C2024.96 23.1537 2024.18 23.007 2018.25 23.3802C2018.4 24.2421 2018.02 24.7098 2017.29 24.8308C2016.35 24.3258 2015.82 23.4869 2015.36 22.6049C2013.07 22.8771 2011.27 23.4687 2009.46 24.0603C2008.84 23.0718 2007.35 22.7351 2005.56 22.5713C1998.71 22.3805 1997.68 21.7259 1991.77 22.5438C1990.13 21.3453 1985.98 21.9414 1982.91 21.815C1981.92 20.0941 1978 20.5607 1978.01 18.1605C1982.68 17.7068 1987.73 17.5409 1990.81 15.9635C1999.04 15.7037 2002.19 15.7868 2009.49 14.5184C2020.42 14.349 2032.77 15.2559 2040.96 13.0247L2050.84 13.0152C2051.63 12.6582 2052.44 12.2422 2053.82 12.2953C2058 12.9741 2058.82 11.8027 2061.71 13.7782C2061.88 12.9364 2063.52 13.1867 2064.63 13.0426C2067.2 11.2638 2071.59 10.9238 2075.48 10.1306C2080.1 12.2541 2085.47 9.45612 2091.24 10.1175C2091.52 8.61088 2095.59 9.95457 2095.19 7.88825C2091.8 9.19371 2090.46 7.82244 2086.32 7.91492C2076.18 9.62393 2062.76 8.93601 2051.87 10.1285C2049.49 8.60629 2049.81 9.07098 2045.99 9.37641C2046.54 8.76335 2047.01 8.19348 2046.96 7.17037C2044.79 6.77774 2045.52 8.55335 2043.97 8.64559C2043.25 7.31461 2042.17 8.54069 2041.01 8.60987C2040.23 8.21134 2039.38 7.85607 2038.04 7.87778C2037.18 8.97435 2036.59 10.209 2034.1 10.0481C2031.83 10.2613 2030.34 9.92467 2029.18 9.29738C2027.57 10.5739 2025.51 11.4131 2023.27 12.2047C2021.32 12.1862 2022.03 10.2277 2019.37 10.7157L2001.65 10.7102C2000.37 10.9995 2000.1 12.0025 1998.66 12.1854C1997.4 11.9121 1997.11 10.8847 1995.7 10.6978C1995.26 12.3498 1990.88 10.986 1988.79 11.4395C1984.2 10.65 1983.42 11.6443 1977.98 10.6922C1973.61 12.3662 1965.66 10.8676 1960.27 9.93129C1957.88 11.3129 1952.36 10.404 1948.43 10.6778C1948.79 11.9138 1947.68 12.0578 1946.45 12.1702C1943.4 12.6813 1944.58 10.1529 1941.52 10.723C1938.49 11.6198 1934.5 11.8778 1930.68 12.1832C1927.95 9.61775 1919.27 10.8331 1914.93 11.4407C1913.69 10.412 1910.3 11.021 1908.99 9.97648C1904.26 13.7039 1898.03 10.9602 1888.36 11.4029C1887.26 11.2361 1887.67 9.95399 1886.35 9.9167C1885.86 11.9975 1883.25 12.5013 1880.45 12.8239C1875.78 11.5739 1873.46 13.1642 1867.66 12.8137C1865.71 12.2915 1868.25 8.48234 1864.71 9.1777C1861.96 8.81965 1867.2 11.9316 1863.75 12.0801C1860.54 12.4848 1859.2 11.5582 1856.86 11.311C1850.59 13.9305 1840.45 10.4534 1835.22 12.0238C1834.92 10.9964 1832.72 11.4183 1831.3 11.2903C1831.4 12.3293 1831.44 13.3524 1830.33 13.4964C1829.5 11.3783 1827.18 13.9168 1825.39 13.5011C1820.29 12.703 1817.2 13.1392 1811.59 14.2291C1810.72 13.6809 1809.39 13.4508 1807.67 13.4956C1803.31 14.6659 1798.63 12.5265 1793.87 14.2235C1793.73 12.858 1790.51 13.7663 1789.96 12.7346C1790.1 14.352 1786.46 13.0601 1785.09 13.4516C1784.28 13.8676 1783.49 14.2246 1782.11 14.1715C1780.38 13.7716 1776.29 15.08 1776.17 13.4036C1773.47 12.8686 1774.21 14.837 1772.24 14.8774C1771.35 12.7435 1770.75 14.0373 1768.32 14.144L1768.29 10.4688L1763.35 10.4737C1763.41 11.6896 1762.59 12.3573 1761.37 12.6625C1757.43 13.1881 1755.73 11.9737 1752.52 11.9337C1751.66 10.8819 1751.76 9.07604 1748.55 9.73251C1745.71 10.1731 1750.09 10.8404 1749.55 11.8981C1748.77 12.6996 1747.22 12.3473 1745.63 12.6165C1742.44 13.155 1740.41 13.1796 1736.77 11.8877C1735.8 12.8937 1734.17 13.34 1732.83 14.0581C1734.34 11.4909 1729.48 13.6008 1729.87 11.874C1724.54 12.4055 1717.75 11.5341 1711.2 11.8671C1710.05 11.9363 1705.64 13.2836 1702.34 12.5903C1699.5 10.4379 1693.5 13.4474 1691.53 11.8431C1688.43 14.176 1682.12 14.1276 1675.76 14.0044C1674.27 13.1642 1673.35 11.9038 1670.84 11.8019C1665.98 11.067 1659.47 14.5715 1657.05 11.0779C1654.71 11.5271 1652.52 12.1417 1649.19 11.8183C1643.21 10.2791 1638.94 10.1472 1633.45 9.62392C1631.03 10.6199 1635.21 11.8024 1632.48 12.5264C1630.53 12.5079 1631.24 10.5494 1628.56 11.0965C1629.76 10.1538 1628.94 9.93226 1628.58 8.88904C1624.44 8.28506 1623.9 10.291 1620.73 10.3259C1615.8 9.57518 1611.11 10.088 1605.99 9.60062C1603.46 9.36487 1601.63 10.2672 1599.08 10.3423C1589.33 10.5763 1579.52 8.70516 1570.53 10.345C1570.09 8.70749 1565.67 10.0549 1563.64 9.63486C1562.37 9.86522 1562.09 10.9271 1560.66 11.051C1560.27 9.42932 1555.44 10.4731 1554.77 11.0545C1554.48 10.0271 1552.34 10.4647 1550.86 10.321C1548.45 11.7616 1542.63 11.0253 1540.03 10.3291C1536.68 11.0129 1532.81 11.3026 1529.2 11.7893C1527.4 11.8772 1527.09 10.9089 1525.28 11.0558C1523.53 10.9668 1523.2 11.9539 1521.35 11.7742C1520.57 11.3757 1519.73 10.9614 1518.38 11.0421C1510 11.6401 1501.31 10.7659 1492.83 9.56951C1485.22 9.86953 1478.88 9.18379 1473.16 8.09359C1470.78 7.77148 1471.03 9.42045 1468.23 8.79476C1463.73 8.09584 1457 7.24035 1453.42 8.0537C1450.78 6.5862 1444.82 7.58108 1440.65 7.28792C1439.92 6.7124 1439.02 6.78587 1437.69 6.55576C1435.69 6.21059 1435.77 6.61201 1434.72 5.82355C1434.82 5.9142 1432.44 6.54041 1431.8 6.55918C1430.98 6.53047 1430.19 5.93909 1428.83 5.82698C1428.09 5.7551 1427.81 6.56533 1426.86 6.56398C1427.31 6.55674 1426.1 5.8546 1425.85 5.8503C1423.97 5.53679 1422.25 6.27798 1419.95 6.60916C1419.81 4.99177 1415.79 6.31606 1414.02 5.84136C1413.24 5.44284 1412.44 5.10337 1411.05 5.10925C1408.77 4.8778 1407.28 5.23766 1406.11 5.81048C1405.96 4.94855 1404.31 5.20192 1403.14 5.07827L1385.42 5.07274C1383.47 4.10593 1379.79 4.38403 1377.53 3.58993C1377.68 4.45186 1377.32 4.86059 1376.57 5.04053C1372.01 5.52589 1370.23 3.91012 1366.7 3.5982C1358.67 4.54292 1350.48 2.72906 1342.08 5.03076C1340.76 4.29701 1339.1 3.85402 1338.11 2.82957C1335.13 3.80115 1330.25 3.82171 1327.29 2.83774C1322.9 4.57067 1319.3 2.40539 1314.49 3.58292C1312.7 3.67086 1312.39 2.70248 1310.58 2.84943C1308.49 3.99936 1304.04 3.37527 1301.7 4.32809C1300.28 3.94834 1296.6 5.17463 1296.76 3.63636C1288.53 4.34079 1278.82 5.15333 1270.17 4.35408C1269.24 4.29373 1268.64 3.69081 1267.2 3.62188C1261.38 3.38931 1255.98 3.71215 1250.68 3.87381L1250.25 5.46685C1250.67 5.57761 1251 5.7315 1251.51 5.74009C1259.28 6.243 1267.78 6.18034 1276.12 5.75937C1276.9 5.71325 1277.13 5.08011 1278.09 5.02246C1278.09 5.02246 1279.27 5.84258 1280.05 5.73746C1280.25 5.72593 1281.13 4.57038 1282.02 5.00054C1282.16 6.61793 1286.19 5.29365 1287.9 5.75252C1289.5 5.92793 1289.6 5.07028 1290.82 5.01692C1293 6.29884 1298.25 5.36591 1300.67 6.5183C1304.1 5.28766 1305.94 7.17106 1309.53 5.79507C1310.69 6.42235 1316.2 7.13849 1320.35 6.54237C1322.59 6.19536 1321.83 6.18243 1325.28 6.53753C1329.24 6.90122 1333.88 6.5655 1337.13 5.79103C1343.23 7.10999 1348.28 7.64052 1355.79 6.55339C1361.07 8.09547 1368.78 6.93782 1373.52 5.80346C1374.93 8.07978 1381.52 7.37691 1384.33 6.55067C1397.33 8.13519 1413.65 7.19838 1426.65 8.7829C1429.03 9.10501 1428.77 7.45597 1431.58 8.08166C1434.47 8.85699 1437.28 9.73444 1441.45 9.52395C1443.42 9.48348 1442.68 7.51508 1445.39 8.05013C1447.82 7.94341 1449.46 8.44549 1450.32 9.4973C1456.28 9.19887 1460.51 10.2043 1464.1 11.6731C1465.12 9.98654 1468.62 10.1646 1471.97 10.1772C1472.59 10.9139 1474.24 10.9124 1473.92 12.3442C1477.85 12.5741 1481.19 12.3939 1482.8 10.8656C1484.28 12.6541 1489.46 11.7643 1491.64 13.0462C1491.81 12.2044 1493.45 12.4546 1494.62 12.3264C1496.03 12.2615 1497.44 12.1967 1497.59 13.0586C1497.56 15.0732 1492.95 14.7872 1491.69 13.8175C1489.72 15.5027 1484.83 15.0787 1481.85 16.0503L1472.03 16.0756C1471.12 16.6527 1469.8 16.8673 1468.11 16.7941C1465.74 17.1094 1465.99 15.469 1463.17 16.1024C1463.33 16.9053 1462.94 17.432 1462.21 17.5529C1456.69 18.5406 1449.84 18.6017 1444.47 19.7548C1443.6 19.2066 1442.27 18.9765 1440.55 19.0213C1438.53 19.2388 1438.63 20.9741 1436.61 21.1916C1434.05 19.1773 1433.65 22.1042 1430.73 21.8915C1423.88 21.7008 1418.47 22.5272 1413 23.3379C1413.42 21.3002 1409.32 22.6677 1409.09 21.1525C1410.04 21.1538 1409.83 20.2761 1410.05 19.7019C1406.18 18.5396 1409.72 22.8374 1407.11 22.6448C1404.92 21.1111 1402.35 23.3936 1398.24 22.6716C1397.95 21.1406 1394.56 22.0015 1394.33 20.4863C1392.58 20.9008 1388.55 19.632 1388.43 21.2451C1390.08 20.9917 1390.31 21.8104 1390.38 22.7155C1389.04 23.6855 1383.49 24.0946 1383.5 21.9463C1385.2 22.2123 1385.36 21.3705 1385.46 20.5129C1379.99 20.3753 1374.8 20.3757 1371.72 21.9531C1371.05 21.3934 1366.2 20.3478 1365.84 21.9566C1368.27 21.8499 1369.91 22.352 1370.77 23.4038C1367.92 25.2963 1364.65 23.092 1360.89 23.4133C1361.05 22.5715 1360.66 22.1499 1359.89 21.9442C1360.34 24.2781 1357.44 24.0065 1355.94 24.87C1352.06 24.0185 1348.29 25.7917 1345.13 23.4263C1346.45 23.2118 1345.93 21.6174 1346.09 20.5238C1342.29 20.0738 1342.01 19.9357 1339.19 21.2656C1339.05 19.6482 1335.02 20.9724 1333.31 20.5135C1332.45 19.9654 1331.06 19.7194 1329.39 19.78C1327.53 20.6076 1324.71 20.7373 1322.49 21.2182C1321.65 20.1074 1320.01 19.6054 1317.56 19.7711C1316.54 20.2576 1316.54 21.4576 1314.63 21.2621C1312.67 21.4954 1311.56 21.1358 1311.67 19.7745C1309.08 20.4712 1303.26 21.1869 1300.85 19.7827C1300.42 20.6792 1299.62 21.288 1297.92 21.2738C1296.06 20.6494 1294.32 20.0568 1291.98 19.8095C1285.2 21.7239 1280.79 18.3298 1274.26 19.8039C1274.36 20.8428 1274.4 21.8659 1273.29 22.0099C1272.28 21.2963 1271.34 20.5395 1270.33 19.8259C1265.46 20.0393 1261.32 19.6871 1257.54 19.119C1254.31 20.0863 1250.47 20.258 1246.52 20.0872L1244.11 117.562L2608.59 134.055L2633.55 24.9123L2633.61 24.9282ZM2251.5 12.4624C2251.51 11.7069 2252.72 11.9054 2253.47 11.7254C2253.47 12.4219 2252.3 12.2982 2251.5 12.4624ZM1261.48 26.8762C1260.97 24.2746 1268.23 23.6279 1267.37 26.8728L1261.48 26.8762ZM1289.02 26.8563C1289.42 25.8259 1289.87 26.9599 1290.97 26.8749C1290.72 27.8189 1289 27.6117 1289.02 26.8563ZM1294.91 25.401C1294.11 25.5651 1293.97 25.1479 1293.9 24.6874L1288.96 24.6921C1287.55 24.757 1286.14 24.822 1285.99 23.96L1293.84 23.9751C1296.11 23.7619 1297.9 22.5329 1299.73 23.9717C1300.25 26.0106 1294.44 23.3778 1294.91 25.401ZM1312.6 29.0658C1310.17 29.1726 1307.82 29.177 1307.67 27.6186C1305.78 29.0089 1305.18 27.7096 1302.73 27.6235C1303.79 25.5671 1306.65 26.7122 1304.66 23.9668C1307.8 23.6054 1308.17 25.2861 1311.56 24.6771C1309.19 26.4444 1314.21 25.8928 1312.6 29.0658ZM1321.45 23.2155C1322.49 25.7077 1318.42 24.3641 1316.56 24.6881C1316.73 23.0908 1319.06 23.1453 1321.45 23.2155ZM1320.47 26.8736C1320.42 27.9989 1313.2 28.4686 1314.59 26.1215C1317.58 25.5945 1317.48 27.4005 1320.47 26.8736C1323.42 26.7165 1319.57 23.8504 1320.47 26.8736ZM1323.45 26.8503C1323.3 25.04 1323.31 23.3362 1324.44 22.4368C1325.22 22.8353 1326 23.2338 1327.41 23.169C1325.75 24.6225 1327.54 24.0899 1327.39 26.0728C1326.52 26.7247 1325.14 26.9235 1323.45 26.8503ZM1340.16 26.1421L1329.33 26.1503C1331.45 24.6306 1328.45 23.7647 1330.31 22.4924C1332.04 22.8923 1336.11 21.6428 1336.19 23.2444C1337.46 22.2586 1340.81 22.2712 1342.07 23.241C1341.66 24.3303 1340.69 25.0844 1340.16 26.1421ZM1371.69 23.9678C1371.69 23.2713 1372.86 23.395 1373.66 23.2309C1373.6 23.9115 1372.43 23.7878 1371.69 23.9678ZM1378.54 23.2102C1378.7 22.3684 1380.34 22.6186 1381.52 22.4905C1381.35 23.3323 1379.71 23.082 1378.54 23.2102ZM1527.19 17.3856C1527.25 16.705 1528.42 16.8287 1529.16 16.6487C1529.09 17.3884 1527.92 17.2647 1527.19 17.3856ZM1647.23 18.1859C1638.26 17.4256 1626.32 19.2225 1616.74 17.4146C1614.99 17.3256 1614.67 18.3127 1612.82 18.133C1611.88 15.4797 1616.69 17.147 1618.71 16.6777C1621.16 16.7638 1623.43 16.8024 1624.61 15.9188C1631.49 17.1916 1641 15.6942 1649.22 17.39C1649.21 18.1454 1648.04 18.0218 1647.23 18.1859ZM1656.11 17.4037C1658.92 15.1846 1662.92 18.2161 1666.94 17.3955C1665.28 18.849 1657.88 18.3821 1656.11 17.4037ZM1689.55 28.449C1687.17 26.9268 1693.68 25.3189 1692.47 27.7134C1692.4 27.9494 1690.41 28.9972 1689.55 28.449ZM1722.03 19.638L1706.27 19.651C1704.44 20.3606 1703 17.4468 1702.34 19.673C1699.13 21.9742 1705.81 20.9174 1702.34 19.673C1700.09 18.3752 1694.9 19.324 1692.47 18.2306C1693.1 21.8121 1695.79 19.3095 1699.36 20.3928C1699.2 21.4864 1696.96 21.0779 1695.44 21.1111L1689.55 21.1146C1687.68 20.9939 1687.37 21.922 1685.62 21.833C1675.23 20.9447 1671.3 21.6631 1658.03 21.837C1658.68 17.2697 1665.2 21.2924 1669.81 20.3783C1672.92 19.883 1671.09 18.4441 1670.79 16.7202C1673.05 17.5143 1675.11 18.32 1676.72 19.6365C1678.53 18.5413 1679.19 16.567 1681.63 15.9566C1684.29 15.4686 1683.56 17.486 1684.59 18.1406C1686.45 16.8684 1691.06 17.599 1694.4 17.4188C1695.88 17.5626 1698.01 17.184 1698.32 18.1524C1705.11 15.7343 1715.96 19.1493 1721.94 17.399C1722.09 18.2609 1723.5 18.196 1724.91 18.1311L1729.84 18.1263C1731.69 18.8097 1733.14 15.9747 1733.77 18.1044C1733.16 22.0501 1727.38 18.6029 1722.03 19.638ZM1743.68 18.9251C1743.69 18.1697 1743.69 17.4732 1743.7 16.7177L1745.66 16.7362C1746.2 17.3233 1746.68 17.8945 1746.66 18.9018L1743.68 18.9251ZM1845.05 14.5325C1844.52 14.1382 1845.75 13.5812 1846.01 13.7783C1846.54 14.1725 1845.31 14.7296 1845.05 14.5325ZM1845.06 20.415C1844.53 20.0208 1845.75 19.4638 1846.02 19.6609C1846.55 20.0551 1845.32 20.6121 1845.06 20.415ZM1850.94 14.529C1849.93 14.5118 1848.98 14.5105 1847.96 14.5523C1848.12 13.7105 1849.76 13.9607 1850.93 13.8325L1853.9 13.8683C1853.75 14.6511 1852.1 14.4598 1850.94 14.529ZM1908.04 13.0718L1908.05 11.6198L1910 11.6384L1910 13.0903L1908.04 13.0718ZM1971.01 12.3665C1971.54 12.7607 1970.32 13.3177 1969.99 13.1047C1969.52 12.7263 1970.75 12.1694 1971.01 12.3665ZM1972 21.9255C1969.58 21.0249 1966.2 20.8785 1963.15 20.4413C1960.14 19.8861 1961.22 22.4531 1958.21 21.898C1955.08 21.504 1953.91 19.7356 1950.31 19.7187C1946.82 19.2887 1947.91 22.3005 1944.4 21.9295L1944.41 20.4775C1942.54 21.5569 1937.88 20.4998 1936.54 21.9734C1935.69 21.6181 1934.76 21.3059 1934.59 20.503C1933.8 21.1118 1931.89 20.9161 1931.66 21.994C1930.09 21.0041 1926.57 21.3887 1925.74 19.7743C1922.51 20.9344 1921.99 19.5919 1917.83 19.7433C1921.12 17.6508 1924.65 19.8002 1927.66 18.266C1932.55 18.1864 1932.53 19.0009 1936.51 18.2983C1939.65 17.685 1938.54 20.1702 1940.42 20.4837C1941.32 19.9656 1941.91 19.1755 1942.4 18.2948C1943.94 18.2026 1946.18 18.6111 1946.33 17.5764C1947.9 17.3662 1948.03 18.2872 1949.29 18.3086C1950.1 18.1445 1950.26 17.5545 1951.26 17.5716C1953.91 17.1426 1959.05 18.5192 1960.13 16.8485C1960.99 17.3966 1962.33 17.6267 1964.05 17.582C1967.43 18.1731 1968.21 16.2304 1969.93 17.5785C1972.18 17.2315 1974.94 16.1377 1976.83 17.5923C1977.27 20.4299 1972.39 19.5022 1972 21.9255ZM1976.93 21.9207C1976.41 21.5264 1977.63 20.9694 1977.9 21.1665C1978.42 21.5608 1977.2 22.1178 1976.93 21.9207ZM1961.19 133.045C1960.67 132.651 1961.89 132.094 1962.21 132.307C1962.68 132.685 1961.52 133.258 1961.19 133.045ZM1973.03 133.054C1973.02 132.358 1974.19 132.481 1975 132.317C1974.94 132.998 1973.77 132.874 1973.03 133.054ZM2111.76 21.1798C2111.08 18.2789 2114.37 18.2758 2117.66 18.2726C2116.86 20.3333 2119.05 20.1632 2118.64 21.9491C2116.9 23.2529 2113.1 22.2992 2111.76 21.1798ZM2125.55 21.9038L2125.56 20.4519C2125.39 18.256 2121.46 21.1228 2125.56 20.4519C2126.74 20.5165 2127.9 20.6991 2127.51 21.9223L2125.55 21.9038ZM2135.36 21.182C2134.03 21.9001 2133.39 23.119 2132.42 24.1249C2130.4 23.8978 2129.78 22.6574 2128.46 21.9237C2130.96 20.129 2133.63 18.4409 2139.3 19.0116C2140.12 21.6334 2137.25 22.6366 2135.36 21.182ZM2145.24 20.4759C2140.66 21.0203 2140.63 19.2418 2145.25 19.7205C2147.76 19.3188 2149.07 18.4668 2149.17 21.1505C2147.12 21.4859 2146.57 20.706 2145.24 20.4759ZM2152.11 23.3935C2152.11 22.6971 2153.34 22.8365 2154.08 22.6566C2154.07 23.4121 2152.86 23.2136 2152.11 23.3935ZM2154.08 21.9601C2153.3 21.8134 2153.08 21.1875 2152.12 21.2452C2152.28 20.6552 2153.08 20.491 2153.08 19.7945C2153.86 19.9413 2154.09 20.5082 2155.04 20.5095C2154.9 21.0405 2154.09 21.2046 2154.08 21.9601ZM2170.84 23.4162C2170.84 22.7198 2172.07 22.8593 2172.81 22.6793C2172.76 23.36 2171.59 23.2363 2170.84 23.4162ZM2172.76 21.2115C2172.27 22.344 2171.74 21.2534 2171.75 20.4979C2173.58 20.292 2173.84 21.1855 2172.76 21.2115ZM2176.73 23.4128C2177.53 21.8558 2181.95 21.3977 2183.64 22.6711C2183.19 24.323 2178.75 22.9435 2176.73 23.4128ZM2271.2 19.0064C2271.2 18.31 2272.37 18.4336 2273.17 18.2694C2273.16 19.0249 2271.99 18.9013 2271.2 19.0064ZM2274.18 18.2866C2277.45 20.4908 2277.12 15.5955 2274.18 18.2866ZM2282.01 19.0571C2282.26 18.1132 2283.98 18.3202 2283.97 19.0757C2283.57 20.106 2283.11 18.9721 2282.01 19.0571ZM2296.78 17.5751C2296.25 17.1808 2297.47 16.6239 2297.72 16.88C2298.27 17.2152 2297.04 17.7722 2296.78 17.5751ZM2405.04 21.2271C2403.47 21.4373 2403.32 20.5753 2402.07 20.4949C2401.68 19.125 2406.6 19.4311 2405.04 21.2271ZM2407.97 16.8912C2407.98 16.3875 2407.99 15.8839 2407.98 15.4393L2409.94 15.4578C2409.93 15.9614 2409.94 16.4061 2409.93 16.9097L2407.97 16.8912ZM2503.45 21.9848C2501.98 21.3374 2501.34 20.1561 2501.46 18.2911L2510.33 18.2644C2509.61 20.7266 2505.47 20.5672 2503.45 21.9848ZM2513.34 19.0714C2514.2 19.1749 2514.31 18.762 2514.36 18.3332C2515.53 18.4568 2515.2 19.6957 2515.35 20.5577C2513.56 20.8384 2513.42 19.9765 2513.34 19.0714ZM2539.9 22.013C2540.44 20.4517 2541.45 20.4689 2542.81 21.2774C2543.49 23.7337 2540.79 22.4432 2539.9 22.013ZM2579.26 15.4231C2579.26 15.8678 2579.26 16.3713 2579.25 16.875C2577.29 17.1083 2576.2 16.6898 2576.29 15.3875L2579.26 15.4231ZM2567.46 16.941C2563.26 16.7658 2559.66 17.0007 2558.58 19.1161C2556.48 17.9838 2554.22 16.9969 2551.71 16.1985C2551.82 14.5854 2555.91 15.87 2557.59 15.4986L2563.48 15.4952C2568.11 15.2185 2571.7 15.739 2575.31 16.2006C2575.77 18.5345 2570.8 16.7607 2570.41 18.4286C2571.96 19.9811 2577.31 18.6941 2579.26 19.9127C2577.55 21.5432 2571.72 20.1696 2568.44 20.6174C2568.72 18.859 2568.26 17.7251 2567.46 16.941ZM2578.23 23.4959C2578.11 23.7161 2576.11 24.8227 2575.26 24.2156C2574.58 23.6559 2579.33 22.018 2578.23 23.4959ZM2581.23 20.5687C2582.14 19.2951 2584.65 18.7006 2586.17 19.8675C2585.27 21.082 2582.7 21.7197 2581.23 20.5687ZM2587.12 20.5653C2587.3 18.4643 2591.78 18.7777 2591.04 21.2988C2589.3 21.4026 2588.99 20.4341 2587.12 20.5653ZM2593.06 22.0296C2592.64 20.5259 2593.71 20.0553 2594.02 19.1271C2595.44 19.7587 2597.15 20.2175 2596.97 22.0666C2595.65 22.0294 2594.32 22.0511 2593.06 22.0296Z" fill="#FCDE3B"/>
<path d="M1246.61 23.928C1246.54 23.9712 1246.48 23.9554 1246.36 23.9237C1246.52 23.7784 1246.65 23.5582 1246.77 23.3381L1247.67 19.9751C1246.8 19.6787 1245.56 19.5982 1245.39 18.7953C1247.46 18.4008 1247.47 17.6454 1246.36 16.5893C1241.96 15.7882 1242.84 18.8703 1241.45 20.2692C1242.05 21.5685 1246.09 20.1853 1246.38 21.7163C1246.36 23.9237 1241.75 22.6895 1240.47 23.9272C1239.22 23.6539 1238.92 22.6265 1237.52 22.4396C1237.4 24.0527 1257.31 22.7681 1255.62 23.1985C1253.21 21.7943 1247.37 23.0136 1244.8 21.7547C1241.03 21.8831 1237.65 21.7367 1235.96 20.2705C1236.08 18.4056 1239.26 18.8155 1241.85 18.8152C1243.81 18.8337 1243.1 20.7922 1245.77 20.2451C1245.48 17.573 1251.04 19.2532 1252.69 18.0516C1251.72 20.2576 1254.88 19.3335 1256.61 19.4815C1257.25 18.5145 1258.7 18.0797 1260.55 18.0076C1260.34 19.2783 1258.83 19.6971 1256.61 19.4815C1258.04 21.6988 1237.75 20.1617 1240.46 19.4966L1240.47 16.5927C1238.8 15.5122 1254.26 18.0932 1252.65 15.1319C1250.21 15.0458 1249.62 16.2805 1247.7 16.5886C1247.7 16.144 1247.7 15.6403 1247.71 15.1366C1243.94 15.2651 1240.51 15.1028 1238.85 13.7115C1235.92 14.2543 1232.75 14.5409 1230.99 15.9037C1230.53 15.0217 1229.74 14.4304 1228.03 14.4162C1221.84 13.8958 1214.87 13.9252 1209.31 12.9415C1206.93 12.6194 1207.18 14.2685 1204.38 13.6428C1200.63 11.8157 1191.13 14.2023 1188.64 11.4484C1186.3 11.8975 1184.11 12.5123 1180.72 12.173C1180.54 14.9704 1186.44 13.2632 1184.67 17.2781C1181.28 16.9388 1179.15 17.5692 1176.81 18.0184C1177.78 15.3677 1172.36 17.3943 1172.86 15.0617L1167.92 15.0665C1167.32 16.612 1169.16 19.8884 1166.93 20.1764L1163.95 20.1997L1163.92 15.8281L1154.1 15.8534C1153.46 14.2275 1156.88 13.5005 1153.11 13.6289C1149.61 13.7026 1155.2 16.0203 1152.14 15.8349C1146.58 16.0513 1143.39 14.5004 1137.34 15.0938C1135.81 16.3271 1138.55 18.3889 1135.4 19.5058C1132.58 19.6356 1130 19.5769 1130.48 17.3033C1127.41 16.9841 1127.87 19.259 1125.6 19.4722C1124.37 16.4879 1117.84 18.6585 1114.79 18.725C1113.05 18.8287 1112.74 17.8604 1110.87 17.9915C1107.85 17.4363 1107.31 18.7459 1104.97 18.7504C1104.97 18.054 1103.73 18.1663 1103.01 18.0355C1097.67 17.8705 1091.17 18.5301 1087.26 17.2929C1085.57 19.8127 1081.04 16.8906 1077.43 18.7703C1076.17 18.0524 1074.94 16.7128 1073.52 16.5848C1073.83 16.6049 1072 17.3145 1071.55 17.3217C1069.31 17.4169 1067.77 18.2057 1064.65 18.0635C1064.66 17.308 1064.66 16.6116 1064.67 15.8562C1061.87 16.6234 1060.55 16.586 1057.77 15.8424C1058.34 18.4598 1054.84 18.0299 1051.86 18.0532C1052.74 15.2529 1049.46 15.4489 1048.93 13.6617C1048.38 12.3782 1048.41 10.6155 1046.94 9.96805C1046.13 12.5324 1040.61 11.6235 1042.01 15.8554C1039.63 15.5333 1039.88 17.1823 1037.07 16.5566C1034.8 16.7698 1035.98 14.4933 1034.12 14.3726C1033.49 13.6359 1031.84 13.6374 1032.12 12.1308C1031.81 10.2141 1037.63 12.8469 1036.06 9.96051C1033.04 9.40535 1033.19 11.2155 1030.16 10.7193C1027.74 11.7153 1031.9 12.9568 1029.19 13.6219C1026.59 13.874 1030.1 9.50348 1026.24 10.6824C1023.07 10.0207 1024.9 13.1042 1022.31 12.8527C1020.51 12.9406 1020.2 11.9722 1018.39 12.1192C1018.59 14.197 1012.35 11.5124 1012.49 13.5745C1013.51 14.0363 1013.5 15.2364 1015.45 15.0621C1015.61 14.2203 1017.25 14.4706 1018.43 14.3424C1020.3 15.1595 1023.05 15.2657 1025.31 15.808C1026.22 14.7862 1032.32 12.5639 1031.2 16.501C1028.7 16.1473 1027.79 15.5243 1026.31 17.2771C1028.88 18.0913 1022.4 18.1883 1021.36 18.7338C1020.51 18.1266 1020.76 16.738 1019.43 16.5079C1019.72 18.4836 1017.4 18.4291 1015.48 18.7372C1014.3 17.9171 1012.02 17.9375 1009.6 17.9852C1009.79 15.8843 1006.26 16.5207 1007.61 13.5951C1004.91 13.0601 1005.65 15.0285 1003.68 15.069C1004.33 15.6877 1005.21 17.1252 1003.65 17.2764C999.753 19.0769 993.06 17.5997 989.86 16.5525C988.111 16.4634 987.784 17.4506 985.933 17.2709C978.932 16.47 973.863 17.1986 965.244 16.5332C963.964 16.8225 963.695 17.8255 962.254 18.0084C961.251 16.7911 958.1 17.2116 956.317 16.5441C955.04 17.5299 951.697 17.0136 950.42 17.9994C951.204 13.6565 946.376 17.738 942.526 16.5166C944.203 13.804 942.343 15.0762 940.588 13.5942C942.018 13.2185 942.979 12.4644 943.516 11.4067C939.322 11.2316 939.517 13.813 935.659 12.1471C935.382 13.6537 933.055 13.5993 931.707 14.3765C929.829 14.0629 929.933 12.257 926.794 12.8703C924.982 13.9655 924.165 15.8333 920.888 15.7775C918.55 15.5302 916.826 14.8786 915.011 14.3291C913.67 16.4991 907.897 15.8377 905.197 15.0509C902.375 17.0772 897.777 16.2877 895.333 14.305C897.676 14.3005 898.201 13.05 901.233 13.5462C900.939 11.5705 906.737 14.2622 905.169 11.3757C902.876 11.8998 896.787 13.3667 897.275 9.89296C901.094 10.284 902.057 8.58157 906.14 9.16973C906.468 8.18256 908.582 8.55936 910.066 8.4513C910.819 7.76772 911.147 6.78061 911.05 5.48986C904.159 5.2243 900.475 7.39891 896.279 9.12031C895.831 8.43109 895.426 7.81672 894.332 7.6499C893.484 8.68748 892.884 9.98116 890.396 9.82023C886.733 9.78747 884.185 10.559 881.518 11.2989C881.181 9.24838 878.499 10.0472 877.588 11.3208C879.229 12.5193 883.376 11.9232 886.444 12.0496C889.105 12.5098 894.23 11.1005 895.299 12.7782C889.971 13.0579 884.2 14.9896 879.539 13.4878C878.468 13.7066 878.892 14.9585 877.573 14.9212C877.437 13.3038 875.078 13.3673 872.644 13.474C872.386 15.6181 874.5 15.9949 875.594 17.11C878.299 17.645 877.56 15.6766 879.533 15.6362C880.233 16.3297 881.324 16.7483 882.489 17.1238C884.236 14.6198 887.545 17.1507 892.303 16.4019C893.082 16.8005 893.862 17.1989 895.271 17.134L902.167 17.1478C903.584 17.5276 907.267 16.3012 907.092 17.8985C903.582 19.4241 896.424 18.265 891.332 18.608C889.473 18.9319 888.83 20.1508 886.385 20.0647C882.763 18.462 875.509 19.5534 871.645 20.0358C867.582 19.1368 863.098 18.6307 858.869 17.8771C858.077 18.234 857.269 18.65 855.891 18.5969C852.486 17.3683 851.532 18.567 847.036 17.8681C843.537 19.5866 837.605 17.8705 834.25 17.1614C832.386 18.6855 830 18.6151 827.342 17.9031C827.444 18.942 827.486 19.9651 826.371 20.1091C823.788 20.3022 822.135 19.8592 822.463 17.9237C818.412 17.2176 814.737 17.9402 811.638 17.9319C811.386 17.9276 809.827 18.0788 809.681 17.9134C808.001 16.3882 808.889 18.2703 805.751 17.9353C805.692 17.9195 805.555 17.2504 804.74 17.2217C803.925 17.193 802.51 18.458 800.813 17.9401C800.038 17.2898 798.151 17.4799 797.857 16.4525C780.375 18.155 760.519 15.4905 741.786 15.7196C740.921 15.1714 739.531 14.9254 737.869 14.986C736.852 16.4208 733.343 16.0499 731.96 17.1969C736.828 16.0352 735.076 19.7392 738.833 19.418C739.625 19.0611 740.433 18.6451 741.752 18.6824C744.645 20.406 745.424 17.2633 746.69 18.6777C746.859 19.2288 747.702 19.3913 747.689 20.1468C744.69 22.1257 743.069 20.6163 737.875 20.8686C732.536 24.4968 721.881 19.6182 717.214 23.806C717.082 21.9368 713.541 22.6322 712.298 21.6035C710.686 23.1318 707.567 23.4343 705.443 24.5094C704.822 23.5208 701.679 24.386 701.522 23.0794C698.507 22.5243 699.591 25.0913 696.575 24.5361C694.525 22.9751 693.751 24.9177 690.688 24.5396C690.709 23.2805 689.993 22.6459 688.737 22.3726C688.307 23.2691 687.511 23.8779 685.806 23.8637C685.973 21.8217 683.004 22.0379 681.851 20.9069C682.317 23.1819 680.6 23.9232 678.914 24.5464C678.139 23.8961 677.844 22.8686 677.924 21.6253C674.581 21.1091 676.307 24.3538 673.976 24.5511C672.881 24.3843 673.288 23.1023 671.969 23.065C671.185 22.9183 671.016 22.3671 670.008 22.3499C670.385 23.7788 665.542 23.4296 667.04 21.6178C661.96 22.1535 661.176 22.0068 655.253 22.3801C655.402 23.242 655.023 23.7097 654.295 23.8306C653.354 23.3256 652.82 22.4868 652.36 21.6047C650.071 21.8769 648.267 22.4686 646.463 23.0602C645.842 22.0717 644.35 21.735 642.558 21.5711C635.711 21.3804 634.683 20.7258 628.768 21.5437C627.127 20.3452 622.98 20.9412 619.912 20.8149C618.918 19.094 614.995 19.5606 615.005 17.1604C619.684 16.7067 624.729 16.5408 627.809 14.9633C636.044 14.7036 639.186 14.7867 646.488 13.5183C657.42 13.3489 669.772 14.2558 677.965 12.0246L687.841 12.015C688.633 11.6581 689.441 11.2421 690.819 11.2952C695.004 11.974 695.825 10.8026 698.713 12.778C698.875 11.9362 700.517 12.1865 701.632 12.0425C704.197 10.2637 708.592 9.92369 712.475 9.13046C717.096 11.2539 722.466 8.456 728.239 9.11738C728.516 7.61075 732.586 8.95446 732.191 6.88814C728.803 8.1936 727.461 6.82231 723.322 6.9148C713.181 8.62381 699.757 7.93588 688.868 9.12837C686.491 7.60617 686.809 8.07086 682.993 8.37628C683.537 7.76323 684.007 7.19335 683.964 6.17025C681.791 5.77761 682.518 7.55323 680.974 7.64547C680.255 6.31449 679.166 7.54056 678.009 7.60974C677.229 7.21122 676.375 6.85594 675.04 6.87765C674.177 7.97423 673.593 9.20888 671.104 9.04795C668.832 9.26114 667.34 8.92454 666.179 8.29726C664.571 9.57378 662.51 10.4129 660.273 11.2046C658.316 11.1861 659.031 9.22753 656.368 9.71559L638.648 9.71003C637.368 9.99938 637.099 11.0024 635.657 11.1853C634.401 10.912 634.107 9.8846 632.702 9.69766C632.259 11.3496 627.877 9.98592 625.794 10.4394C621.195 9.64983 620.422 10.6442 614.981 9.69212C610.608 11.366 602.655 9.86743 597.273 8.93116C594.878 10.3128 589.362 9.40386 585.427 9.67764C585.792 10.9137 584.678 11.0577 583.445 11.1701C580.397 11.6812 581.581 9.15278 578.516 9.7229C575.491 10.6197 571.498 10.8776 567.682 11.1831C564.951 8.61762 556.271 9.83296 551.931 10.4406C550.688 9.41187 547.297 10.0209 545.994 8.97635C541.261 12.7037 535.034 9.96012 525.358 10.4028C524.264 10.236 524.671 8.95386 523.352 8.91657C522.857 10.9974 520.254 11.5012 517.446 11.8238C512.781 10.5738 510.456 12.1641 504.664 11.8136C502.715 11.2914 505.255 7.48222 501.714 8.17757C498.962 7.81953 504.204 10.9315 500.746 11.08C497.536 11.4847 496.202 10.5581 493.863 10.3108C487.592 12.9303 477.447 9.4533 472.216 11.0237C471.922 9.99631 469.72 10.4182 468.299 10.2902C468.4 11.3292 468.443 12.3523 467.328 12.4963C466.503 10.3782 464.177 12.9167 462.39 12.501C457.287 11.7028 454.196 12.1391 448.587 13.229C447.721 12.6808 446.39 12.4507 444.669 12.4955C440.305 13.6657 435.625 11.5264 430.867 13.2234C430.726 11.8578 427.508 12.7662 426.962 11.7345C427.098 13.3519 423.457 12.06 422.086 12.4515C421.278 12.8675 420.486 13.2244 419.108 13.1713C417.38 12.7715 413.295 14.0799 413.174 12.4035C410.47 11.8684 411.208 13.8368 409.235 13.8773C408.351 11.7434 407.751 13.0371 405.318 13.1439L405.29 9.46872L400.352 9.47353C400.406 10.6895 399.594 11.3572 398.373 11.6624C394.434 12.188 392.734 10.9736 389.517 10.9336C388.66 9.88178 388.764 8.07591 385.55 8.73239C382.71 9.17298 387.089 9.84025 386.552 10.8979C385.768 11.6995 384.216 11.3471 382.625 11.6164C379.443 12.1549 377.411 12.1795 373.77 10.8876C372.804 11.8935 371.165 12.3398 369.834 13.058C371.344 10.4907 366.475 12.6007 366.874 10.8739C361.542 11.4054 354.75 10.534 348.205 10.867C347.047 10.9362 342.636 12.2835 339.34 11.5902C336.499 9.43779 330.503 12.4472 328.528 10.843C325.434 13.1758 319.118 13.1274 312.758 13.0043C311.274 12.1641 310.346 10.9037 307.842 10.8017C302.976 10.0669 296.467 13.5714 294.048 10.0778C291.713 10.527 289.523 11.1416 286.192 10.8181C280.211 9.279 275.943 9.14706 270.45 8.62379C268.031 9.61979 272.208 10.8022 269.483 11.5263C267.525 11.5078 268.24 9.54927 265.562 10.0963C266.764 9.15369 265.937 8.93213 265.584 7.88891C261.442 7.28493 260.904 9.2909 257.73 9.32574C252.805 8.57506 248.11 9.08782 242.987 8.6005C240.456 8.36474 238.632 9.26707 236.08 9.34214C226.333 9.57617 216.518 7.70505 207.534 9.34489C207.087 7.70738 202.675 9.05474 200.636 8.63475C199.371 8.86511 199.087 9.92701 197.661 10.0509C197.273 8.42921 192.436 9.47294 191.774 10.0543C191.48 9.02695 189.337 9.46461 187.857 9.32085C185.445 10.7615 179.63 10.0252 177.031 9.329C173.684 10.0128 169.808 10.3025 166.197 10.7892C164.401 10.8771 164.091 9.90875 162.279 10.0557C160.531 9.96664 160.203 10.9538 158.353 10.7741C157.573 10.3756 156.735 9.96129 155.384 10.042C146.996 10.64 138.306 9.76582 129.829 8.5694C122.217 8.86942 115.881 8.18368 110.161 7.09348C107.779 6.77137 108.033 8.42034 105.226 7.79465C100.729 7.09573 93.9965 6.24024 90.4241 7.05359C87.7792 5.58609 81.8164 6.58097 77.6543 6.28781C76.9224 5.71229 76.0167 5.78576 74.6859 5.55565C72.6897 5.21048 72.772 5.6119 71.7174 4.82344C71.8197 4.91409 69.4367 5.5403 68.7988 5.55907C67.9836 5.53036 67.1927 4.93898 65.8303 4.82687C65.0901 4.75499 64.8097 5.56522 63.8606 5.56387C64.3056 5.55663 63.1014 4.85449 62.8493 4.85019C60.9713 4.53667 59.2536 5.27787 56.9497 5.60905C56.8134 3.99166 52.7876 5.31595 51.016 4.84125C50.2367 4.44273 49.4416 4.10326 48.0476 4.10914C45.7678 3.87768 44.2789 4.23755 43.1128 4.81037C42.964 3.94844 41.3137 4.20181 40.1443 4.07816L22.4239 4.07263C20.4678 3.10582 16.7856 3.38392 14.5299 2.58982C14.6787 3.45175 14.3161 3.86048 13.5716 4.04042C9.0111 4.52578 7.22881 2.91001 3.70472 2.59809C-4.33339 3.54281 -12.5184 1.72895 -20.9202 4.03065C-22.2426 3.2969 -23.8961 2.85391 -24.8874 1.82946C-27.8693 2.80104 -32.7483 2.8216 -35.7126 1.83763C-40.1011 3.57056 -43.6982 1.40528 -48.5075 2.58281C-50.3032 2.67075 -50.6134 1.70237 -52.4249 1.84931C-54.5053 2.99925 -58.9584 2.37516 -61.3023 3.32798C-62.7196 2.94823 -66.4027 4.17452 -66.2437 2.63625C-74.4706 3.34068 -84.1822 4.15322 -92.8289 3.35397C-93.7622 3.29362 -94.3601 2.6907 -95.7974 2.62177C-101.621 2.3892 -107.024 2.71204 -112.321 2.8737L-112.748 4.46674C-112.334 4.5775 -111.996 4.73139 -111.492 4.73998C-103.715 5.24289 -95.2171 5.18023 -86.8762 4.75926C-86.1044 4.71314 -85.8714 4.08 -84.9066 4.02235C-84.9066 4.02235 -83.7339 4.84246 -82.9462 4.73735C-82.7533 4.72582 -81.874 3.57027 -80.9766 4.00043C-80.8403 5.61782 -76.8145 4.29354 -75.102 4.75241C-73.5034 4.92781 -73.4002 4.07017 -72.1833 4.01681C-69.9951 5.29873 -64.745 4.3658 -62.3322 5.51819C-58.9012 4.28755 -57.064 6.17095 -53.4674 4.79496C-52.3063 5.42224 -46.8019 6.13838 -42.6547 5.54226C-40.4098 5.19525 -41.1659 5.18232 -37.7166 5.53742C-33.7634 5.90111 -29.1164 5.56539 -25.8708 4.79092C-19.7684 6.10988 -14.7206 6.6404 -7.21394 5.55328C-1.93081 7.09535 5.7846 5.93771 10.519 4.80335C11.9344 7.07967 18.5153 6.37679 21.3317 5.55056C34.3251 7.13508 50.6524 6.19827 63.6458 7.78279C66.0279 8.1049 65.7736 6.45586 68.5807 7.08155C71.4743 7.85688 74.2772 8.73433 78.4476 8.52384C80.4205 8.48337 79.6821 6.51497 82.3869 7.05002C84.8206 6.9433 86.4582 7.44538 87.3157 8.49719C93.2818 8.19876 97.5062 9.20415 101.1 10.673C102.122 8.98643 105.618 9.16447 108.969 9.17711C109.595 9.9138 111.241 9.91228 110.92 11.3441C114.846 11.5739 118.186 11.3938 119.798 9.86545C121.281 11.654 126.456 10.7642 128.644 12.0461C128.806 11.2043 130.448 11.4545 131.622 11.3263C133.032 11.2614 134.441 11.1966 134.59 12.0585C134.557 14.0731 129.95 13.7871 128.691 12.8173C126.72 14.5026 121.834 14.0786 118.852 15.0502L109.035 15.0755C108.12 15.6526 106.797 15.8672 105.108 15.794C102.745 16.1093 102.994 14.4689 100.166 15.1023C100.331 15.9052 99.9367 16.4319 99.2081 16.5528C93.6902 17.5405 86.8382 17.6016 81.4659 18.7547C80.6001 18.2065 79.2693 17.9764 77.5484 18.0212C75.5281 18.2387 75.6327 19.974 73.6124 20.1915C71.0508 18.1772 70.6463 21.1041 67.7285 20.8914C60.8807 20.7006 55.4693 21.5271 49.9988 22.3378C50.4182 20.3001 46.3176 21.6676 46.0906 20.1524C47.0397 20.1537 46.8318 19.276 47.049 18.7018C43.1831 17.5395 46.7151 21.8373 44.1084 21.6447C41.9244 20.111 39.3508 22.3935 35.2403 21.6715C34.9544 20.1405 31.5591 21.0014 31.3321 19.4861C29.5754 19.9007 25.5483 18.6319 25.4325 20.245C27.0827 19.9916 27.3064 20.8103 27.3803 21.7154C26.0444 22.6854 20.4917 23.0945 20.4977 20.9461C22.1986 21.2122 22.3608 20.3704 22.4641 19.5128C16.9945 19.3751 11.8044 19.3756 8.72344 20.953C8.05061 20.3933 3.20409 19.3477 2.83631 20.9565C5.27002 20.8498 6.90768 21.3518 7.76511 22.4037C4.91619 24.2962 1.64597 22.0919 -2.11107 22.4132C-1.9488 21.5714 -2.34217 21.1498 -3.10985 20.9441C-2.65926 23.278 -5.56122 23.0064 -7.05845 23.8699C-10.9443 23.0184 -14.7106 24.7915 -17.8744 22.4262C-16.551 22.2116 -17.0732 20.6173 -16.9068 19.5237C-20.7103 19.0737 -20.9898 18.9356 -23.8145 20.2654C-23.9508 18.6481 -27.9766 19.9723 -29.6891 19.5134C-30.5549 18.9652 -31.9447 18.7193 -33.6066 18.7799C-35.4739 19.6075 -38.2935 19.7372 -40.511 20.2181C-41.3527 19.1073 -42.9903 18.6053 -45.4399 18.771C-46.4563 19.2574 -46.4614 20.4575 -48.3711 20.262C-50.3324 20.4953 -51.4386 20.1357 -51.327 18.7744C-53.9188 19.4711 -59.7436 20.1868 -62.1522 18.7825C-62.5823 19.6791 -63.3783 20.2879 -65.0834 20.2736C-66.9415 19.6493 -68.6815 19.0566 -71.0203 18.8094C-77.7992 20.7238 -82.2063 17.3297 -88.7407 18.8038C-88.6393 19.8427 -88.597 20.8658 -89.7115 21.0098C-90.7229 20.2962 -91.6594 19.5394 -92.6707 18.8258C-97.5381 19.0392 -101.684 18.687 -105.456 18.1189C-108.69 19.0862 -112.534 19.2579 -116.475 19.087L-119.889 99.562L1245.59 117.055L1246.55 23.9122L1246.61 23.928ZM888.5 11.4623C888.512 10.7068 889.725 10.9053 890.469 10.7253C890.473 11.4218 889.303 11.2981 888.5 11.4623ZM-101.522 25.8761C-102.027 23.2745 -94.7654 22.6278 -95.6349 25.8727L-101.522 25.8761ZM-73.9845 25.8562C-73.5818 24.8258 -73.1261 25.9598 -72.0274 25.8748C-72.2803 26.8188 -73.997 26.6116 -73.9845 25.8562ZM-68.0881 24.4009C-68.8915 24.565 -69.0329 24.1478 -69.0994 23.6873L-74.0375 23.692C-75.4473 23.7569 -76.8571 23.8219 -77.0059 22.9599L-69.1617 22.975C-66.8894 22.7618 -65.1043 21.5327 -63.2746 22.9715C-62.745 25.0105 -68.5586 22.3777 -68.0881 24.4009ZM-50.3988 28.0657C-52.8325 28.1724 -55.1755 28.1769 -55.3276 26.6185C-57.2191 28.0088 -57.8203 26.7095 -60.2657 26.6234C-59.2083 24.567 -56.3506 25.7121 -58.3365 22.9667C-55.2016 22.6053 -54.8291 24.286 -51.438 23.677C-53.8104 25.4442 -48.7891 24.8927 -50.3988 28.0657ZM-41.5526 22.2154C-40.5115 24.7076 -44.5819 23.364 -46.4409 23.688C-46.2661 22.0907 -43.9388 22.1452 -41.5526 22.2154ZM-42.5327 25.8735C-42.5811 26.9988 -49.7957 27.4685 -48.4073 25.1214C-45.418 24.5944 -45.5221 26.4004 -42.5327 25.8735C-39.5792 25.7163 -43.4316 22.8503 -42.5327 25.8735ZM-39.5518 25.8501C-39.6996 24.0399 -39.6861 22.3361 -38.559 21.4367C-37.7797 21.8352 -37.0004 22.2337 -35.5906 22.1688C-37.2459 23.6224 -35.4576 23.0898 -35.6092 25.0727C-36.4801 25.7246 -37.8625 25.9234 -39.5518 25.8501ZM-22.8427 25.1419L-33.6679 25.1502C-31.5518 23.6305 -34.5477 22.7645 -32.6877 21.4923C-30.9594 21.8922 -26.8904 20.6427 -26.8132 22.2443C-25.5363 21.2585 -22.1852 21.2711 -20.9261 22.2408C-21.3445 23.3302 -22.3061 24.0843 -22.8427 25.1419ZM8.68994 22.9677C8.68668 22.2712 9.85611 22.3949 10.6596 22.2307C10.6038 22.9114 9.43437 22.7877 8.68994 22.9677ZM15.5387 22.2101C15.7009 21.3683 17.3428 21.6185 18.5164 21.4903C18.3541 22.3322 16.7123 22.0819 15.5387 22.2101ZM164.191 16.3855C164.247 15.7049 165.416 15.8285 166.161 15.6486C166.089 16.3882 164.92 16.2646 164.191 16.3855ZM284.232 17.1858C275.259 16.4255 263.321 18.2224 253.742 16.4145C251.994 16.3255 251.666 17.3126 249.815 17.1329C248.881 14.4796 253.687 16.1469 255.712 15.6776C258.157 15.7637 260.425 15.8023 261.611 14.9186C268.486 16.1915 278.001 14.6941 286.218 16.3899C286.205 17.1453 285.036 17.0217 284.232 17.1858ZM293.113 16.4036C295.923 14.1845 299.921 17.216 303.938 16.3954C302.283 17.8489 294.876 17.3819 293.113 16.4036ZM326.546 27.4489C324.169 25.9267 330.676 24.3187 329.465 26.7133C329.402 26.9493 327.412 27.9971 326.546 27.4489ZM359.035 18.6379L343.271 18.6509C341.436 19.3605 340.001 16.4467 339.341 18.6728C336.13 20.9741 342.805 19.9172 339.341 18.6728C337.094 17.3751 331.903 18.3238 329.474 17.2305C330.097 20.812 332.793 18.3094 336.363 19.3926C336.197 20.4863 333.965 20.0778 332.437 20.111L326.55 20.1145C324.683 19.9938 324.371 20.9219 322.623 20.8329C312.228 19.9445 308.301 20.663 295.026 20.8369C295.68 16.2695 302.198 20.2923 306.81 19.3781C309.917 18.8828 308.088 17.444 307.79 15.7201C310.046 16.5142 312.108 17.3199 313.718 18.6364C315.53 17.5412 316.186 15.5669 318.628 14.9565C321.29 14.4685 320.56 16.4859 321.587 17.1405C323.447 15.8683 328.061 16.5989 331.401 16.4187C332.881 16.5624 335.008 16.1839 335.318 17.1523C342.106 14.7341 352.963 18.1492 358.938 16.3988C359.087 17.2608 360.497 17.1959 361.907 17.131L366.845 17.1262C368.687 17.8095 370.143 14.9746 370.775 17.1042C370.161 21.0499 364.375 17.6028 359.035 18.6379ZM380.682 17.925C380.694 17.1696 380.691 16.4731 380.704 15.7176L382.661 15.7361C383.2 16.3232 383.679 16.8944 383.663 17.9017L380.682 17.925ZM482.051 13.5324C481.523 13.1381 482.749 12.581 483.012 12.7782C483.539 13.1724 482.314 13.7295 482.051 13.5324ZM482.057 19.4149C481.529 19.0207 482.755 18.4637 483.018 18.6608C483.546 19.055 482.32 19.612 482.057 19.4149ZM487.938 13.5289C486.93 13.5117 485.981 13.5104 484.957 13.5522C485.119 12.7104 486.761 12.9606 487.935 12.8324L490.9 12.8682C490.753 13.651 489.096 13.4597 487.938 13.5289ZM545.038 12.0716L545.048 10.6197L547.005 10.6382L546.995 12.0902L545.038 12.0716ZM608.013 11.3664C608.541 11.7606 607.315 12.3175 606.993 12.1046C606.525 11.7262 607.75 11.1693 608.013 11.3664ZM608.996 20.9254C606.579 20.0248 603.201 19.8783 600.153 19.4412C597.138 18.886 598.222 21.453 595.206 20.8978C592.084 20.5038 590.912 18.7355 587.309 18.7185C583.816 18.2886 584.908 21.3003 581.4 20.9294L581.409 19.4774C579.538 20.5568 574.884 19.4997 573.54 20.9733C572.686 20.6179 571.757 20.3058 571.592 19.5029C570.796 20.1116 568.886 19.916 568.661 20.9938C567.091 20.004 563.57 20.3886 562.736 18.7741C559.514 19.9343 558.988 18.5917 554.833 18.7432C558.115 16.6506 561.653 18.8001 564.66 17.2658C569.554 17.1862 569.526 18.0008 573.512 17.2982C576.651 16.6849 575.542 19.1701 577.42 19.4836C578.318 18.9655 578.91 18.1754 579.399 17.2947C580.943 17.2025 583.175 17.6109 583.326 16.5763C584.901 16.3661 585.034 17.287 586.294 17.3085C587.098 17.1444 587.256 16.5543 588.264 16.5715C590.911 16.1424 596.048 17.5191 597.129 15.8483C597.994 16.3965 599.325 16.6266 601.046 16.5818C604.432 17.1729 605.206 15.2302 606.933 16.5784C609.178 16.2314 611.94 15.1376 613.828 16.5922C614.271 19.4298 609.393 18.5021 608.996 20.9254ZM613.935 20.9205C613.407 20.5263 614.632 19.9693 614.896 20.1664C615.423 20.5607 614.198 21.1177 613.935 20.9205ZM598.193 116.045C597.666 115.651 598.891 115.094 599.214 115.307C599.682 115.685 598.516 116.258 598.193 116.045ZM610.026 116.054C610.023 115.358 611.192 115.481 611.996 115.317C611.94 115.998 610.771 115.874 610.026 116.054ZM748.756 20.1797C748.078 17.2788 751.37 17.2757 754.662 17.2725C753.856 19.3332 756.054 19.1631 755.639 20.9489C753.897 22.2528 750.102 21.2991 748.756 20.1797ZM762.55 20.9037L762.559 19.4518C762.388 17.2559 758.455 20.1227 762.559 19.4518C763.744 19.5164 764.898 19.699 764.507 20.9222L762.55 20.9037ZM772.364 20.1818C771.032 20.9 770.389 22.1189 769.423 23.1248C767.395 22.8976 766.778 21.6573 765.456 20.9235C767.962 19.1289 770.63 17.4408 776.3 18.0115C777.116 20.6332 774.252 21.6364 772.364 20.1818ZM782.237 19.4758C777.66 20.0202 777.63 18.2416 782.249 18.7204C784.762 18.3187 786.066 17.4667 786.17 20.1504C784.118 20.4858 783.567 19.7059 782.237 19.4758ZM789.113 22.3934C789.11 21.6969 790.338 21.8364 791.083 21.6565C791.07 22.4119 789.858 22.2135 789.113 22.3934ZM791.079 20.96C790.296 20.8133 790.084 20.1874 789.119 20.245C789.277 19.6551 790.081 19.4909 790.077 18.7944C790.861 18.9411 791.089 19.5081 792.038 19.5094C791.896 20.0404 791.092 20.2045 791.079 20.96ZM807.842 22.4161C807.838 21.7197 809.067 21.8591 809.811 21.6792C809.755 22.3598 808.586 22.2362 807.842 22.4161ZM809.761 20.2114C809.268 21.3439 808.738 20.2533 808.75 19.4978C810.577 19.2918 810.844 20.1854 809.761 20.2114ZM813.729 22.4127C814.526 20.8557 818.952 20.3976 820.636 21.671C820.194 23.3229 815.753 21.9434 813.729 22.4127ZM908.202 18.0063C908.199 17.3099 909.369 17.4334 910.172 17.2693C910.16 18.0248 908.99 17.9012 908.202 18.0063ZM911.18 17.2865C914.45 19.4907 914.116 14.5954 911.18 17.2865ZM919.012 18.057C919.265 17.113 920.982 17.3201 920.969 18.0755C920.566 19.1059 920.111 17.972 919.012 18.057ZM933.776 16.575C933.249 16.1807 934.474 15.6237 934.722 15.8799C935.265 16.2151 934.04 16.7721 933.776 16.575ZM1042.04 20.227C1040.47 20.4372 1040.32 19.5752 1039.07 19.4948C1038.68 18.1249 1043.6 18.431 1042.04 20.227ZM1044.97 15.8911C1044.98 15.3874 1044.99 14.8838 1044.98 14.4392L1046.94 14.4577C1046.93 14.9613 1046.94 15.4059 1046.93 15.9096L1044.97 15.8911ZM1140.45 20.9846C1138.98 20.3372 1138.34 19.1559 1138.46 17.291L1147.33 17.2643C1146.61 19.7265 1142.47 19.5671 1140.45 20.9846ZM1150.34 18.0713C1151.2 18.1748 1151.31 17.7619 1151.36 17.333C1152.53 17.4567 1152.2 18.6956 1152.35 19.5576C1150.56 19.8383 1150.42 18.9764 1150.34 18.0713ZM1176.9 21.0129C1177.44 19.4515 1178.45 19.4687 1179.81 20.2773C1180.49 22.7336 1177.79 21.443 1176.9 21.0129ZM1216.26 14.423C1216.27 14.8676 1216.26 15.3712 1216.25 15.8749C1214.29 16.1082 1213.2 15.6896 1213.29 14.3874L1216.26 14.423ZM1204.46 15.9408C1200.26 15.7657 1196.66 16.0005 1195.58 18.1159C1193.48 16.9837 1191.22 15.9968 1188.71 15.1984C1188.82 13.5853 1192.91 14.8699 1194.59 14.4985L1200.48 14.4951C1205.11 14.2184 1208.7 14.7389 1212.31 15.2005C1212.77 17.5344 1207.8 15.7606 1207.41 17.4284C1208.96 18.9809 1214.31 17.694 1216.26 18.9126C1214.55 20.5431 1208.72 19.1695 1205.44 19.6173C1205.72 17.8588 1205.26 16.725 1204.46 15.9408ZM1215.23 22.4958C1215.11 22.7159 1213.11 23.8226 1212.26 23.2155C1211.58 22.6558 1216.33 21.0178 1215.23 22.4958ZM1218.23 19.5686C1219.14 18.295 1221.65 17.7005 1223.17 18.8673C1222.27 20.0819 1219.7 20.7196 1218.23 19.5686ZM1224.12 19.5651C1224.3 17.4642 1228.78 17.7776 1228.04 20.2987C1226.3 20.4025 1225.99 19.434 1224.12 19.5651ZM1230.06 21.0295C1229.64 19.5258 1230.71 19.0552 1231.02 18.127C1232.44 18.7586 1234.15 19.2174 1233.97 21.0665C1232.65 21.0292 1231.32 21.0509 1230.06 21.0295Z" fill="#FCDE3B"/>
</g>
</svg>
