<svg width="50" height="1080" viewBox="0 0 50 1080" fill="none" xmlns="http://www.w3.org/2000/svg">
<g clip-path="url(#clip0_66_1546)">
<mask id="mask0_66_1546" style="mask-type:luminance" maskUnits="userSpaceOnUse" x="0" y="0" width="50" height="1080">
<path d="M50 0H0V1080H50V0Z" fill="white"/>
</mask>
<g mask="url(#mask0_66_1546)">
<mask id="mask1_66_1546" style="mask-type:luminance" maskUnits="userSpaceOnUse" x="0" y="0" width="50" height="1080">
<path d="M0 1080H50V0H0V1080Z" fill="white"/>
</mask>
<g mask="url(#mask1_66_1546)">
<path d="M32.3643 0.0823951C32.3313 0.152422 32.3434 0.212349 32.3675 0.332395C32.4785 0.172333 32.6465 0.0422853 32.8147 -0.0777612L35.3823 -0.978151C35.6085 -0.107814 35.67 1.13279 36.283 1.30285C36.5842 -0.767948 37.1609 -0.778035 37.9673 0.332396C38.5789 4.7341 36.2257 3.85384 35.1577 5.24438C34.1657 4.64415 35.2218 0.602488 34.0529 0.312376C32.3676 0.332383 33.3098 4.94423 32.3649 6.22473C32.5736 7.47521 33.358 7.77536 33.5007 9.1759C32.2691 9.29595 33.2499 109.425 32.9213 111.115C33.9934 113.526 33.0624 -0.678054 34.0236 1.89294C33.9255 5.6644 34.0374 9.04591 35.1568 10.7366C36.5806 10.6165 36.2676 7.43524 36.2677 4.84424C36.2536 2.88348 34.7584 3.59364 35.1761 0.922605C37.2162 1.21272 35.9334 -4.34936 36.8508 -6C35.1666 -5.02963 35.8721 111.856 35.7591 110.125C36.4974 109.485 36.8293 108.034 36.8844 106.183C35.9143 106.393 35.5944 107.904 35.7591 110.125C34.0663 108.694 35.2398 8.94579 35.7476 6.23474L37.9646 6.22473C38.7896 7.89538 36.8191 112.476 39.0799 -5.95996C39.1456 -3.51902 38.203 -2.9288 37.9678 -1.00806C38.3073 -1.00806 38.6918 -1.00806 39.0763 -1.01807C38.9783 2.75339 39.1021 6.18469 40.1644 7.84534C39.75 10.7765 39.5312 13.9477 38.4906 15.7084C39.1641 16.1686 39.6155 16.9589 39.6264 18.6696C40.0236 24.862 40.0012 31.8346 40.7523 37.3967C40.9982 39.7777 39.7391 39.5276 40.2169 42.3287C41.6118 46.0802 39.7896 55.5839 41.8923 58.0748C41.5493 60.4157 41.08 62.6066 41.339 65.9979C39.2033 66.178 40.5067 60.2757 37.4414 62.0464C37.7004 65.4377 37.2191 67.5685 36.8761 69.9094C38.8999 68.939 37.3527 74.3612 39.1335 73.861L39.1298 78.8028C37.9499 79.403 35.4485 77.5623 35.2286 79.7932L35.2108 82.7745L38.5484 82.8044L38.529 72.6205C39.7705 73.2607 40.3255 69.8394 40.2275 73.6108C40.1712 77.1122 38.4017 71.52 38.5431 74.5812C38.378 80.1434 39.5621 83.3347 39.1091 89.387C38.1675 90.9176 36.5933 88.1765 35.7405 91.3277C35.6415 94.1488 35.6863 96.7298 37.4221 96.2496C37.6659 99.3308 35.9289 98.8606 35.7661 101.132C38.0446 102.362 36.3875 108.894 36.3367 111.946C36.2575 113.686 36.9968 -6.05005 36.8967 -4.17932C37.3205 -1.15815 36.3208 -0.617887 36.3172 1.72302C36.849 1.72302 36.7632 2.96343 36.8631 3.68371C36.9891 9.02579 36.4855 15.5283 37.4301 19.4398C35.5063 21.1305 37.7371 25.6622 36.3021 29.2736C36.8502 30.534 37.873 31.7646 37.9707 33.1852C37.9553 32.8751 37.4136 34.7057 37.408 35.1559C37.3354 37.3968 36.7332 38.9374 36.8417 42.0586C37.4185 42.0486 37.9503 42.0486 38.527 42.0386C37.9412 44.8397 37.9697 46.1602 38.5375 48.9413C36.5392 48.3711 36.8674 51.8725 36.8496 54.8536C38.9876 53.9733 38.8379 57.2546 40.2024 57.7848C41.1823 58.335 42.5282 58.3051 43.0225 59.7756C41.0646 60.5859 41.7585 66.1079 38.5276 64.7074C38.7735 67.0883 37.5145 66.8383 37.9922 69.6494C37.8295 71.9202 39.5675 70.7397 39.6597 72.6005C40.2221 73.2307 40.2209 74.8814 41.3713 74.6013C42.8346 74.9114 40.8244 69.0892 43.0282 70.6598C43.4521 73.681 42.0701 73.5309 42.4489 76.5621C41.6884 78.983 40.7405 74.8214 40.2328 77.5324C40.0403 80.1324 43.3772 76.6221 42.4771 80.4806C42.9822 83.6588 40.628 81.826 40.8201 84.418C40.753 86.2147 41.4924 86.5248 41.3801 88.3365C39.7938 88.1345 41.8433 94.379 40.269 94.2359C39.9164 93.2195 39.0002 93.2245 39.1333 91.2787C39.7759 91.1167 39.5849 89.474 39.6827 88.2996C39.0588 86.4288 38.9778 83.6718 38.5637 81.4109C39.3439 80.5045 41.0406 74.4012 38.0346 75.5217C38.3047 78.0226 38.7803 78.9329 37.4421 80.4115C36.8205 77.8425 36.7464 84.329 36.33 85.3614C36.7935 86.2117 37.8538 85.9657 38.0294 87.2972C36.521 87.0041 36.5625 89.332 36.3273 91.2507C36.9534 92.4242 36.9379 94.709 36.9015 97.127C38.5054 96.9439 38.0196 100.47 40.2533 99.1167C40.6617 101.823 39.1589 101.084 39.128 103.057C38.6556 102.4 37.5581 101.519 37.4427 103.079C36.068 106.981 37.1957 113.676 37.9953 116.879C38.0634 118.627 37.3097 118.955 37.4469 120.806C38.0583 127.81 37.5021 132.881 38.0101 141.503C37.7892 142.784 37.0235 143.053 36.8838 144.494C37.8132 145.498 37.4921 148.65 38.0017 150.434C37.2491 151.711 37.6434 155.056 36.8907 156.333C40.2063 155.549 37.0903 160.378 38.0227 164.23C40.0937 162.552 39.1225 164.413 40.2539 166.169C40.5408 164.738 41.1165 163.777 41.9241 163.24C42.0577 167.435 40.0868 167.24 41.3588 171.1C40.2085 171.377 40.2501 173.705 39.6567 175.053C39.8961 176.932 41.2749 176.828 40.8067 179.968C39.9704 181.781 38.5445 182.598 38.5871 185.876C38.7759 188.215 39.2734 189.941 39.6929 191.756C38.0361 193.097 38.541 198.872 39.1418 201.573C37.5947 204.397 38.1975 208.996 39.7113 211.441C39.7147 209.097 40.6695 208.572 40.2906 205.539C41.799 205.833 39.7439 200.033 41.9477 201.602C41.5476 203.895 40.4277 209.987 43.0797 209.498C42.7812 205.678 44.081 204.715 43.6319 200.63C44.3856 200.302 44.0979 198.187 44.1805 196.703C44.7023 195.949 45.456 195.621 46.4415 195.718C46.6442 202.612 44.984 206.297 43.6697 210.495C44.1959 210.943 44.665 211.348 44.7923 212.444C44.0002 213.291 43.0124 213.891 43.1353 216.38C43.1603 220.045 42.5713 222.594 42.0064 225.262C43.5719 225.599 42.9619 228.282 41.9897 229.193C41.0746 227.551 41.5297 223.403 41.4332 220.334C41.0819 217.672 42.1579 212.545 40.8769 211.475C40.6634 216.805 39.1886 222.579 40.3352 227.241C40.1682 228.313 39.2124 227.889 39.2408 229.208C40.4757 229.345 40.4272 231.704 40.3457 234.139C38.7087 234.397 38.4211 232.282 37.5698 231.188C37.1613 228.482 38.664 229.221 38.6949 227.247C38.1655 226.547 37.8459 225.456 37.5592 224.29C39.471 222.543 37.5386 219.232 38.1103 214.472C37.806 213.693 37.5018 212.913 37.5514 211.503L37.5409 204.605C37.2509 203.187 38.1872 199.503 36.9678 199.678C35.8029 203.189 36.6879 210.35 36.426 215.444C36.1788 217.304 35.2481 217.947 35.3139 220.393C36.5375 224.016 35.7042 231.273 35.336 235.138C36.0222 239.203 36.4087 243.69 36.9841 247.919C36.7115 248.712 36.3939 249.52 36.4345 250.899C37.3724 254.305 36.4573 255.259 36.9908 259.757C35.6789 263.257 36.989 269.192 37.5304 272.548C36.3669 274.413 36.4206 276.8 36.9642 279.459C36.171 279.357 35.3899 279.315 35.28 280.43C35.1326 283.014 35.4708 284.668 36.9484 284.34C37.4876 288.392 36.9359 292.069 36.9422 295.169C36.9455 295.421 36.8299 296.98 36.9563 297.126C38.1207 298.807 36.6838 297.919 36.9396 301.058C36.9517 301.117 37.4625 301.254 37.4844 302.069C37.5063 302.885 36.5405 304.3 36.9359 305.998C37.4324 306.773 37.2873 308.661 38.0717 308.955C36.7719 326.444 38.8062 346.308 38.6313 365.048C39.0498 365.913 39.2375 367.304 39.1913 368.966C38.0959 369.984 38.379 373.494 37.5033 374.878C38.3903 370.008 35.5623 371.76 35.8076 368.002C36.0801 367.21 36.3977 366.401 36.3692 365.082C35.0533 362.188 37.4527 361.409 36.3728 360.142C35.952 359.973 35.8279 359.131 35.2511 359.143C33.7403 362.143 34.8927 363.764 34.7001 368.96C31.93 374.301 35.6547 384.961 32.4574 389.629C33.8845 389.761 33.3536 393.304 34.139 394.547C32.9721 396.16 32.7412 399.28 31.9204 401.405C32.6751 402.026 32.0146 405.17 33.0122 405.327C33.436 408.344 31.4762 407.259 31.9 410.276C33.0918 412.327 31.6087 413.101 31.8973 416.166C32.8586 416.145 33.3432 416.861 33.5518 418.117C32.8674 418.548 32.4025 419.344 32.4134 421.049C33.9723 420.882 33.8073 423.853 34.6707 425.006C32.9339 424.54 32.3679 426.258 31.8921 427.944C32.3887 428.721 33.1731 429.015 34.1223 428.935C34.5165 432.279 32.0392 430.552 31.8885 432.884C32.0159 433.98 32.9947 433.572 33.0232 434.892C33.1352 435.676 33.556 435.845 33.5692 436.854C32.4782 436.477 32.7448 441.321 34.1281 439.823C33.7191 444.906 33.831 445.689 33.5461 451.614C32.888 451.465 32.531 451.845 32.4386 452.573C32.8242 453.514 33.4646 454.049 34.138 454.508C33.9302 456.798 33.4786 458.603 33.0268 460.408C33.7816 461.029 34.0386 462.522 34.1637 464.314C34.3094 471.165 34.8091 472.192 34.1847 478.11C35.0997 479.751 34.6445 483.9 34.7411 486.969C36.0549 487.963 35.6988 491.888 37.5312 491.878C37.8776 487.197 38.0043 482.15 39.2086 479.069C39.4069 470.831 39.3435 467.688 40.3119 460.383C40.4412 449.447 39.7488 437.09 41.4523 428.894L41.4596 419.014C41.7322 418.221 42.0497 417.413 42.0092 416.035C41.4909 411.848 42.3853 411.028 40.877 408.138C41.5198 407.975 41.3287 406.333 41.4387 405.217C42.7967 402.651 43.0563 398.255 43.6619 394.37C42.0407 389.747 44.1769 384.375 43.6719 378.6C44.8222 378.323 43.7963 374.251 45.3739 374.647C44.3772 378.036 45.4241 379.378 45.3535 383.519C44.0487 393.664 44.574 407.093 43.6636 417.986C44.8257 420.364 44.4709 420.046 44.2377 423.864C44.7057 423.319 45.1409 422.85 45.922 422.892C46.2217 425.066 44.8661 424.339 44.7957 425.883C45.8119 426.603 44.8757 427.692 44.8229 428.85C45.1272 429.63 45.3985 430.484 45.3819 431.82C44.5447 432.683 43.602 433.267 43.7249 435.757C43.5621 438.03 43.8191 439.523 44.2981 440.684C43.3235 442.293 42.6827 444.355 42.0783 446.592C42.0925 448.55 43.5878 447.835 43.2152 450.499L43.2194 468.226C42.9985 469.506 42.2327 469.775 42.0931 471.218C42.3017 472.475 43.0862 472.769 43.2289 474.174C41.9676 474.617 43.0088 479.001 42.6625 481.085C43.2653 485.686 42.5062 486.459 43.2331 491.902C41.9551 496.277 43.0993 504.233 43.8141 509.617C42.7592 512.013 43.4531 517.531 43.2441 521.467C42.3005 521.102 42.1905 522.217 42.1047 523.45C41.7145 526.499 43.6449 525.315 43.2096 528.381C42.525 531.407 42.328 535.402 42.0947 539.219C44.0535 541.951 43.1255 550.635 42.6616 554.976C43.4471 556.22 42.9821 559.612 43.7795 560.916C40.9337 565.651 43.0285 571.88 42.6905 581.56C42.8179 582.654 43.7968 582.247 43.8252 583.567C42.2366 584.062 41.8519 586.666 41.6056 589.475C42.5599 594.142 41.3458 596.468 41.6134 602.262C42.0121 604.212 44.9203 601.672 44.3894 605.213C44.6627 607.967 42.2869 602.722 42.1735 606.181C41.8645 609.393 42.5719 610.727 42.7607 613.067C40.7607 619.34 43.4154 629.489 42.2164 634.722C43.0009 635.017 42.6787 637.219 42.7765 638.641C41.9832 638.54 41.2021 638.497 41.0922 639.612C42.7093 640.438 40.7712 642.764 41.0885 644.552C41.6979 649.657 41.3649 652.749 40.5327 658.361C40.9513 659.227 41.127 660.558 41.0928 662.28C40.1993 666.646 41.8327 671.328 40.537 676.088C41.5795 676.228 40.8861 679.448 41.6738 679.994C40.4389 679.858 41.4253 683.5 41.1264 684.872C40.8088 685.68 40.5362 686.472 40.5768 687.851C40.8821 689.58 39.8832 693.666 41.163 693.787C41.5715 696.492 40.0687 695.754 40.0378 697.728C41.667 698.612 40.6792 699.212 40.5978 701.646L43.4037 701.674L43.4 706.614C42.4716 706.56 41.9618 707.373 41.7288 708.594C41.3275 712.535 42.2547 714.235 42.2853 717.453C43.0883 718.311 44.467 718.207 43.9658 721.422C43.6294 724.263 43.12 719.882 42.3125 720.42C41.7005 721.204 41.9695 722.756 41.7639 724.348C41.3528 727.531 41.334 729.564 42.3204 733.207C41.5523 734.173 41.2116 735.813 40.6633 737.144C42.6233 735.633 41.0125 740.504 42.3308 740.105C41.925 745.439 42.5903 752.234 42.3361 758.781C42.2833 759.94 41.2546 764.354 41.7839 767.65C43.4273 770.492 41.1295 776.49 42.3544 778.466C40.5733 781.561 40.6103 787.88 40.7043 794.242C41.3458 795.727 42.3081 796.655 42.3859 799.16C42.9469 804.028 40.2713 810.54 42.9386 812.959C42.5957 815.295 42.1264 817.486 42.3734 820.819C43.5485 826.802 43.6492 831.072 44.0487 836.567C43.2883 838.987 42.3856 834.808 41.8328 837.534C41.8469 839.493 43.3421 838.778 42.9245 841.457C43.6441 840.254 43.8133 841.081 44.6098 841.435C45.0709 845.578 43.5394 846.116 43.5128 849.292C44.0859 854.218 43.6945 858.915 44.0666 864.04C44.2465 866.572 43.5576 868.398 43.5003 870.95C43.3216 880.701 44.7501 890.52 43.4982 899.507C44.7484 899.954 43.7197 904.368 44.0404 906.408C43.8645 907.673 43.0537 907.957 42.9591 909.384C44.1973 909.772 43.4004 914.611 42.9566 915.273C43.741 915.567 43.4067 917.711 43.5165 919.192C42.4166 921.605 42.9787 927.422 43.5103 930.022C42.9882 933.37 42.7671 937.248 42.3955 940.86C42.3283 942.657 43.0677 942.967 42.9555 944.78C43.0235 946.528 42.2698 946.856 42.407 948.707C42.7113 949.487 43.0275 950.326 42.9659 951.677C42.5094 960.069 43.1768 968.762 44.0903 977.242C43.8612 984.857 44.3848 991.195 45.2171 996.918C45.463 999.301 44.2041 999.047 44.6817 1001.85C45.2153 1006.35 45.8686 1013.09 45.2476 1016.66C46.368 1019.31 45.6083 1025.27 45.8322 1029.44C46.2716 1030.17 46.2155 1031.08 46.3912 1032.41C46.6547 1034.4 46.3482 1034.32 46.9502 1035.38C46.881 1035.27 46.4029 1037.66 46.3886 1038.3C46.4105 1039.11 46.862 1039.9 46.9476 1041.27C47.0025 1042.01 46.3839 1042.29 46.385 1043.24C46.3904 1042.79 46.9265 1044 46.9298 1044.25C47.1691 1046.13 46.6033 1047.84 46.3504 1050.15C47.5853 1050.29 46.5742 1054.31 46.9366 1056.09C47.2409 1056.87 47.5001 1057.66 47.4956 1059.06C47.6723 1061.34 47.3976 1062.83 46.9602 1063.99C47.6183 1064.14 47.4248 1065.79 47.5192 1066.96L47.5234 1053.68C48.2616 1025.62 48.0493 1050.31 48.6555 1052.57C47.9975 1052.42 47.6854 1052.78 47.548 1053.53C47.1775 1058.09 48.4111 1059.87 48.6492 1063.4C47.928 1021.42 50.0763 975.589 48.319 983.994C48.8792 985.317 49.2174 986.971 49.9995 987.963C49.2577 990.946 49.2421 995.827 49.9933 998.792C48.6703 1003.18 50.3234 1006.78 49.4243 1011.59C49.3572 1013.39 50.0966 1013.7 49.9844 1015.51C49.1064 1017.59 49.5829 1022.05 48.8555 1024.39C49.1454 1025.81 48.2091 1029.49 49.3835 1029.34C48.8457 1037.57 48.2254 1047.28 48.8356 1055.93C48.8817 1056.86 49.342 1057.46 49.3946 1058.9C49.5722 1064.73 49.3257 1070.13 49.2023 1075.43L47.986 1075.86C47.9015 1075.44 47.7839 1075.11 47.7774 1074.6C47.3935 1066.82 47.4413 1058.32 47.7627 1049.98C47.7979 1049.2 48.2813 1048.97 48.3253 1048.01C48.3253 1048.01 47.6992 1046.83 47.7794 1046.04C47.7882 1045.85 48.6705 1044.97 48.3421 1044.07C47.1072 1043.94 48.1183 1039.91 47.768 1038.2C47.634 1036.6 48.2888 1036.49 48.3296 1035.28C47.3508 1033.09 48.0631 1027.84 47.1833 1025.42C48.1229 1021.99 46.6849 1020.15 47.7354 1016.55C47.2565 1015.39 46.7097 1009.89 47.1649 1005.74C47.4298 1003.49 47.4397 1004.25 47.1686 1000.8C46.8909 996.842 47.1472 992.193 47.7385 988.946C46.7315 982.842 45.563 1038.82 46.393 1064.32C45.2157 1059.03 46.0995 1061.32 46.9655 1056.58C45.2276 1055.17 45.7643 1027.58 46.3951 1054.77C45.1853 1041.77 45.9006 1056.45 44.6908 1043.45C44.4449 1041.07 45.7039 1041.32 45.2262 1038.51C44.6342 1035.62 43.9644 1032.82 44.125 1028.64C44.156 1026.67 45.6587 1027.41 45.2503 1024.7C45.3317 1022.27 44.9484 1020.63 44.1454 1019.77C44.3732 1013.8 43.6056 1009.58 42.4842 1005.98C43.7719 1004.96 43.636 1001.46 43.6263 998.11C43.0638 997.484 43.065 995.838 41.9718 996.158C41.7963 992.231 41.9339 988.89 43.1008 987.277C41.7352 985.794 42.4145 980.617 41.4359 978.428C42.0785 978.266 41.8875 976.623 41.9854 975.448C42.0349 974.038 42.0844 972.628 41.4264 972.479C39.8883 972.512 40.1066 977.121 40.847 978.381C39.5603 980.352 39.8841 985.241 39.1423 988.224L39.1229 998.045C38.6823 998.959 38.5185 1000.28 38.5744 1001.97C38.3337 1004.34 39.5861 1004.09 39.1025 1006.92C38.4894 1006.75 38.0874 1007.15 37.9951 1007.87C37.241 1013.39 37.1943 1020.25 36.3139 1025.62C36.7325 1026.49 36.9082 1027.82 36.874 1029.54C36.7079 1031.56 35.3831 1031.46 35.217 1033.48C36.7549 1036.04 34.5203 1036.45 34.6826 1039.37C34.8282 1046.22 34.1973 1051.63 33.5783 1057.1C35.1341 1056.68 34.09 1060.79 35.2469 1061.01C35.2459 1060.06 35.9159 1060.27 36.3543 1060.05C37.2417 1063.92 33.9605 1060.39 34.1075 1063C35.2785 1065.18 33.5358 1067.76 34.0871 1071.87C35.256 1072.15 34.5987 1075.55 35.7555 1075.78C35.439 1077.53 36.4078 1078.56 35.1762 1078.68C35.3696 1077.03 34.7446 1079.8 34.0536 1079.73C33.313 1081.07 33.0006 1055.61 34.6408 1055.6C34.4377 1053.9 35.0804 1053.74 35.7352 1053.64C35.8402 1059.11 35.8399 1055.3 34.6356 1058.38C35.063 1059.05 35.8612 1063.9 34.6329 1064.27C34.7144 1061.83 34.3311 1060.2 33.528 1059.34C32.0832 1062.19 33.7661 1055.46 33.5208 1059.21C34.1635 1059.05 34.4853 1059.45 34.6424 1060.21C32.8605 1059.76 33.0679 1062.67 32.4086 1064.16C33.0588 1035.04 32.4684 977.782 34.2744 980.947C34.4381 979.623 35.6554 980.146 36.4903 979.979C36.8339 983.784 36.9393 984.064 35.924 986.889C37.1588 987.026 36.1478 991.053 36.4982 992.766C36.9167 993.632 37.1045 995.023 37.0582 996.685C36.4263 998.553 36.3273 1001.37 35.9601 1003.59C36.8083 1004.43 37.1915 1006.07 37.065 1008.52C36.6935 1009.54 35.7774 1009.55 35.9267 1011.46C35.7486 1013.42 36.0231 1014.52 37.0624 1014.41C36.5305 1017.01 35.9841 1022.83 37.0562 1025.24C36.3717 1025.67 35.9069 1026.47 35.9178 1028.17C36.3944 1030.03 36.8469 1031.77 37.0357 1034.11C35.5741 1040.89 38.1654 1045.3 37.04 1051.84C36.2468 1051.74 35.4657 1051.7 35.3558 1052.81C35.9006 1053.82 36.4784 1054.76 37.0232 1055.77C36.8602 1060.64 37.1292 1064.79 37.5629 1068.56C36.8244 1071.8 36.6933 1075.64 36.8237 1079.59L-7.05729 1080L-11.251 1.10278L32.3764 0.142332L32.3643 0.0823951ZM41.8816 218.277C42.4584 218.265 42.3069 217.051 42.4443 216.307C41.9125 216.303 42.0069 217.474 41.8816 218.277ZM31.6404 1064.63C33.6267 1065.13 34.1204 1057.87 31.643 1058.74L31.6404 1064.63ZM31.6556 1037.08C32.4423 1036.68 31.5765 1036.22 31.6414 1035.12C30.9207 1035.37 31.0789 1037.09 31.6556 1037.08ZM32.7667 1031.18C32.6414 1031.98 32.9599 1032.13 33.3115 1032.19L33.308 1037.13C33.2584 1038.54 33.2087 1039.95 33.8669 1040.1L33.8554 1032.25C34.0181 1029.98 34.9564 1028.2 33.858 1026.36C32.3013 1025.83 34.3113 1031.65 32.7667 1031.18ZM29.9687 1013.48C29.8871 1015.92 29.8838 1018.26 31.0736 1018.41C30.0122 1020.31 31.0042 1020.91 31.0699 1023.35C32.6399 1022.3 31.7656 1019.44 33.8617 1021.42C34.1376 1018.29 32.8544 1017.92 33.3193 1014.52C31.9701 1016.9 32.3912 1011.87 29.9687 1013.48ZM34.4353 1004.63C32.5325 1003.59 33.5583 1007.66 33.3109 1009.52C34.5305 1009.35 34.4889 1007.02 34.4353 1004.63ZM31.6424 1005.61C30.7832 1005.66 30.4246 1012.88 32.2166 1011.49C32.619 1008.5 31.2401 1008.61 31.6424 1005.61C31.7623 1002.66 33.9505 1006.51 31.6424 1005.61ZM31.6601 1002.63C33.0423 1002.78 34.3431 1002.77 35.0298 1001.64C34.7255 1000.86 34.4213 1000.08 34.4707 998.67C33.3611 1000.33 33.7677 998.537 32.2538 998.689C31.7561 999.56 31.6043 1000.94 31.6601 1002.63ZM32.2009 985.917L32.1946 996.747C33.3549 994.63 34.0159 997.627 34.9873 995.766C34.682 994.037 35.636 989.966 34.4132 989.889C35.1659 988.612 35.1562 985.259 34.4158 984C33.5841 984.418 33.0084 985.38 32.2009 985.917ZM33.0974 1058.41C33.6292 1058.42 33.5348 1057.25 33.66 1056.44C33.1404 1056.5 33.2349 1057.67 33.0974 1058.41ZM33.6758 1051.56C34.3185 1051.4 34.1276 1059.76 34.2254 1058.59C33.5826 1058.75 33.7737 1050.39 33.6758 1051.56ZM38.1228 942.867C38.6424 942.811 38.548 941.641 38.6854 940.896C38.1207 940.968 38.2151 942.138 38.1228 942.867ZM37.5118 822.779C38.0923 831.756 36.7204 843.698 38.1007 853.281C38.1686 855.03 37.4149 855.358 37.5522 857.21C39.5779 858.144 38.305 853.336 38.6633 851.31C38.5975 848.864 38.5681 846.596 39.2427 845.409C38.271 838.531 39.4142 829.013 38.1195 820.793C37.5428 820.806 37.6371 821.975 37.5118 822.779ZM38.109 813.895C39.8033 811.084 37.4887 807.084 38.1153 803.066C37.0055 804.721 37.362 812.131 38.109 813.895ZM29.6762 780.449C30.8383 782.827 32.066 776.317 30.2378 777.529C30.0576 777.592 29.2576 779.583 29.6762 780.449ZM36.4032 747.947L36.3932 763.717C35.8515 765.553 38.0761 766.989 36.3764 767.649C35.4264 764.184 34.6196 770.861 36.3764 767.649C37.3673 769.897 36.6429 775.09 37.4777 777.52C34.7433 776.897 36.6539 774.199 35.8269 770.628C34.9919 770.794 35.3038 773.027 35.2785 774.556L35.2758 780.445C35.3679 782.313 34.6593 782.625 34.7273 784.373C35.4055 794.772 34.857 798.701 34.7243 811.981C38.2114 811.327 35.1401 804.806 35.8379 800.193C36.2161 797.084 37.3147 798.914 38.6308 799.212C38.0245 796.955 37.4094 794.892 36.4043 793.282C37.2405 791.469 38.7478 790.813 39.2138 788.37C39.5864 785.707 38.0461 786.437 37.5464 785.41C38.5177 783.549 37.9599 778.933 38.0975 775.592C37.9877 774.111 38.2768 771.984 37.5374 771.673C39.3836 764.884 36.7763 754.022 38.1127 748.044C37.4546 747.895 37.5041 746.485 37.5537 745.074L37.5574 740.134C37.0356 738.292 39.2 736.835 37.5742 736.203C34.5616 736.817 37.1934 742.605 36.4032 747.947ZM36.9475 726.292C37.5242 726.28 38.0559 726.283 38.6327 726.27L38.6186 724.312C38.1704 723.773 37.7343 723.294 36.9652 723.31L36.9475 726.292ZM40.3011 624.884C40.6021 625.412 41.0274 624.185 40.877 623.922C40.576 623.395 40.1506 624.62 40.3011 624.884ZM35.8099 624.878C36.1109 625.406 36.5362 624.179 36.3857 623.916C36.0848 623.388 35.6595 624.614 35.8099 624.878ZM40.3038 618.994C40.3169 620.003 40.3179 620.952 40.286 621.976C40.9287 621.814 40.7377 620.172 40.8355 618.997L40.8082 616.031C40.2105 616.178 40.3566 617.836 40.3038 618.994ZM41.4164 561.872L42.525 561.862L42.5107 559.904L41.4022 559.914L41.4164 561.872ZM41.9548 498.873C41.6539 498.345 41.2286 499.571 41.3912 499.893C41.6802 500.362 42.1053 499.136 41.9548 498.873ZM34.6568 497.889C35.3443 500.307 35.4562 503.687 35.7899 506.736C36.2138 509.752 34.2539 508.668 34.6778 511.685C34.9785 514.808 36.3287 515.98 36.3416 519.585C36.6699 523.079 34.3705 521.987 34.6537 525.496L35.7622 525.487C34.9381 527.359 35.7452 532.015 34.6202 533.359C34.8914 534.213 35.1298 535.143 35.7428 535.308C35.278 536.104 35.4273 538.015 34.6045 538.24C35.3602 539.812 35.0665 543.333 36.2991 544.167C35.4134 547.391 36.4385 547.917 36.3228 552.073C37.9204 548.79 36.2793 545.251 37.4507 542.243C37.5114 537.347 36.8896 537.375 37.426 533.387C37.8943 530.247 35.9969 531.356 35.7575 529.478C36.1531 528.579 36.7563 527.987 37.4287 527.498C37.4991 525.953 37.1872 523.72 37.9772 523.569C38.1377 521.994 37.4345 521.861 37.4181 520.6C37.5434 519.796 37.9939 519.638 37.9808 518.629C38.3084 515.981 37.2574 510.842 38.533 509.761C38.1144 508.896 37.9387 507.564 37.9729 505.842C37.5217 502.455 39.0048 501.681 37.9755 499.953C38.2405 497.707 39.0756 494.944 37.965 493.055C35.7985 492.612 36.5069 497.493 34.6568 497.889ZM34.6604 492.949C34.9614 493.477 35.3867 492.251 35.2362 491.987C34.9351 491.46 34.5099 492.685 34.6604 492.949ZM35.2261 358.075C37.4408 358.753 37.4432 355.46 37.4456 352.167C35.8723 352.973 36.0022 350.774 34.6388 351.19C33.6433 352.932 34.3714 356.729 35.2261 358.075ZM34.6733 344.276L35.7818 344.267C35.2696 348.372 37.4584 344.438 35.7818 344.267C35.7325 343.081 35.5931 341.927 34.6591 342.318L34.6733 344.276ZM35.2245 334.458C34.6761 335.79 33.7455 336.434 32.9775 337.4C33.1509 339.429 34.098 340.046 34.6581 341.369C36.0284 338.862 37.3172 336.193 36.8814 330.521C34.8798 329.704 34.1138 332.569 35.2245 334.458ZM35.7635 324.582C35.3478 329.16 36.7057 329.19 36.3402 324.569C36.6469 322.055 37.2973 320.751 35.2484 320.647C34.9923 322.699 35.5878 323.251 35.7635 324.582ZM33.5359 317.703C34.0676 317.706 33.9611 316.477 34.0985 315.732C33.5217 315.745 33.6733 316.957 33.5359 317.703ZM34.6303 315.736C34.7423 316.519 35.2202 316.731 35.1762 317.696C35.6266 317.538 35.752 316.734 36.2836 316.738C36.1716 315.954 35.7388 315.726 35.7378 314.776C35.3324 314.918 35.2071 315.723 34.6303 315.736ZM33.5186 298.967C34.0503 298.97 33.9438 297.741 34.0812 296.997C33.5615 297.053 33.6559 298.222 33.5186 298.967ZM35.2019 297.046C34.3372 297.54 35.1699 298.071 35.7467 298.058C35.9039 296.23 35.2217 295.963 35.2019 297.046ZM33.5212 293.077C34.71 292.28 35.0597 287.852 34.0875 286.167C32.8262 286.609 33.8795 291.052 33.5212 293.077ZM36.8853 198.567C37.4171 198.57 37.3227 197.4 37.448 196.596C36.8713 196.608 36.9657 197.779 36.8853 198.567ZM37.4349 195.588C39.4895 192.651 35.7521 192.317 37.4349 195.588ZM36.8466 187.753C37.5673 187.5 37.4093 185.783 36.8325 185.795C36.0459 186.199 36.9115 186.654 36.8466 187.753ZM37.9782 172.983C38.2791 173.511 38.7044 172.285 38.5089 172.037C38.253 171.494 37.8277 172.719 37.9782 172.983ZM35.1899 64.6775C35.0295 66.2481 35.6876 66.3981 35.749 67.6486C36.7949 68.0388 36.5611 63.1169 35.1899 64.6775ZM38.5003 61.7463C38.8849 61.7363 39.2694 61.7263 39.6088 61.7363L39.5947 59.7756C39.2102 59.7856 38.8707 59.7756 38.4862 59.7856L38.5003 61.7463ZM34.6115 86.2758C35.1058 87.7464 36.0076 88.3866 37.4315 88.2665L37.4518 79.3931C35.5721 80.1134 35.6938 84.255 34.6115 86.2758ZM36.8358 76.382C36.7567 75.5216 37.072 75.4115 37.3994 75.3615C37.305 74.1911 36.3591 74.5212 35.701 74.3712C35.4866 76.1618 36.1447 76.3019 36.8358 76.382ZM34.5899 69.8193C35.7819 69.2791 35.7689 68.2687 35.1515 66.9082C33.2762 66.2279 34.2615 68.929 34.5899 69.8193ZM39.6212 30.4441C39.2817 30.4441 38.8972 30.4441 38.5127 30.4541C38.3346 32.4149 38.6541 33.5053 39.6484 33.4153L39.6212 30.4441ZM38.4623 42.2488C38.5961 46.4504 38.4168 50.0518 36.8017 51.1322C37.6662 53.233 38.4196 55.4938 39.0292 58.0048C40.2607 57.8948 39.28 53.8032 39.5636 52.1226L39.5661 46.2302C39.7774 41.5984 39.38 38.007 39.0276 34.3956C37.2456 33.9354 38.5999 38.9073 37.3266 39.2975C36.1413 37.7469 37.1239 32.4049 36.1935 30.4441C34.9486 32.1548 35.9973 37.987 35.6555 41.2683C36.9979 40.9882 37.8637 41.4485 38.4623 42.2488ZM33.4578 31.4745C33.2897 31.5945 32.4448 33.5953 32.9083 34.4457C33.3356 35.1259 34.5862 30.3741 33.4578 31.4745ZM35.6926 28.4734C36.665 27.563 37.1189 25.052 36.228 23.5314C35.3007 24.4317 34.8139 27.0028 35.6926 28.4734ZM35.6952 22.5811C37.2992 22.401 37.06 17.9193 35.1352 18.6595C35.0559 20.4002 35.7953 20.7103 35.6952 22.5811ZM34.5773 16.6387C35.7253 17.0588 36.0846 15.9885 36.7933 15.6783C36.3111 14.2578 35.9607 12.5472 34.5489 12.7273C34.5774 14.0478 34.5609 15.3782 34.5773 16.6387Z" fill="#FCDE3B"/>
</g>
</g>
</g>
<defs>
<clipPath id="clip0_66_1546">
<rect width="50" height="1080" fill="white"/>
</clipPath>
</defs>
</svg>
