<svg width="1301" height="51" viewBox="0 0 1301 51" fill="none" xmlns="http://www.w3.org/2000/svg">
<g clip-path="url(#clip0_66_1540)">
<mask id="mask0_66_1540" style="mask-type:luminance" maskUnits="userSpaceOnUse" x="0" y="0" width="1301" height="51">
<path d="M0.5 0.5L0.5 50.5L1300.5 50.5V0.5L0.5 0.5Z" fill="white"/>
</mask>
<g mask="url(#mask0_66_1540)">
<path d="M1300.4 32.8653C1300.32 32.8323 1300.24 32.8444 1300.1 32.8685C1300.29 32.9795 1300.45 33.1476 1300.59 33.3157L1301.68 35.8833C1300.63 36.1095 1299.14 36.171 1298.93 36.784C1301.42 37.0852 1301.44 37.662 1300.1 38.4683C1294.8 39.0799 1295.86 36.7267 1294.19 35.6587C1294.91 34.6668 1299.77 35.7228 1300.12 34.5539C1300.1 32.8686 1294.55 33.8108 1293.01 32.8659C1291.5 33.0746 1291.14 33.859 1289.45 34.0017C1289.31 32.7701 1168.78 33.7509 1166.75 33.4223C1163.85 34.4944 1301.32 33.5635 1298.22 34.5246C1293.68 34.4265 1289.61 34.5383 1287.58 35.6578C1287.72 37.0816 1291.55 36.7686 1294.67 36.7688C1297.03 36.7546 1296.17 35.2594 1299.39 35.6771C1299.04 37.7172 1305.74 36.4344 1307.72 37.3518C1306.55 35.6676 1165.86 36.3731 1167.94 36.2601C1168.71 36.9984 1170.46 37.3303 1172.69 37.3854C1172.43 36.4153 1170.62 36.0955 1167.94 36.2601C1169.66 34.5673 1289.73 35.7408 1293 36.2486L1293.01 38.4656C1291 39.2906 1165.11 37.3201 1307.67 39.5809C1304.74 39.6466 1304.03 38.704 1301.71 38.4687C1301.71 38.8083 1301.71 39.1928 1301.73 39.5773C1297.19 39.4793 1293.06 39.6031 1291.06 40.6654C1287.53 40.251 1283.71 40.0322 1281.59 38.9916C1281.04 39.6651 1280.09 40.1166 1278.03 40.1274C1270.57 40.5246 1262.18 40.5022 1255.49 41.2533C1252.62 41.4992 1252.92 40.2402 1249.55 40.7179C1245.03 42.1128 1233.59 40.2906 1230.6 42.3933C1227.78 42.0503 1225.14 41.581 1221.06 41.84C1220.84 39.7043 1227.95 41.0077 1225.81 37.9424C1221.73 38.2014 1219.17 37.7201 1216.35 37.3772C1217.52 39.4009 1210.99 37.8537 1211.59 39.6346L1205.64 39.6308C1204.92 38.4509 1207.14 35.9495 1204.45 35.7296L1200.86 35.7118L1200.83 39.0494L1213.09 39.0301C1212.32 40.2715 1216.43 40.8265 1211.89 40.7285C1207.68 40.6722 1214.41 38.9027 1210.73 39.0442C1204.03 38.879 1200.19 40.0631 1192.9 39.6101C1191.06 38.6685 1194.36 37.0943 1190.57 36.2415C1187.17 36.1425 1184.07 36.1873 1184.64 37.9232C1180.94 38.1669 1181.5 36.4299 1178.77 36.2672C1177.29 38.5456 1169.42 36.8885 1165.75 36.8377C1163.66 36.7585 1307.78 37.4978 1305.53 37.3977C1301.89 37.8215 1301.24 36.8218 1298.43 36.8182C1298.43 37.35 1296.93 37.2642 1296.07 37.3641C1289.64 37.4901 1281.81 36.9865 1277.1 37.9311C1275.07 36.0073 1269.61 38.2382 1265.26 36.8031C1263.75 37.3512 1262.26 38.374 1260.55 38.4717C1260.93 38.4563 1258.72 37.9146 1258.18 37.909C1255.49 37.8364 1253.63 37.2342 1249.87 37.3428C1249.89 37.9195 1249.89 38.4513 1249.9 39.028C1246.53 38.4422 1244.94 38.4707 1241.59 39.0385C1242.28 37.0402 1238.06 37.3683 1234.47 37.3505C1235.53 39.4886 1231.58 39.339 1230.94 40.7034C1230.28 41.6834 1230.32 43.0292 1228.55 43.5235C1227.57 41.5656 1220.93 42.2596 1222.61 39.0286C1219.75 39.2745 1220.05 38.0155 1216.66 38.4932C1213.93 38.3305 1215.35 40.0685 1213.11 40.1607C1212.35 40.7231 1210.36 40.7219 1210.7 41.8723C1210.33 43.3356 1217.34 41.3255 1215.45 43.5292C1211.81 43.9531 1211.99 42.5711 1208.34 42.9499C1205.43 42.1894 1210.44 41.2415 1207.17 40.7338C1204.04 40.5414 1208.27 43.8782 1203.63 42.9781C1199.8 43.4832 1202.01 41.129 1198.89 41.3211C1196.72 41.254 1196.35 41.9933 1194.17 41.8811C1194.41 40.2948 1186.9 42.3443 1187.07 40.77C1188.29 40.4174 1188.29 39.5012 1190.63 39.6343C1190.82 40.277 1192.8 40.0859 1194.21 40.1837C1196.47 39.5598 1199.78 39.4788 1202.51 39.0648C1203.6 39.8449 1210.94 41.5416 1209.59 38.5356C1206.58 38.8057 1205.49 39.2814 1203.71 37.9432C1206.8 37.3215 1198.99 37.2474 1197.75 36.831C1196.73 37.2945 1197.02 38.3548 1195.42 38.5304C1195.77 37.022 1192.97 37.0636 1190.66 36.8283C1189.25 37.4545 1186.5 37.4389 1183.59 37.4025C1183.81 39.0065 1179.56 38.5207 1181.19 40.7543C1177.94 41.1628 1178.83 39.6599 1176.45 39.629C1177.24 39.1566 1178.3 38.0591 1176.42 37.9437C1171.73 36.569 1163.67 37.6968 1159.81 38.4964C1157.71 38.5644 1157.31 37.8107 1155.09 37.9479C1146.65 38.5593 1140.55 38.0031 1130.17 38.5111C1128.63 38.2902 1128.31 37.5245 1126.57 37.3848C1125.36 38.3142 1121.57 37.9931 1119.42 38.5028C1117.88 37.7501 1113.86 38.1443 1112.32 37.3917C1113.27 40.7073 1107.45 37.5913 1102.82 38.5237C1104.84 40.5947 1102.6 39.6235 1100.48 40.755C1102.2 41.0418 1103.36 41.6176 1104.01 42.4251C1098.96 42.5588 1099.19 40.5879 1094.55 41.8598C1094.21 40.7096 1091.41 40.7511 1089.79 40.1577C1087.53 40.3971 1087.65 41.7759 1083.87 41.3077C1081.69 40.4714 1080.71 39.0455 1076.76 39.0881C1073.94 39.2769 1071.87 39.7744 1069.68 40.1939C1068.07 38.5371 1061.12 39.042 1057.87 39.6428C1054.47 38.0957 1048.93 38.6985 1045.99 40.2123C1048.81 40.2157 1049.44 41.1705 1053.09 40.7916C1052.74 42.3 1059.72 40.245 1057.83 42.4487C1055.07 42.0486 1047.74 40.9287 1048.33 43.5808C1052.92 43.2822 1054.08 44.582 1059 44.133C1059.4 44.8866 1061.94 44.599 1063.73 44.6815C1064.63 45.2034 1065.03 45.957 1064.91 46.9425C1056.62 47.1452 1052.18 45.485 1047.13 44.1707C1046.59 44.6969 1046.1 45.166 1044.78 45.2933C1043.76 44.5012 1043.04 43.5135 1040.04 43.6363C1035.63 43.6613 1032.56 43.0723 1029.35 42.5074C1028.95 44.0729 1025.72 43.463 1024.62 42.4907C1026.6 41.5756 1031.59 42.0307 1035.28 41.9343C1038.49 41.5829 1044.66 42.6589 1045.95 41.3779C1039.53 41.1644 1032.58 39.6895 1026.97 40.8362C1025.68 40.6692 1026.19 39.7134 1024.6 39.7418C1024.44 40.9767 1021.6 40.9282 1018.67 40.8468C1018.36 39.2098 1020.9 38.9221 1022.22 38.0707C1025.48 37.6623 1024.59 39.165 1026.96 39.196C1027.8 38.6665 1029.12 38.3469 1030.52 38.0602C1032.62 39.972 1036.61 38.0397 1042.34 38.6113C1043.28 38.307 1044.22 38.0029 1045.91 38.0524L1054.22 38.0419C1055.92 37.7519 1060.36 38.6882 1060.15 37.4687C1055.92 36.3039 1047.3 37.1889 1041.17 36.927C1038.93 36.6797 1038.16 35.7491 1035.21 35.8149C1030.85 37.0385 1022.12 36.2052 1017.46 35.8369C1012.57 36.5232 1007.17 36.9097 1002.08 37.4851C1001.12 37.2125 1000.15 36.895 998.492 36.9355C994.392 37.8735 993.243 36.9583 987.829 37.4919C983.616 36.1799 976.473 37.49 972.433 38.0314C970.188 36.8679 967.315 36.9216 964.114 37.4652C964.237 36.672 964.288 35.8909 962.945 35.781C959.835 35.6335 957.844 35.9718 958.239 37.4494C953.361 37.9886 948.936 37.4369 945.204 37.4432C944.901 37.4465 943.024 37.331 942.848 37.4574C940.825 38.6217 941.894 37.1849 938.115 37.4406C938.044 37.4527 937.879 37.9635 936.898 37.9855C935.917 38.0073 934.213 37.0416 932.169 37.4369C931.236 37.9335 928.964 37.7883 928.61 38.5727C907.558 37.2729 883.648 39.3072 861.091 39.1323C860.049 39.5508 858.375 39.7386 856.374 39.6923C855.149 38.5969 850.924 38.88 849.258 38.0044C855.12 38.8913 853.011 36.0633 857.535 36.3086C858.488 36.5811 859.461 36.8987 861.05 36.8702C864.533 35.5543 865.47 37.9537 866.996 36.8738C867.199 36.4531 868.213 36.3289 868.199 35.7522C864.587 34.2413 862.636 35.3937 856.381 35.2011C849.952 32.4311 837.122 36.1558 831.502 32.9584C831.343 34.3855 827.079 33.8546 825.582 34.64C823.641 33.4732 819.885 33.2423 817.327 32.4214C816.58 33.1761 812.795 32.5156 812.606 33.5132C808.975 33.937 810.28 31.9772 806.649 32.401C804.18 33.5928 803.248 32.1097 799.56 32.3984C799.585 33.3597 798.723 33.8442 797.21 34.0528C796.693 33.3684 795.734 32.9036 793.681 32.9144C793.882 34.4734 790.307 34.3084 788.919 35.1718C789.48 33.435 787.412 32.869 785.382 32.3932C784.447 32.8897 784.093 33.6741 784.19 34.6233C780.164 35.0175 782.243 32.5402 779.436 32.3895C778.117 32.5169 778.607 33.4957 777.019 33.5242C776.075 33.6362 775.871 34.057 774.658 34.0702C775.112 32.9792 769.28 33.2458 771.084 34.6291C764.965 34.2201 764.022 34.332 756.89 34.0471C757.069 33.3891 756.613 33.032 755.736 32.9396C754.603 33.3252 753.959 33.9656 753.406 34.639C750.65 34.4312 748.478 33.9795 746.305 33.5279C745.558 34.2826 743.761 34.5396 741.603 34.6647C733.357 34.8104 732.12 35.3101 724.998 34.6857C723.022 35.6007 718.028 35.1456 714.333 35.2421C713.136 36.556 708.413 36.1997 708.425 38.0323C714.059 38.3786 720.134 38.5053 723.843 39.7096C733.759 39.908 737.543 39.8445 746.335 40.8129C759.499 40.9423 774.373 40.2499 784.239 41.9533L796.132 41.9607C797.085 42.2332 798.058 42.5508 799.718 42.5102C804.757 41.992 805.744 42.8863 809.223 41.3781C809.418 42.0208 811.396 41.8297 812.738 41.9397C815.827 43.2977 821.119 43.5573 825.795 44.1629C831.36 42.5417 837.826 44.6779 844.778 44.1729C845.111 45.3232 850.012 44.2973 849.536 45.8749C845.457 44.8782 843.841 45.9252 838.857 45.8546C826.645 44.5498 810.48 45.075 797.368 44.1645C794.506 45.3267 794.889 44.9719 790.294 44.7387C790.949 45.2068 791.514 45.6419 791.463 46.423C788.846 46.7228 789.722 45.3671 787.863 45.2967C786.997 46.3129 785.685 45.3768 784.292 45.324C783.353 45.6282 782.324 45.8995 780.717 45.8829C779.678 45.0457 778.975 44.1031 775.977 44.2259C773.242 44.0632 771.445 44.3202 770.047 44.7991C768.11 43.8245 765.629 43.1838 762.935 42.5794C760.578 42.5935 761.439 44.0888 758.233 43.7162L736.895 43.7205C735.353 43.4995 735.03 42.7338 733.293 42.5941C731.781 42.8028 731.427 43.5872 729.735 43.7299C729.201 42.4686 723.925 43.5098 721.416 43.1636C715.878 43.7664 714.948 43.0072 708.396 43.7341C703.13 42.4561 693.553 43.6003 687.072 44.3151C684.188 43.2603 677.546 43.9542 672.808 43.7452C673.247 42.8015 671.906 42.6915 670.421 42.6057C666.751 42.2155 668.176 44.1459 664.486 43.7106C660.843 43.026 656.035 42.829 651.44 42.5958C648.151 44.5545 637.699 43.6266 632.473 43.1627C630.976 43.9481 626.893 43.4831 625.324 44.2806C619.624 41.4348 612.126 43.5295 600.474 43.1915C599.157 43.3189 599.647 44.2978 598.059 44.3262C597.463 42.7376 594.328 42.3529 590.947 42.1066C585.33 43.061 582.53 41.8468 575.555 42.1144C573.208 42.5131 576.266 45.4213 572.003 44.8905C568.688 45.1638 575.001 42.7879 570.837 42.6745C566.972 42.3655 565.366 43.073 562.549 43.2618C554.998 41.2618 542.781 43.9165 536.482 42.7175C536.128 43.5019 533.477 43.1798 531.766 43.2775C531.887 42.4843 531.939 41.7031 530.596 41.5932C529.603 43.2103 526.802 41.2722 524.65 41.5896C518.505 42.1989 514.783 41.8659 508.029 41.0338C506.986 41.4523 505.383 41.628 503.311 41.5938C498.056 40.7003 492.42 42.3337 486.69 41.0381C486.521 42.0806 482.646 41.3871 481.989 42.1748C482.153 40.94 477.768 41.9263 476.117 41.6274C475.144 41.3098 474.191 41.0372 472.531 41.0779C470.45 41.3831 465.531 40.3842 465.386 41.6641C462.13 42.0725 463.018 40.5698 460.642 40.5388C459.578 42.168 458.855 41.1802 455.926 41.0988L455.892 43.9047L449.946 43.901C450.011 42.9727 449.033 42.4629 447.563 42.2299C442.819 41.8286 440.772 42.7558 436.899 42.7863C435.867 43.5893 435.992 44.9681 432.122 44.4669C428.702 44.1305 433.975 43.621 433.328 42.8135C432.384 42.2015 430.515 42.4705 428.599 42.265C424.768 41.8539 422.321 41.8351 417.937 42.8214C416.773 42.0533 414.8 41.7127 413.197 41.1644C415.015 43.1244 409.152 41.5135 409.633 42.8318C403.212 42.4261 395.033 43.0914 387.152 42.8371C385.757 42.7843 380.445 41.7557 376.477 42.285C373.056 43.9283 365.836 41.6306 363.457 42.8555C359.732 41.0744 352.126 41.1113 344.468 41.2053C342.681 41.8468 341.563 42.8091 338.548 42.887C332.688 43.448 324.851 40.7724 321.938 43.4397C319.126 43.0967 316.489 42.6275 312.478 42.8744C305.276 44.0495 300.136 44.1503 293.522 44.5498C290.609 43.7894 295.639 42.8866 292.357 42.3338C289.999 42.3479 290.86 43.8432 287.636 43.4255C289.083 44.1452 288.087 44.3144 287.662 45.1108C282.674 45.572 282.027 44.0405 278.205 44.0139C272.274 44.587 266.62 44.1955 260.451 44.5676C257.404 44.7476 255.206 44.0586 252.134 44.0013C240.397 43.8227 228.578 45.2512 217.76 43.9992C217.222 45.2494 211.909 44.2208 209.454 44.5414C207.93 44.3655 207.588 43.5548 205.871 43.4602C205.404 44.6983 199.579 43.9015 198.782 43.4576C198.428 44.242 195.848 43.9078 194.066 44.0176C191.161 42.9177 184.159 43.4798 181.029 44.0114C176.999 43.4893 172.331 43.2681 167.983 42.8965C165.821 42.8294 165.447 43.5687 163.265 43.4565C161.16 43.5245 160.765 42.7709 158.538 42.9081C157.598 43.2123 156.589 43.5286 154.963 43.467C144.862 43.0105 134.398 43.6778 124.19 44.5913C115.023 44.3622 107.395 44.8858 100.506 45.7181C97.6375 45.9641 97.9438 44.7051 94.5636 45.1828C89.1493 45.7164 81.0416 46.3696 76.7397 45.7486C73.5549 46.869 66.3745 46.1094 61.3628 46.3333C60.4815 46.7727 59.3908 46.7166 57.7883 46.8922C55.3846 47.1558 55.4837 46.8493 54.2138 47.4513C54.3369 47.3821 51.4674 46.904 50.6991 46.8896C49.7176 46.9116 48.7652 47.3631 47.1247 47.4487C46.2333 47.5035 45.8957 46.8849 44.7528 46.886C45.2887 46.8915 43.8385 47.4276 43.5351 47.4308C41.2736 47.6702 39.2052 47.1043 36.4309 46.8515C36.2668 48.0863 31.419 47.0752 29.2857 47.4377C28.3473 47.7419 27.3898 48.0011 25.7112 47.9966C22.966 48.1733 21.1731 47.8986 19.7689 47.4612C19.5896 48.1193 17.6025 47.9259 16.1943 48.0203L32.1853 48.0245C65.9548 48.7626 36.2333 48.5503 33.517 49.1566C33.6962 48.4985 33.2595 48.1865 32.3631 48.0491C26.8715 47.6785 24.7253 48.9121 20.4816 49.1503C71.0109 48.429 126.18 50.5773 116.063 48.82C114.47 49.3802 112.479 49.7185 111.286 50.5006C107.695 49.7588 101.82 49.7431 98.2503 50.4944C92.9658 49.1713 88.6342 50.8245 82.843 49.9254C80.6807 49.8583 80.3072 50.5976 78.1258 50.4854C75.6207 49.6075 70.2584 50.084 67.4359 49.3565C65.7292 49.6464 61.2941 48.7102 61.4856 49.8846C51.5785 49.3468 39.8848 48.7265 29.4723 49.3367C28.3488 49.3828 27.6287 49.843 25.8984 49.8957C18.8853 50.0733 12.3791 49.8268 6.00064 49.7033L5.48646 48.4871C5.98499 48.4025 6.392 48.285 6.9989 48.2785C16.3637 47.8945 26.5968 47.9424 36.6408 48.2638C37.5704 48.299 37.851 48.7824 39.0118 48.8264C39.0118 48.8264 40.4243 48.2002 41.3732 48.2805C41.6056 48.2893 42.6641 49.1715 43.7442 48.8431C43.9092 47.6083 48.756 48.6193 50.8187 48.269C52.7442 48.1351 52.8682 48.7899 54.3333 48.8306C56.9683 47.8519 63.2903 48.5642 66.1956 47.6843C70.3272 48.6239 72.5395 47.186 76.8705 48.2365C78.2686 47.7576 84.8969 47.2108 89.8908 47.666C92.594 47.9309 91.6836 47.9408 95.8371 47.6696C100.597 47.392 106.193 47.6483 110.101 48.2396C117.45 47.2326 50.0738 46.064 19.3755 46.8941C25.7373 45.7167 22.9862 46.6005 28.6872 47.4666C30.3916 45.7287 63.6037 46.2653 30.87 46.8961C46.5163 45.6864 28.8479 46.4016 44.4942 45.1919C47.3626 44.9459 47.0564 46.2049 50.4366 45.7272C53.921 45.1353 57.2962 44.4654 62.3181 44.6261C64.6938 44.657 63.8046 46.1598 67.0616 45.7513C69.9922 45.8328 71.9642 45.4495 72.9968 44.6464C80.181 44.8743 85.2679 44.1067 89.5954 42.9852C90.8256 44.2729 95.0361 44.137 99.0715 44.1273C99.8246 43.5649 101.807 43.566 101.421 42.4729C106.148 42.2974 110.17 42.4349 112.111 43.6018C113.896 42.2363 120.128 42.9156 122.763 41.9369C122.958 42.5796 124.935 42.3886 126.349 42.4865C128.047 42.536 129.744 42.5855 129.923 41.9274C129.883 40.3893 124.336 40.6077 122.82 41.348C120.446 40.0614 114.562 40.3851 110.971 39.6433L99.1499 39.624C98.049 39.1834 96.4556 39.0196 94.4214 39.0755C91.5759 38.8347 91.8766 40.0872 88.4712 39.6036C88.6694 38.9905 88.1946 38.5884 87.3172 38.4961C80.6728 37.742 72.4218 37.6954 65.9526 36.815C64.9099 37.2336 63.3075 37.4092 61.2353 37.375C58.8024 37.209 58.9284 35.8841 56.4956 35.7181C53.411 37.2559 52.924 35.0213 49.4104 35.1837C41.1645 35.3293 34.6482 34.6984 28.0608 34.0794C28.5658 35.6351 23.628 34.5911 23.3547 35.7479C24.4976 35.7469 24.2472 36.417 24.5086 36.8554C19.8535 37.7428 24.1067 34.4615 20.9678 34.6086C18.3378 35.7795 15.2388 34.0369 10.2891 34.5881C9.94472 35.757 5.8562 35.0997 5.58294 36.2565C3.46758 35.9401 2.23068 36.9088 2.09128 35.6772C4.07841 35.8707 0.73523 35.2456 0.824266 34.5546C-0.784357 33.814 29.8585 33.5016 29.8657 35.1419C31.9139 34.9388 32.1093 35.5815 32.2336 36.2362C25.6473 36.3413 30.2351 36.3409 26.525 35.1367C25.7149 35.564 19.8788 36.3623 19.4359 35.134C22.3665 35.2155 24.3386 34.8321 25.3711 34.0291C21.9405 32.5842 30.0443 34.2671 25.5201 34.0218C25.7156 34.6645 25.2419 34.9864 24.3174 35.1435C24.86 33.3616 21.3656 33.5689 19.5626 32.9097C54.6211 33.5598 123.54 32.9695 119.73 34.7754C121.324 34.9392 120.695 36.1564 120.896 36.9914C116.316 37.335 115.979 37.4404 112.578 36.425C112.413 37.6599 107.566 36.6489 105.504 36.9993C104.461 37.4177 102.787 37.6055 100.786 37.5593C98.5377 36.9274 95.1423 36.8283 92.4722 36.4612C91.4586 37.3093 89.4866 37.6926 86.5369 37.5661C85.313 37.1946 85.3069 36.2784 83.0073 36.4277C80.6455 36.2496 79.3135 36.5241 79.4479 37.5635C76.3269 37.0316 69.3128 36.4851 66.4125 37.5572C65.8946 36.8727 64.936 36.4079 62.8828 36.4189C60.6453 36.8955 58.5501 37.348 55.7338 37.5367C47.571 36.0751 42.2642 38.6665 34.395 37.541C34.5178 36.7478 34.5684 35.9667 33.2257 35.8568C32.0083 36.4016 30.8812 36.9794 29.6626 37.5242C23.8019 37.3613 18.8094 37.6302 14.2673 38.0639C10.373 37.3254 5.74415 37.1943 0.998517 37.3247L0.5 -6.55627L1299.17 -10.75L1300.33 32.8774L1300.4 32.8653ZM1037.76 42.3826C1037.77 42.9594 1039.23 42.8079 1040.13 42.9453C1040.13 42.4136 1038.73 42.5079 1037.76 42.3826ZM19.0045 32.1415C18.3964 34.1277 27.141 34.6215 26.0934 32.144L19.0045 32.1415ZM52.165 32.1566C52.649 32.9433 53.1981 32.0776 54.521 32.1424C54.2165 31.4217 52.1493 31.5799 52.165 32.1566ZM59.2646 33.2677C58.2971 33.1425 58.1269 33.461 58.0469 33.8126L52.1011 33.809C50.4032 33.7594 48.7054 33.7098 48.526 34.3679L57.9718 34.3564C60.7081 34.5192 62.8576 35.4575 65.0609 34.3591C65.6986 32.8023 58.6981 34.8124 59.2646 33.2677ZM80.5656 30.4697C77.635 30.3882 74.8136 30.3848 74.6305 31.5746C72.3528 30.5132 71.6287 31.5052 68.6841 31.5709C69.9574 33.1409 73.3986 32.2667 71.0072 34.3627C74.7822 34.6386 75.2306 33.3555 79.3141 33.8204C76.4574 32.4711 82.5039 32.8923 80.5656 30.4697ZM91.2179 34.9363C92.4716 33.0336 87.5701 34.0593 85.3316 33.812C85.5421 35.0315 88.3445 34.99 91.2179 34.9363ZM90.0377 32.1434C89.9794 31.2843 81.2918 30.9257 82.9637 32.7177C86.5633 33.12 86.438 31.7412 90.0377 32.1434C88.9553 34.4516 93.5942 32.2634 90.0377 32.1434ZM93.6272 32.1612C93.4492 33.5434 93.4654 34.8442 94.8227 35.5309C95.7611 35.2266 96.6995 34.9224 98.3972 34.9718C96.4039 33.8621 98.5573 34.2687 98.3748 32.7548C97.3261 32.2571 95.6614 32.1053 93.6272 32.1612ZM113.748 32.7019L100.712 32.6957C103.261 33.8559 99.653 34.517 101.893 35.4884C103.974 35.1831 108.874 36.1371 108.967 34.9143C110.504 35.6669 114.54 35.6573 116.056 34.9169C115.552 34.0852 114.394 33.5095 113.748 32.7019ZM26.4847 33.5985C26.4808 34.1302 27.889 34.0358 28.8565 34.1611C28.7894 33.6415 27.3812 33.7359 26.4847 33.5985ZM34.7318 34.1769C34.9271 34.8196 24.8625 34.6286 26.2757 34.7264C26.0803 34.0837 36.145 34.2748 34.7318 34.1769ZM165.568 38.6239C165.635 39.1435 167.043 39.049 167.94 39.1865C167.853 38.6217 166.446 38.7162 165.568 38.6239ZM310.117 38.0129C299.312 38.5933 284.937 37.2214 273.402 38.6017C271.297 38.6697 270.902 37.916 268.674 38.0532C267.549 40.079 273.336 38.806 275.775 39.1643C278.719 39.0985 281.45 39.0691 282.878 39.7437C291.157 38.772 302.614 39.9152 312.509 38.6205C312.493 38.0438 311.086 38.1381 310.117 38.0129ZM320.812 38.61C324.195 40.3043 329.01 37.9898 333.847 38.6163C331.854 37.5066 322.935 37.8631 320.812 38.61ZM361.071 30.1772C358.208 31.3393 366.044 32.567 364.586 30.7388C364.51 30.5586 362.114 29.7586 361.071 30.1772ZM400.193 36.9042L381.211 36.8943C379.001 36.3525 377.273 38.5771 376.478 36.8775C372.612 35.1206 380.649 35.9275 376.478 36.8775C373.772 37.8683 367.522 37.1439 364.597 37.9787C365.347 35.2443 368.593 37.155 372.892 36.328C372.692 35.493 370.005 35.8049 368.165 35.7795L361.076 35.7768C358.827 35.869 358.452 35.1604 356.347 35.2284C343.829 35.9066 339.101 35.3581 323.115 35.2253C323.903 38.7124 331.752 35.6411 337.305 36.339C341.047 36.7172 338.844 37.8157 338.485 39.1319C341.202 38.5256 343.685 37.9105 345.624 36.9053C347.806 37.7415 348.596 39.2489 351.536 39.7149C354.742 40.0875 353.863 38.5472 355.099 38.0474C357.339 39.0187 362.895 38.4609 366.917 38.5985C368.699 38.4888 371.26 38.7778 371.634 38.0384C379.806 39.8846 392.881 37.2773 400.076 38.6137C400.256 37.9556 401.954 38.0051 403.651 38.0547L409.598 38.0584C411.816 37.5367 413.569 39.7011 414.33 38.0752C413.591 35.0626 406.623 37.6945 400.193 36.9042ZM426.26 37.4485C426.274 38.0252 426.271 38.557 426.286 39.1338L428.643 39.1197C429.292 38.6714 429.869 38.2353 429.849 37.4663L426.26 37.4485ZM548.325 40.8022C547.689 41.1032 549.166 41.5285 549.482 41.378C550.117 41.077 548.642 40.6517 548.325 40.8022ZM548.333 36.311C547.697 36.6119 549.173 37.0372 549.49 36.8867C550.125 36.5858 548.649 36.1605 548.333 36.311ZM555.414 40.8048C554.2 40.818 553.058 40.819 551.825 40.787C552.02 41.4297 553.997 41.2387 555.411 41.3366L558.981 41.3093C558.804 40.7116 556.809 40.8577 555.414 40.8048ZM624.172 41.9175L624.184 43.026L626.541 43.0118L626.529 41.9033L624.172 41.9175ZM700.005 42.4559C700.641 42.1549 699.164 41.7296 698.777 41.8923C698.212 42.1812 699.688 42.6063 700.005 42.4559ZM701.189 35.1577C698.278 35.8453 694.211 35.9572 690.54 36.2909C686.91 36.7148 688.215 34.7549 684.583 35.1788C680.824 35.4796 679.412 36.8297 675.074 36.8426C670.868 37.1709 672.183 34.8715 667.959 35.1547L667.969 36.2633C665.716 35.4392 660.112 36.2462 658.494 35.1212C657.465 35.3924 656.347 35.6308 656.148 36.2438C655.189 35.779 652.89 35.9284 652.619 35.1055C650.727 35.8612 646.488 35.5676 645.484 36.8001C641.604 35.9144 640.971 36.9395 635.967 36.8238C639.919 38.4214 644.18 36.7804 647.801 37.9517C653.694 38.0125 653.66 37.3906 658.46 37.927C662.24 38.3953 660.904 36.4979 663.166 36.2585C664.247 36.6541 664.96 37.2573 665.549 37.9297C667.408 38.0001 670.096 37.6882 670.278 38.4782C672.174 38.6387 672.334 37.9356 673.852 37.9192C674.82 38.0445 675.01 38.4949 676.224 38.4819C679.411 38.8095 685.597 37.7584 686.899 39.034C687.941 38.6155 689.543 38.4398 691.616 38.474C695.693 38.0227 696.625 39.5058 698.705 38.4766C701.408 38.7415 704.734 39.5766 707.007 38.4661C707.541 36.2996 701.666 37.0079 701.189 35.1577ZM707.135 35.1614C706.5 35.4625 707.975 35.8877 708.293 35.7372C708.928 35.4362 707.453 35.0109 707.135 35.1614ZM869.484 35.7271C868.667 37.9419 872.631 37.9442 876.595 37.9467C875.625 36.3734 878.272 36.5032 877.772 35.1398C875.674 34.1443 871.104 34.8724 869.484 35.7271ZM886.094 35.1743L886.105 36.2828C885.899 37.9593 881.163 35.7706 886.105 36.2828C887.532 36.2335 888.921 36.0941 888.45 35.1602L886.094 35.1743ZM897.912 35.7255C896.308 35.1771 895.533 34.2465 894.37 33.4785C891.928 33.6519 891.185 34.599 889.593 35.1591C892.611 36.5293 895.824 37.8182 902.651 37.3825C903.634 35.3808 900.185 34.6148 897.912 35.7255ZM909.799 36.2645C904.289 35.8489 904.253 37.2067 909.815 36.8412C912.841 37.1479 914.411 37.7984 914.536 35.7494C912.065 35.4934 911.402 36.0888 909.799 36.2645ZM918.08 34.037C918.077 34.5686 919.555 34.4621 920.453 34.5996C920.437 34.0228 918.977 34.1743 918.08 34.037ZM920.448 35.1313C919.505 35.2433 919.25 35.7212 918.088 35.6771C918.278 36.1276 919.246 36.253 919.241 36.7846C920.185 36.6726 920.46 36.2398 921.602 36.2388C921.431 35.8334 920.463 35.7081 920.448 35.1313ZM940.632 34.0196C940.628 34.5513 942.108 34.4448 943.004 34.5822C942.937 34.0625 941.529 34.157 940.632 34.0196ZM942.944 35.7029C942.35 34.8382 941.711 35.6709 941.727 36.2477C943.927 36.4049 944.248 35.7227 942.944 35.7029ZM947.722 34.0222C948.682 35.211 954.012 35.5607 956.039 34.5885C955.507 33.3272 950.159 34.3805 947.722 34.0222ZM1061.48 37.3864C1061.48 37.9181 1062.89 37.8237 1063.86 37.949C1063.84 37.3723 1062.43 37.4667 1061.48 37.3864ZM1065.07 37.936C1069.01 36.2531 1068.61 39.9906 1065.07 37.936ZM1074.5 37.3476C1074.81 38.0684 1076.87 37.9103 1076.86 37.3335C1076.37 36.5469 1075.82 37.4125 1074.5 37.3476ZM1092.28 38.4792C1091.64 38.7802 1093.12 39.2054 1093.42 39.0099C1094.07 38.754 1092.6 38.3287 1092.28 38.4792ZM1222.65 35.691C1220.76 35.5305 1220.58 36.1886 1219.07 36.25C1218.6 37.2959 1224.53 37.0622 1222.65 35.691ZM1226.18 39.0013C1226.19 39.3859 1226.2 39.7704 1226.19 40.1098L1228.55 40.0957C1228.54 39.7112 1228.55 39.3717 1228.54 38.9872L1226.18 39.0013ZM1196.65 35.1125C1194.88 35.6068 1194.11 36.5087 1194.25 37.9325L1204.93 37.9529C1204.07 36.0731 1199.08 36.1948 1196.65 35.1125ZM1208.56 37.3368C1209.59 37.2577 1209.73 37.573 1209.79 37.9004C1211.2 37.806 1210.8 36.8601 1210.98 36.202C1208.82 35.9877 1208.66 36.6458 1208.56 37.3368ZM1216.46 35.0909C1217.11 36.283 1218.32 36.2699 1219.96 35.6526C1220.78 33.7772 1217.53 34.7625 1216.46 35.0909ZM1263.85 40.1222C1263.85 39.7827 1263.85 39.3982 1263.84 39.0137C1261.48 38.8356 1260.17 39.1551 1260.28 40.1494L1263.85 40.1222ZM1249.64 38.9633C1244.59 39.0971 1240.25 38.9177 1238.95 37.3027C1236.42 38.1672 1233.7 38.9206 1230.68 39.5302C1230.81 40.7618 1235.74 39.781 1237.76 40.0646L1244.85 40.0672C1250.43 40.2784 1254.75 39.881 1259.1 39.5286C1259.65 37.7466 1253.67 39.1009 1253.2 37.8276C1255.06 36.6423 1261.49 37.6249 1263.85 36.6945C1261.8 35.4496 1254.77 36.4983 1250.83 36.1565C1251.16 37.499 1250.61 38.3647 1249.64 38.9633ZM1262.61 33.9588C1262.47 33.7907 1260.06 32.9458 1259.04 33.4093C1258.22 33.8366 1263.94 35.0871 1262.61 33.9588ZM1266.23 36.1936C1267.32 37.166 1270.34 37.6199 1272.18 36.729C1271.09 35.8017 1268 35.3149 1266.23 36.1936ZM1273.32 36.1962C1273.54 37.8002 1278.93 37.561 1278.04 35.6362C1275.94 35.557 1275.57 36.2963 1273.32 36.1962ZM1280.47 35.0783C1279.97 36.2263 1281.25 36.5856 1281.63 37.2943C1283.34 36.8121 1285.4 36.4617 1285.18 35.0499C1283.59 35.0784 1281.99 35.0619 1280.47 35.0783Z" fill="#FCDE3B"/>
</g>
</g>
<defs>
<clipPath id="clip0_66_1540">
<rect width="1301" height="51" fill="white"/>
</clipPath>
</defs>
</svg>
