<svg width="1301" height="51" viewBox="0 0 1301 51" fill="none" xmlns="http://www.w3.org/2000/svg">
<g clip-path="url(#clip0_66_1556)">
<mask id="mask0_66_1556" style="mask-type:luminance" maskUnits="userSpaceOnUse" x="0" y="0" width="1301" height="51">
<path d="M1300.5 50.5V0.5L0.5 0.5V50.5L1300.5 50.5Z" fill="white"/>
</mask>
<g mask="url(#mask0_66_1556)">
<path d="M0.599719 18.1353C0.684011 18.1683 0.756145 18.1562 0.900645 18.1321C0.707978 18.0211 0.551439 17.853 0.406938 17.6849L-0.676865 15.1173C0.370763 14.8911 1.86408 14.8297 2.06879 14.2166C-0.423843 13.9155 -0.435984 13.3387 0.900645 12.5323C6.19899 11.9207 5.13943 14.2739 6.81322 15.3419C6.09072 16.3339 1.22576 15.2778 0.876547 16.4467C0.900631 18.132 6.45193 17.1898 7.99327 18.1347C9.49848 17.926 9.85977 17.1416 11.5456 16.9989C11.6901 18.2305 132.215 17.2497 134.25 17.5783C137.152 16.5063 -0.315637 17.4372 2.77908 16.476C7.3188 16.5741 11.3892 16.4623 13.4242 15.3429C13.2797 13.9191 9.45037 14.232 6.33156 14.2319C3.97139 14.246 4.82622 15.7412 1.61108 15.3236C1.96029 13.2834 -4.7348 14.5663 -6.72168 13.6488C-5.55364 15.333 135.141 14.6275 133.058 14.7405C132.287 14.0022 130.541 13.6703 128.313 13.6153C128.566 14.5853 130.385 14.9052 133.058 14.7405C131.336 16.4334 11.2686 15.2598 8.00532 14.752L7.99327 12.535C10.0043 11.71 135.888 13.6805 -6.67349 11.4197C-3.73531 11.354 -3.02487 12.2966 -0.712865 12.5319C-0.712865 12.1924 -0.712872 11.8078 -0.724913 11.4233C3.81481 11.5213 7.94507 11.3975 9.944 10.3352C13.4722 10.7496 17.2895 10.9684 19.4088 12.009C19.9627 11.3355 20.914 10.8841 22.9732 10.8732C30.427 10.476 38.82 10.4984 45.5151 9.74732C48.3811 9.50141 48.0801 10.7605 51.4518 10.2828C55.9675 8.8878 67.4071 10.71 70.4055 8.60737C73.2232 8.95032 75.8604 9.41964 79.9425 9.16059C80.1593 11.2963 73.0546 9.99293 75.186 13.0582C79.2682 12.7992 81.833 13.2806 84.6507 13.6234C83.4827 11.5997 90.0094 13.1469 89.4073 11.3661L95.3558 11.3698C96.0783 12.5498 93.8626 15.0511 96.5479 15.271L100.136 15.2888L100.172 11.9512L87.9141 11.9706C88.6848 10.7292 84.5665 10.1741 89.1062 10.2721C93.3208 10.3284 86.5895 12.0979 90.2743 11.9565C96.9695 12.1216 100.81 10.9375 108.096 11.3906C109.938 12.3322 106.638 13.9063 110.432 14.7591C113.827 14.8581 116.934 14.8133 116.356 13.0775C120.065 12.8338 119.499 14.5707 122.232 14.7335C123.714 12.455 131.577 14.1121 135.249 14.1629C137.345 14.2422 -6.78193 13.5028 -4.53013 13.6029C-0.893533 13.1791 -0.243212 14.1789 2.57455 14.1824C2.57455 13.6506 4.06764 13.7364 4.93464 13.6365C11.3649 13.5105 19.192 14.0141 23.9003 13.0695C25.9354 14.9934 31.3902 12.7625 35.7373 14.1975C37.2545 13.6494 38.7358 12.6266 40.4457 12.5289C40.0724 12.5443 42.276 13.086 42.8178 13.0916C45.5152 13.1642 47.3696 13.7664 51.1266 13.6579C51.1146 13.0811 51.1146 12.5494 51.1026 11.9726C54.4742 12.5584 56.0638 12.5299 59.4114 11.9621C58.725 13.9604 62.9397 13.6323 66.5281 13.6501C65.4684 11.512 69.4181 11.6617 70.0563 10.2972C70.7186 9.31725 70.6826 7.97143 72.4527 7.47717C73.4281 9.43498 80.0749 8.74105 78.3891 11.972C81.255 11.7261 80.954 12.9851 84.3377 12.5074C87.0712 12.6702 85.6503 10.9321 87.89 10.8399C88.6486 10.2775 90.6355 10.2787 90.2984 9.12837C90.6717 7.66503 83.6635 9.67517 85.554 7.47142C89.1906 7.04757 89.01 8.42955 92.6586 8.05077C95.5727 8.81122 90.5633 9.75908 93.8266 10.2668C96.9562 10.4593 92.7309 7.12247 97.3753 8.02253C101.2 7.51738 98.9949 9.87162 102.114 9.67952C104.277 9.74663 104.65 9.00728 106.831 9.11951C106.588 10.7059 114.104 8.65631 113.932 10.2306C112.709 10.5832 112.715 11.4994 110.373 11.3664C110.178 10.7237 108.2 10.9148 106.787 10.8169C104.535 11.4408 101.216 11.5218 98.4952 11.9358C97.4042 11.1557 90.0576 9.45903 91.4063 12.465C94.4167 12.1949 95.5124 11.7192 97.2922 13.0575C94.1999 13.6791 102.007 13.7532 103.25 14.1696C104.273 13.7061 103.977 12.6459 105.58 12.4702C105.227 13.9786 108.029 13.9371 110.339 14.1723C111.751 13.5462 114.502 13.5617 117.412 13.5982C117.192 11.9942 121.436 12.48 119.807 10.2463C123.064 9.83787 122.175 11.3407 124.551 11.3716C123.759 11.844 122.699 12.9415 124.577 13.0569C129.273 14.4316 137.333 13.3038 141.187 12.5043C143.292 12.4362 143.687 13.1899 145.915 13.0527C154.345 12.4413 160.449 12.9975 170.828 12.4895C172.369 12.7104 172.693 13.4762 174.428 13.6158C175.636 12.6864 179.43 13.0075 181.578 12.4978C183.115 13.2505 187.141 12.8563 188.679 13.6089C187.735 10.2933 193.548 13.4094 198.184 12.4769C196.165 10.4059 198.405 11.3771 200.518 10.2456C198.796 9.9588 197.639 9.38306 196.992 8.57553C202.042 8.44184 201.808 10.4128 206.453 9.14081C206.787 10.2911 209.589 10.2495 211.212 10.8429C213.474 10.6036 213.348 9.22472 217.128 9.69296C219.31 10.5292 220.294 11.9552 224.24 11.9126C227.056 11.7237 229.133 11.2263 231.317 10.8067C232.932 12.4636 239.883 11.9586 243.135 11.3578C246.533 12.9049 252.07 12.3021 255.013 10.7883C252.191 10.7849 251.559 9.83016 247.908 10.209C248.262 8.70059 241.28 10.7556 243.169 8.55194C245.93 8.952 253.262 10.072 252.674 7.41984C248.075 7.71839 246.916 6.41861 241.999 6.86766C241.604 6.11398 239.059 6.40166 237.272 6.31916C236.365 5.79726 235.97 5.04362 236.087 4.05816C244.385 3.85542 248.821 5.51567 253.874 6.82993C254.413 6.30372 254.901 5.83467 256.219 5.70731C257.239 6.49947 257.962 7.48717 260.958 7.3643C265.369 7.33929 268.437 7.92833 271.648 8.49323C272.054 6.92771 275.284 7.53763 276.381 8.50995C274.405 9.42498 269.411 8.96994 265.717 9.06637C262.512 9.41772 256.341 8.34175 255.054 9.62272C261.47 9.83619 268.419 11.3111 274.031 10.1644C275.321 10.3315 274.811 11.2873 276.399 11.2588C276.564 10.0239 279.403 10.0724 282.334 10.1539C282.645 11.7909 280.099 12.0785 278.782 12.9299C275.525 13.3384 276.414 11.8356 274.039 11.8047C273.196 12.3341 271.882 12.6537 270.479 12.9404C268.375 11.0287 264.391 12.961 258.661 12.3893C257.723 12.6936 256.784 12.9978 255.087 12.9482L246.783 12.9587C245.077 13.2487 240.642 12.3124 240.853 13.5319C245.08 14.6967 253.699 13.8117 259.831 14.0736C262.069 14.3209 262.843 15.2515 265.788 15.1857C270.149 13.9621 278.884 14.7954 283.537 15.1637C288.43 14.4774 293.83 14.0909 298.922 13.5156C299.875 13.7881 300.848 14.1056 302.508 14.0651C306.608 13.1272 307.757 14.0424 313.171 13.5088C317.384 14.8207 324.527 13.5106 328.567 12.9692C330.812 14.1328 333.685 14.079 336.886 13.5354C336.763 14.3286 336.712 15.1097 338.055 15.2196C341.165 15.3671 343.156 15.0289 342.761 13.5512C347.639 13.012 352.064 13.5637 355.796 13.5574C356.099 13.5541 357.976 13.6696 358.152 13.5433C360.175 12.3789 359.106 13.8158 362.885 13.56C362.956 13.5479 363.121 13.0371 364.102 13.0152C365.083 12.9933 366.787 13.9591 368.831 13.5637C369.764 13.0672 372.036 13.2123 372.39 12.4279C393.442 13.7277 417.352 11.6934 439.909 11.8683C440.951 11.4498 442.625 11.2621 444.626 11.3083C445.851 12.4037 450.076 12.1206 451.742 12.9962C445.88 12.1093 447.989 14.9373 443.465 14.692C442.512 14.4195 441.539 14.1019 439.95 14.1304C436.467 15.4463 435.53 13.0469 434.004 14.1268C433.801 14.5476 432.787 14.6717 432.801 15.2484C436.413 16.7593 438.364 15.6069 444.619 15.7995C451.048 18.5696 463.878 14.8448 469.498 18.0422C469.657 16.6151 473.921 17.146 475.418 16.3606C477.359 17.5274 481.115 17.7584 483.673 18.5792C484.42 17.8245 488.205 18.485 488.394 17.4874C492.025 17.0636 490.72 19.0235 494.351 18.5996C496.82 17.4078 497.752 18.8909 501.44 18.6022C501.415 17.6409 502.277 17.1564 503.79 16.9478C504.307 17.6322 505.266 18.097 507.319 18.0862C507.118 16.5273 510.693 16.6922 512.081 15.8288C511.52 17.5657 513.588 18.1316 515.618 18.6074C516.553 18.1109 516.907 17.3265 516.81 16.3773C520.836 15.9831 518.758 18.4604 521.565 18.6111C522.884 18.4837 522.394 17.5049 523.982 17.4764C524.926 17.3644 525.129 16.9436 526.342 16.9304C525.888 18.0214 531.721 17.7548 529.917 16.3715C536.036 16.7805 536.978 16.6686 544.11 16.9535C543.931 17.6116 544.387 17.9686 545.264 18.061C546.397 17.6755 547.041 17.035 547.594 16.3616C550.35 16.5694 552.522 17.0211 554.695 17.4728C555.442 16.718 557.239 16.461 559.397 16.3359C567.643 16.1903 568.881 15.6905 576.003 16.3149C577.979 15.3999 582.972 15.855 586.667 15.7585C587.864 14.4446 592.588 14.8009 592.576 12.9684C586.942 12.622 580.866 12.4953 577.157 11.291C567.241 11.0926 563.457 11.1561 554.665 10.1877C541.501 10.0584 526.627 10.7508 516.761 9.04728L504.868 9.03995C503.915 8.76746 502.942 8.44986 501.282 8.4904C496.243 9.00865 495.256 8.11433 491.777 9.62256C491.582 8.97979 489.604 9.17089 488.262 9.06095C485.173 7.70289 479.881 7.44329 475.205 6.83768C469.64 8.45894 463.174 6.32274 456.222 6.82769C455.889 5.67741 450.988 6.7033 451.464 5.12571C455.543 6.1224 457.159 5.07545 462.143 5.14606C474.355 6.45086 490.52 5.92564 503.632 6.83608C506.494 5.67389 506.111 6.02869 510.706 6.26187C510.051 5.79382 509.486 5.35874 509.537 4.57761C512.154 4.27785 511.279 5.63349 513.138 5.70391C514.004 4.68773 515.315 5.62382 516.708 5.67663C517.647 5.37237 518.677 5.10112 520.284 5.1177C521.323 5.95491 522.025 6.89755 525.023 6.77468C527.758 6.93745 529.555 6.68047 530.953 6.20154C532.89 7.17613 535.371 7.81683 538.065 8.42123C540.422 8.4071 539.562 6.91179 542.768 7.28441L564.105 7.28017C565.647 7.50109 565.97 8.26685 567.707 8.40649C569.219 8.19783 569.574 7.41345 571.266 7.27072C571.8 8.53201 577.075 7.49079 579.584 7.83702C585.122 7.23421 586.052 7.99338 592.604 7.26649C597.87 8.54453 607.447 7.40034 613.928 6.68551C616.812 7.74036 623.455 7.04642 628.193 7.25544C627.754 8.19913 629.094 8.30908 630.579 8.39488C634.249 8.7851 632.824 6.85472 636.514 7.28999C640.157 7.97464 644.965 8.1716 649.56 8.40481C652.849 6.44614 663.301 7.37403 668.527 7.83796C670.024 7.05252 674.108 7.51752 675.677 6.72001C681.377 9.56584 688.874 7.4711 700.526 7.80907C701.843 7.68171 701.353 6.70285 702.941 6.67437C703.537 8.26302 706.672 8.64767 710.053 8.89397C715.67 7.93961 718.47 9.15378 725.445 8.88618C727.792 8.48749 724.734 5.57927 728.997 6.11016C732.312 5.8368 726 8.21271 730.164 8.32609C734.029 8.63507 735.634 7.92766 738.451 7.73885C746.002 9.73884 758.219 7.08415 764.518 8.28313C764.872 7.49872 767.523 7.82081 769.234 7.72313C769.113 8.51635 769.061 9.29747 770.404 9.40741C771.397 7.79029 774.198 9.72838 776.35 9.411C782.495 8.80167 786.217 9.1347 792.971 9.96681C794.014 9.54827 795.618 9.3726 797.69 9.4068C802.945 10.3003 808.58 8.66691 814.31 9.96254C814.479 8.92001 818.354 9.61348 819.011 8.82579C818.847 10.0606 823.232 9.0743 824.883 9.37321C825.856 9.69082 826.809 9.96338 828.469 9.92276C830.55 9.61752 835.47 10.6165 835.615 9.33656C838.871 8.9281 837.982 10.4309 840.358 10.4618C841.422 8.83259 842.145 9.82038 845.074 9.90184L845.108 7.09593L851.055 7.09959C850.99 8.02794 851.967 8.53773 853.438 8.77074C858.181 9.17203 860.229 8.24484 864.102 8.21432C865.134 7.41128 865.008 6.03254 868.878 6.53374C872.298 6.87013 867.025 7.37957 867.672 8.18711C868.616 8.79907 870.485 8.53009 872.401 8.73562C876.232 9.14676 878.679 9.16554 883.063 8.17922C884.227 8.94726 886.2 9.28793 887.803 9.83626C885.985 7.87622 891.848 9.48712 891.367 8.16877C897.788 8.57453 905.968 7.90923 913.849 8.16349C915.244 8.2163 920.555 9.24494 924.523 8.71562C927.944 7.07231 935.165 9.37 937.544 8.14513C941.269 9.9262 948.874 9.88932 956.532 9.79526C958.319 9.15378 959.438 8.19147 962.453 8.11365C968.313 7.5526 976.149 10.2282 979.062 7.56092C981.875 7.90387 984.511 8.37312 988.522 8.12617C995.724 6.95108 1000.86 6.85034 1007.48 6.45084C1010.39 7.21126 1005.36 8.11404 1008.64 8.66683C1011 8.65271 1010.14 7.15742 1013.36 7.57509C1011.92 6.85541 1012.91 6.68625 1013.34 5.88976C1018.33 5.42864 1018.97 6.96015 1022.8 6.98675C1028.73 6.41363 1034.38 6.80511 1040.55 6.43305C1043.6 6.25306 1045.79 6.94196 1048.87 6.99927C1060.6 7.17795 1072.42 5.7494 1083.24 7.00137C1083.78 5.75116 1089.09 6.77985 1091.55 6.4592C1093.07 6.63506 1093.41 7.44581 1095.13 7.54039C1095.6 6.30226 1101.42 7.09913 1102.22 7.54303C1102.57 6.75864 1105.15 7.09278 1106.93 6.98302C1109.84 8.08291 1116.84 7.52079 1119.97 6.98925C1124 7.51133 1128.67 7.73247 1133.02 8.10406C1135.18 8.17119 1135.55 7.43187 1137.73 7.54406C1139.84 7.47608 1140.23 8.22974 1142.46 8.09253C1143.4 7.78829 1144.41 7.47199 1146.04 7.5336C1156.14 7.99013 1166.6 7.32276 1176.81 6.4093C1185.98 6.63836 1193.61 6.11482 1200.49 5.28246C1203.36 5.03653 1203.06 6.2955 1206.44 5.81779C1211.85 5.28419 1219.96 4.63102 1224.26 5.25201C1227.45 4.13159 1234.63 4.89118 1239.64 4.66735C1240.52 4.22795 1241.61 4.28404 1243.21 4.10836C1245.62 3.84482 1245.52 4.15131 1246.79 3.54933C1246.66 3.61853 1249.53 4.09665 1250.3 4.11097C1251.28 4.08904 1252.23 3.63754 1253.88 3.55195C1254.77 3.49707 1255.1 4.11567 1256.25 4.11464C1255.71 4.10911 1257.16 3.57304 1257.46 3.56975C1259.73 3.33038 1261.79 3.89629 1264.57 4.14913C1264.73 2.91429 1269.58 3.92535 1271.71 3.56293C1272.65 3.25868 1273.61 2.99949 1275.29 3.00398C1278.03 2.82727 1279.83 3.10202 1281.23 3.53935C1281.41 2.88129 1283.4 3.07474 1284.81 2.98032L1268.81 2.9761C1235.05 2.23797 1264.77 2.45028 1267.48 1.844C1267.3 2.50206 1267.74 2.81413 1268.64 2.95151C1274.13 3.32207 1276.27 2.08846 1280.52 1.85032C1229.99 2.57159 1174.82 0.423267 1184.94 2.18057C1186.53 1.62037 1188.52 1.28215 1189.71 0.5C1193.31 1.24179 1199.18 1.25748 1202.75 0.506238C1208.03 1.82929 1212.37 0.176147 1218.16 1.07517C1220.32 1.14231 1220.69 0.402968 1222.87 0.515161C1225.38 1.39311 1230.74 0.916642 1233.56 1.6441C1235.27 1.35416 1239.71 2.29041 1239.51 1.11597C1249.42 1.65378 1261.12 2.27414 1271.53 1.66394C1272.65 1.61785 1273.37 1.15755 1275.1 1.10492C1282.11 0.927345 1288.62 1.17384 1295 1.29726L1295.51 2.51351C1295.02 2.59808 1294.61 2.71557 1294 2.72213C1284.64 3.10609 1274.4 3.05824 1264.36 2.73685C1263.43 2.70164 1263.15 2.21823 1261.99 2.17423C1261.99 2.17423 1260.58 2.80036 1259.63 2.72011C1259.39 2.71133 1258.34 1.82909 1257.26 2.1575C1257.09 3.39234 1252.24 2.38128 1250.18 2.73162C1248.26 2.86554 1248.13 2.21074 1246.67 2.17C1244.03 3.14872 1237.71 2.43645 1234.8 3.31628C1230.67 2.3767 1228.46 3.81465 1224.13 2.76411C1222.73 3.24302 1216.1 3.78977 1211.11 3.33465C1208.41 3.06973 1209.32 3.05984 1205.16 3.33096C1200.4 3.60864 1194.81 3.35232 1190.9 2.76102C1183.55 3.76804 1250.93 4.93655 1281.62 4.10655C1275.26 5.28389 1278.01 4.40006 1272.31 3.53399C1270.61 5.27193 1237.4 4.73528 1270.13 4.10447C1254.48 5.31422 1272.15 4.599 1256.51 5.80874C1253.64 6.05467 1253.94 4.79565 1250.56 5.27336C1247.08 5.8653 1243.7 6.53521 1238.68 6.37452C1236.31 6.34363 1237.2 4.84077 1233.94 5.24928C1231.01 5.1678 1229.04 5.55114 1228 6.35417C1220.82 6.12632 1215.73 6.89392 1211.4 8.01536C1210.17 6.7277 1205.96 6.86363 1201.93 6.87328C1201.18 7.43572 1199.19 7.43456 1199.58 8.52772C1194.85 8.70325 1190.83 8.56567 1188.89 7.39881C1187.1 8.76433 1180.87 8.08499 1178.24 9.06369C1178.04 8.42099 1176.06 8.61201 1174.65 8.51413C1172.95 8.46458 1171.26 8.41511 1171.08 9.07315C1171.12 10.6113 1176.66 10.3929 1178.18 9.65256C1180.55 10.9392 1186.44 10.6155 1190.03 11.3573L1201.85 11.3766C1202.95 11.8172 1204.54 11.981 1206.58 11.9251C1209.42 12.1659 1209.12 10.9134 1212.53 11.397C1212.33 12.0101 1212.81 12.4122 1213.68 12.5045C1220.33 13.2586 1228.58 13.3052 1235.05 14.1856C1236.09 13.767 1237.69 13.5914 1239.76 13.6256C1242.2 13.7916 1242.07 15.1165 1244.5 15.2825C1247.59 13.7447 1248.08 15.9793 1251.59 15.8169C1259.84 15.6713 1266.35 16.3022 1272.94 16.9212C1272.43 15.3655 1277.37 16.4095 1277.65 15.2527C1276.5 15.2537 1276.75 14.5836 1276.49 14.1452C1281.15 13.2578 1276.89 16.5391 1280.03 16.392C1282.66 15.2211 1285.76 16.9637 1290.71 16.4125C1291.06 15.2436 1295.14 15.9009 1295.42 14.7441C1297.53 15.0605 1298.77 14.0918 1298.91 15.3234C1296.92 15.1299 1300.26 15.755 1300.18 16.446C1301.78 17.1866 1271.14 17.499 1271.13 15.8587C1269.09 16.0618 1268.89 15.4191 1268.77 14.7644C1275.35 14.6593 1270.76 14.6597 1274.47 15.8639C1275.29 15.4366 1281.12 14.6383 1281.56 15.8666C1278.63 15.7851 1276.66 16.1685 1275.63 16.9715C1279.06 18.4164 1270.96 16.7335 1275.48 16.9788C1275.28 16.3361 1275.76 16.0142 1276.68 15.8571C1276.14 17.639 1279.63 17.4317 1281.44 18.0909C1246.38 17.4408 1177.46 18.0312 1181.27 16.2252C1179.68 16.0614 1180.3 14.8442 1180.1 14.0092C1184.68 13.6656 1185.02 13.5602 1188.42 14.5756C1188.59 13.3407 1193.43 14.3517 1195.5 14.0013C1196.54 13.5829 1198.21 13.3951 1200.21 13.4413C1202.46 14.0732 1205.86 14.1723 1208.53 14.5394C1209.54 13.6913 1211.51 13.308 1214.46 13.4345C1215.69 13.806 1215.69 14.7222 1217.99 14.5729C1220.35 14.751 1221.69 14.4765 1221.55 13.4371C1224.67 13.9691 1231.69 14.5155 1234.59 13.4434C1235.11 14.1279 1236.06 14.5927 1238.12 14.5817C1240.35 14.1051 1242.45 13.6526 1245.27 13.4639C1253.43 14.9255 1258.74 12.3341 1266.61 13.4596C1266.48 14.2528 1266.43 15.0339 1267.77 15.1438C1268.99 14.599 1270.12 14.0212 1271.34 13.4764C1277.2 13.6393 1282.19 13.3704 1286.73 12.9367C1290.63 13.6752 1295.26 13.8063 1300 13.6759L1300.5 57.5569L1.82796 61.7506L0.671865 18.1232L0.599719 18.1353ZM263.241 8.61798C263.226 8.04118 261.766 8.19271 260.87 8.05532C260.865 8.58706 262.274 8.49269 263.241 8.61798ZM1282 18.8591C1282.6 16.8729 1273.86 16.3791 1274.91 18.8566L1282 18.8591ZM1248.84 18.844C1248.35 18.0573 1247.8 18.9231 1246.48 18.8582C1246.78 19.5789 1248.85 19.4207 1248.84 18.844ZM1241.74 17.7329C1242.7 17.8581 1242.87 17.5396 1242.95 17.188L1248.9 17.1916C1250.6 17.2412 1252.29 17.2908 1252.47 16.6327L1243.03 16.6442C1240.29 16.4814 1238.14 15.5431 1235.94 16.6415C1235.3 18.1983 1242.3 16.1882 1241.74 17.7329ZM1220.43 20.5309C1223.37 20.6124 1226.19 20.6158 1226.37 19.426C1228.65 20.4874 1229.37 19.4954 1232.32 19.4297C1231.04 17.8597 1227.6 18.7339 1229.99 16.6379C1226.22 16.362 1225.77 17.6451 1221.69 17.1802C1224.54 18.5295 1218.5 18.1083 1220.43 20.5309ZM1209.78 16.0643C1208.53 17.967 1213.43 16.9413 1215.67 17.1886C1215.46 15.9691 1212.66 16.0106 1209.78 16.0643ZM1210.96 18.8572C1211.02 19.7163 1219.71 20.0749 1218.04 18.2829C1214.44 17.8806 1214.56 19.2594 1210.96 18.8572C1212.04 16.549 1207.41 18.7372 1210.96 18.8572ZM1207.37 18.8394C1207.55 17.4572 1207.53 16.1564 1206.18 15.4697C1205.24 15.774 1204.3 16.0782 1202.6 16.0288C1204.6 17.1385 1202.44 16.7319 1202.63 18.2458C1203.67 18.7435 1205.34 18.8953 1207.37 18.8394ZM1187.25 18.2987L1200.29 18.3049C1197.74 17.1447 1201.35 16.4836 1199.11 15.5122C1197.03 15.8175 1192.13 14.8635 1192.03 16.0863C1190.5 15.3337 1186.46 15.3433 1184.94 16.0837C1185.45 16.9154 1186.61 17.4911 1187.25 18.2987ZM1274.52 17.4021C1274.52 16.8704 1273.11 16.9648 1272.14 16.8395C1272.21 17.3591 1273.62 17.2647 1274.52 17.4021ZM1266.27 16.8237C1266.07 16.181 1276.14 16.372 1274.72 16.2742C1274.92 16.9169 1264.85 16.7258 1266.27 16.8237ZM1135.43 12.3767C1135.36 11.8571 1133.96 11.9516 1133.06 11.8141C1133.15 12.3789 1134.55 12.2844 1135.43 12.3767ZM990.883 12.9878C1001.69 12.4073 1016.06 13.7792 1027.6 12.3989C1029.7 12.3309 1030.1 13.0846 1032.33 12.9474C1033.45 10.9216 1027.66 12.1946 1025.23 11.8363C1022.28 11.9021 1019.55 11.9315 1018.12 11.2569C1009.84 12.2286 998.387 11.0854 988.492 12.3801C988.508 12.9568 989.914 12.8625 990.883 12.9878ZM980.188 12.3906C976.805 10.6963 971.991 13.0108 967.154 12.3843C969.147 13.494 978.065 13.1375 980.188 12.3906ZM939.93 20.8234C942.793 19.6613 934.956 18.4336 936.414 20.2618C936.49 20.442 938.887 21.242 939.93 20.8234ZM900.807 14.0964L919.789 14.1063C921.999 14.6481 923.727 12.4235 924.522 14.1231C928.388 15.88 920.351 15.0731 924.522 14.1231C927.228 13.1323 933.479 13.8567 936.404 13.0219C935.654 15.7563 932.407 13.8456 928.108 14.6726C928.308 15.5076 930.996 15.1957 932.836 15.2211L939.924 15.2238C942.173 15.1316 942.549 15.8402 944.654 15.7722C957.172 15.094 961.899 15.6425 977.885 15.7753C977.097 12.2882 969.248 15.3595 963.695 14.6616C959.953 14.2835 962.157 13.1849 962.516 11.8687C959.799 12.475 957.315 13.0901 955.376 14.0953C953.194 13.2591 952.404 11.7518 949.464 11.2857C946.258 10.9131 947.137 12.4534 945.901 12.9532C943.661 11.9819 938.105 12.5397 934.083 12.4021C932.301 12.5118 929.741 12.2228 929.367 12.9622C921.195 11.116 908.119 13.7233 900.924 12.3869C900.744 13.045 899.046 12.9955 897.349 12.9459L891.402 12.9423C889.184 13.4639 887.431 11.2995 886.67 12.9255C887.409 15.938 894.377 13.3061 900.807 14.0964ZM874.74 13.5521C874.726 12.9754 874.729 12.4436 874.714 11.8668L872.357 11.8809C871.708 12.3292 871.131 12.7653 871.151 13.5343L874.74 13.5521ZM752.675 10.1985C753.311 9.89741 751.834 9.47216 751.518 9.62264C750.883 9.9236 752.358 10.3489 752.675 10.1985ZM752.667 14.6896C753.303 14.3887 751.827 13.9634 751.51 14.1139C750.875 14.4149 752.351 14.8401 752.667 14.6896ZM745.586 10.1958C746.8 10.1827 747.942 10.1817 749.175 10.2136C748.98 9.57087 747.003 9.7619 745.589 9.66402L742.019 9.69135C742.196 10.289 744.191 10.1429 745.586 10.1958ZM676.828 9.08316L676.816 7.97466L674.459 7.98884L674.471 9.09736L676.828 9.08316ZM600.995 8.54476C600.359 8.84572 601.837 9.27098 602.224 9.10836C602.789 8.81946 601.312 8.39427 600.995 8.54476ZM599.811 15.8429C602.722 15.1553 606.79 15.0434 610.461 14.7097C614.091 14.2858 612.785 16.2457 616.417 15.8218C620.176 15.5211 621.589 14.1709 625.927 14.158C630.133 13.8297 628.818 16.1291 633.042 15.8459L633.031 14.7373C635.284 15.5615 640.888 14.7544 642.506 15.8794C643.535 15.6082 644.653 15.3698 644.852 14.7568C645.811 15.2216 648.11 15.0722 648.381 15.8951C650.273 15.1394 654.512 15.433 655.516 14.2005C659.396 15.0862 660.03 14.0611 665.034 14.1768C661.082 12.5792 656.82 14.2202 653.199 13.0489C647.306 12.9881 647.34 13.61 642.54 13.0736C638.76 12.6053 640.096 14.5027 637.834 14.7421C636.753 14.3465 636.04 13.7433 635.451 13.0709C633.592 13.0005 630.904 13.3124 630.722 12.5224C628.826 12.3619 628.666 13.065 627.148 13.0814C626.18 12.9562 625.99 12.5057 624.776 12.5188C621.589 12.1911 615.404 13.2422 614.102 11.9666C613.06 12.3851 611.457 12.5608 609.384 12.5266C605.307 12.9779 604.375 11.4948 602.295 12.524C599.592 12.2591 596.266 11.424 593.993 12.5346C593.459 14.701 599.334 13.9927 599.811 15.8429ZM593.865 15.8392C594.5 15.5382 593.025 15.1129 592.707 15.2634C592.072 15.5644 593.547 15.9897 593.865 15.8392ZM431.516 15.2735C432.333 13.0588 428.369 13.0564 424.405 13.054C425.375 14.6273 422.728 14.4974 423.228 15.8608C425.326 16.8563 429.896 16.1282 431.516 15.2735ZM414.906 15.8263L414.895 14.7178C415.101 13.0413 419.837 15.23 414.895 14.7178C413.468 14.7671 412.079 14.9065 412.55 15.8404L414.906 15.8263ZM403.088 15.2751C404.692 15.8235 405.467 16.7541 406.63 17.5221C409.072 17.3487 409.815 16.4017 411.407 15.8415C408.389 14.4713 405.176 13.1824 398.349 13.6182C397.366 15.6199 400.815 16.3858 403.088 15.2751ZM391.201 14.7361C396.711 15.1518 396.747 13.7939 391.185 14.1594C388.159 13.8527 386.589 13.2022 386.464 15.2512C388.935 15.5072 389.598 14.9118 391.201 14.7361ZM382.92 16.9637C382.923 16.432 381.445 16.5385 380.547 16.4011C380.563 16.9779 382.023 16.8263 382.92 16.9637ZM380.552 15.8693C381.495 15.7573 381.75 15.2794 382.912 15.3235C382.722 14.873 381.754 14.7477 381.759 14.216C380.815 14.328 380.54 14.7608 379.398 14.7618C379.569 15.1672 380.537 15.2925 380.552 15.8693ZM360.368 16.981C360.372 16.4493 358.892 16.5558 357.996 16.4184C358.063 16.9381 359.471 16.8436 360.368 16.981ZM358.056 15.2977C358.65 16.1624 359.289 15.3297 359.273 14.7529C357.073 14.5957 356.752 15.2779 358.056 15.2977ZM353.278 16.9784C352.318 15.7897 346.988 15.4399 344.961 16.4121C345.493 17.6734 350.841 16.6201 353.278 16.9784ZM239.516 13.6143C239.52 13.0825 238.111 13.1769 237.144 13.0516C237.158 13.6283 238.567 13.534 239.516 13.6143ZM235.93 13.0646C231.993 14.7475 232.395 11.01 235.93 13.0646ZM226.499 13.653C226.195 12.9323 224.128 13.0903 224.143 13.6671C224.628 14.4537 225.176 13.5881 226.499 13.653ZM208.721 12.5214C209.355 12.2205 207.88 11.7952 207.582 11.9907C206.928 12.2467 208.403 12.6719 208.721 12.5214ZM78.3531 15.3097C80.2436 15.4701 80.4242 14.812 81.9295 14.7506C82.3991 13.7047 76.4746 13.9384 78.3531 15.3097ZM74.8249 11.9993C74.8128 11.6147 74.8008 11.2302 74.8128 10.8908L72.4527 10.9049C72.4648 11.2895 72.4527 11.6289 72.4648 12.0134L74.8249 11.9993ZM104.351 15.8882C106.121 15.3939 106.891 14.492 106.747 13.0681L96.0664 13.0478C96.9334 14.9275 101.918 14.8058 104.351 15.8882ZM92.4418 13.6638C91.4062 13.7429 91.2737 13.4276 91.2135 13.1002C89.8046 13.1946 90.202 14.1405 90.0214 14.7986C92.1769 15.013 92.3455 14.3549 92.4418 13.6638ZM84.5424 15.9097C83.8921 14.7177 82.6759 14.7307 81.0382 15.3481C80.2194 17.2234 83.4706 16.2381 84.5424 15.9097ZM37.1462 10.8784C37.1462 11.2179 37.1462 11.6024 37.1583 11.9869C39.5185 12.165 40.831 11.8455 40.7227 10.8512L37.1462 10.8784ZM51.3556 12.0373C56.4131 11.9035 60.7481 12.0829 62.0486 13.698C64.5773 12.8335 67.2987 12.08 70.3212 11.4704C70.1887 10.2388 65.2637 11.2196 63.2407 10.9361L56.1481 10.9335C50.5727 10.7222 46.2498 11.1196 41.9027 11.472C41.3488 13.254 47.3335 11.8997 47.8031 13.1731C45.9366 14.3584 39.5064 13.3758 37.1462 14.3061C39.2054 15.5511 46.2257 14.5023 50.1754 14.8442C49.8382 13.5017 50.3922 12.636 51.3556 12.0373ZM38.3865 17.0418C38.531 17.21 40.9394 18.0548 41.963 17.5913C42.7818 17.164 37.0619 15.9135 38.3865 17.0418ZM34.7741 14.807C33.6783 13.8346 30.6557 13.3807 28.8254 14.2716C29.9091 15.199 33.004 15.6858 34.7741 14.807ZM27.6815 14.8044C27.4647 13.2004 22.07 13.4396 22.9611 15.3644C25.0564 15.4437 25.4297 14.7043 27.6815 14.8044ZM20.5286 15.9224C21.0343 14.7743 19.7459 14.415 19.3726 13.7064C17.6627 14.1886 15.6037 14.5389 15.8205 15.9507C17.41 15.9222 19.0113 15.9388 20.5286 15.9224Z" fill="#FCDE3B"/>
</g>
</g>
<defs>
<clipPath id="clip0_66_1556">
<rect width="1301" height="51" fill="white"/>
</clipPath>
</defs>
</svg>
