<svg width="50" height="1080" viewBox="0 0 50 1080" fill="none" xmlns="http://www.w3.org/2000/svg">
<g clip-path="url(#clip0_66_1530)">
<mask id="mask0_66_1530" style="mask-type:luminance" maskUnits="userSpaceOnUse" x="0" y="0" width="50" height="1080">
<path d="M0 1080H50L50 0H0L0 1080Z" fill="white"/>
</mask>
<g mask="url(#mask0_66_1530)">
<mask id="mask1_66_1530" style="mask-type:luminance" maskUnits="userSpaceOnUse" x="0" y="0" width="50" height="1080">
<path d="M50.0001 4.37114e-06L9.44166e-05 0L0 1080H50L50.0001 4.37114e-06Z" fill="white"/>
</mask>
<g mask="url(#mask1_66_1530)">
<path d="M17.6361 1079.92C17.6691 1079.85 17.657 1079.79 17.6329 1079.67C17.5219 1079.83 17.3539 1079.96 17.1857 1080.08L14.6181 1080.98C14.3919 1080.11 14.3304 1078.87 13.7174 1078.7C13.4162 1080.77 12.8395 1080.78 12.0331 1079.67C11.4215 1075.27 13.7747 1076.15 14.8427 1074.76C15.8347 1075.36 14.7786 1079.4 15.9475 1079.69C17.6328 1079.67 16.6906 1075.06 17.6355 1073.78C17.4268 1072.52 16.6424 1072.22 16.4997 1070.82C17.7313 1070.7 16.7505 970.575 17.0791 968.885C16.0071 966.474 16.938 1080.68 15.9768 1078.11C16.0749 1074.34 15.963 1070.95 14.8436 1069.26C13.4198 1069.38 13.7328 1072.56 13.7327 1075.16C13.7468 1077.12 15.242 1076.41 14.8243 1079.08C12.7842 1078.79 14.067 1084.35 13.1496 1086C14.8338 1085.03 14.1283 968.144 14.2413 969.875C13.503 970.515 13.1711 971.966 13.1161 973.817C14.0861 973.607 14.406 972.096 14.2413 969.875C15.9341 971.306 14.7606 1071.05 14.2528 1073.77L12.0358 1073.78C11.2108 1072.1 13.1813 967.524 10.9205 1085.96C10.8548 1083.52 11.7974 1082.93 12.0326 1081.01C11.6931 1081.01 11.3086 1081.01 10.9241 1081.02C11.0221 1077.25 10.8983 1073.82 9.83603 1072.15C10.2504 1069.22 10.4692 1066.05 11.5098 1064.29C10.8363 1063.83 10.3849 1063.04 10.374 1061.33C9.97683 1055.14 9.99923 1048.17 9.24816 1042.6C9.00223 1040.22 10.2613 1040.47 9.78356 1037.67C8.38863 1033.92 10.2108 1024.42 8.10817 1021.93C8.45117 1019.58 8.92043 1017.39 8.66143 1014C10.7971 1013.82 9.49377 1019.72 12.559 1017.95C12.3 1014.56 12.7813 1012.43 13.1243 1010.09C11.1005 1011.06 12.6477 1005.64 10.8669 1006.14L10.8706 1001.2C12.0505 1000.6 14.5519 1002.44 14.7718 1000.21L14.7896 997.225L11.452 997.196L11.4714 1007.38C10.2299 1006.74 9.67497 1010.16 9.77297 1006.39C9.82923 1002.89 11.5987 1008.48 11.4573 1005.42C11.6224 999.857 10.4383 996.665 10.8913 990.613C11.8329 989.082 13.4071 991.823 14.2599 988.672C14.3589 985.851 14.3141 983.27 12.5783 983.75C12.3345 980.669 14.0715 981.139 14.2343 978.868C11.9558 977.638 13.6129 971.106 13.6637 968.054C13.7429 966.314 13.0036 1086.05 13.1037 1084.18C12.6799 1081.16 13.6796 1080.62 13.6832 1078.28C13.1514 1078.28 13.2372 1077.04 13.1373 1076.32C13.0113 1070.97 13.5149 1064.47 12.5703 1060.56C14.4941 1058.87 12.2633 1054.34 13.6983 1050.73C13.1502 1049.47 12.1274 1048.24 12.0297 1046.81C12.0451 1047.12 12.5868 1045.29 12.5924 1044.84C12.665 1042.6 13.2672 1041.06 13.1587 1037.94C12.5819 1037.95 12.0501 1037.95 11.4734 1037.96C12.0592 1035.16 12.0307 1033.84 11.4629 1031.06C13.4612 1031.63 13.1331 1028.13 13.1509 1025.15C11.0128 1026.03 11.1625 1022.75 9.79803 1022.22C8.8181 1021.66 7.47223 1021.69 6.97796 1020.22C8.93583 1019.41 8.2419 1013.89 11.4728 1015.29C11.2269 1012.91 12.4859 1013.16 12.0082 1010.35C12.1709 1008.08 10.4329 1009.26 10.3407 1007.4C9.7783 1006.77 9.7795 1005.12 8.62917 1005.4C7.16583 1005.09 9.17603 1010.91 6.97223 1009.34C6.54836 1006.32 7.93037 1006.47 7.55157 1003.44C8.31203 1001.02 9.2599 1005.18 9.76763 1002.47C9.9601 999.868 6.6233 1003.38 7.52336 999.519C7.01823 996.341 9.37243 998.174 9.18037 995.582C9.24743 993.785 8.5081 993.475 8.62036 991.663C10.2067 991.865 8.15717 985.621 9.73143 985.764C10.084 986.78 11.0002 986.775 10.8671 988.721C10.2245 988.883 10.4155 990.526 10.3177 991.7C10.9416 993.571 11.0226 996.328 11.4367 998.589C10.6565 999.495 8.95983 1005.6 11.9658 1004.48C11.6957 1001.98 11.2201 1001.07 12.5583 999.588C13.1799 1002.16 13.254 995.671 13.6704 994.639C13.2069 993.788 12.1467 994.034 11.971 992.703C13.4794 992.996 13.4379 990.668 13.6731 988.749C13.047 987.576 13.0625 985.291 13.0989 982.873C11.495 983.056 11.9808 979.53 9.74717 980.883C9.3387 978.177 10.8415 978.916 10.8724 976.943C11.3448 977.6 12.4423 978.481 12.5577 976.921C13.9324 973.019 12.8047 966.324 12.0051 963.121C11.937 961.373 12.6907 961.045 12.5535 959.194C11.9421 952.19 12.4983 947.119 11.9903 938.497C12.2112 937.216 12.9769 936.947 13.1166 935.506C12.1872 934.502 12.5083 931.35 11.9987 929.566C12.7513 928.289 12.3571 924.944 13.1097 923.667C9.7941 924.451 12.9101 919.622 11.9777 915.77C9.90677 917.448 10.8779 915.587 9.74651 913.831C9.45964 915.262 8.88391 916.223 8.07638 916.76C7.94271 912.565 9.91364 912.76 8.64164 908.9C9.79191 908.623 9.75038 906.295 10.3437 904.947C10.1043 903.068 8.72557 903.172 9.19377 900.032C10.03 898.219 11.4559 897.402 11.4133 894.124C11.2245 891.785 10.7271 890.059 10.3075 888.244C11.9643 886.903 11.4594 881.128 10.8586 878.427C12.4057 875.603 11.8029 871.004 10.2891 868.559C10.2857 870.903 9.33098 871.428 9.70984 874.461C8.20144 874.167 10.2565 879.967 8.05278 878.398C8.45285 876.105 9.57278 870.013 6.92071 870.502C7.21924 874.322 5.91944 875.285 6.36851 879.37C5.61484 879.698 5.90251 881.813 5.81997 883.297C5.29811 884.051 4.54444 884.379 3.55897 884.282C3.35624 877.388 5.01651 873.703 6.33077 869.505C5.80457 869.057 5.33551 868.652 5.20818 867.556C6.00031 866.709 6.98804 866.109 6.86518 863.62C6.84011 859.955 7.42918 857.406 7.99404 854.738C6.42858 854.401 7.03851 851.718 8.01078 850.807C8.92584 852.449 8.47078 856.597 8.56725 859.666C8.91858 862.328 7.84257 867.455 9.12357 868.525C9.33704 863.195 10.8119 857.421 9.66524 852.759C9.83231 851.687 10.7881 852.111 10.7596 850.792C9.52478 850.655 9.57325 848.296 9.65471 845.861C11.2917 845.603 11.5793 847.718 12.4307 848.812C12.8391 851.518 11.3364 850.779 11.3055 852.753C11.8349 853.453 12.1545 854.544 12.4412 855.71C10.5295 857.457 12.4618 860.768 11.8901 865.528C12.1944 866.307 12.4986 867.087 12.449 868.497L12.4595 875.395C12.7495 876.813 11.8132 880.497 13.0327 880.322C14.1975 876.811 13.3125 869.65 13.5744 864.556C13.8217 862.696 14.7523 862.053 14.6865 859.607C13.4629 855.984 14.2962 848.727 14.6645 844.862C13.9782 840.797 13.5917 836.31 13.0163 832.081C13.2889 831.288 13.6065 830.48 13.5659 829.101C12.628 825.695 13.5431 824.741 13.0096 820.243C14.3215 816.743 13.0114 810.808 12.47 807.452C13.6335 805.587 13.5798 803.2 13.0362 800.541C13.8294 800.643 14.6105 800.685 14.7205 799.57C14.8679 796.986 14.5297 795.332 13.052 795.66C12.5129 791.608 13.0645 787.931 13.0582 784.831C13.0549 784.579 13.1705 783.02 13.0441 782.874C11.8797 781.193 13.3166 782.081 13.0608 778.942C13.0487 778.883 12.5379 778.746 12.516 777.931C12.4941 777.115 13.4599 775.7 13.0645 774.002C12.568 773.227 12.7131 771.339 11.9287 771.045C13.2285 753.556 11.1943 733.692 11.3691 714.952C10.9506 714.087 10.7629 712.696 10.8092 711.034C11.9046 710.016 11.6214 706.506 12.4971 705.122C11.6102 709.992 14.4382 708.24 14.1928 711.998C13.9204 712.79 13.6028 713.599 13.6312 714.918C14.9472 717.812 12.5477 718.591 13.6276 719.858C14.0484 720.027 14.1726 720.869 14.7493 720.857C16.2601 717.857 15.1077 716.236 15.3004 711.04C18.0704 705.699 14.3457 695.039 17.5431 690.371C16.116 690.239 16.6468 686.696 15.8614 685.453C17.0283 683.84 17.2592 680.72 18.08 678.595C17.3254 677.974 17.9858 674.83 16.9882 674.673C16.5644 671.656 18.5243 672.741 18.1005 669.724C16.9086 667.673 18.3918 666.899 18.1031 663.834C17.1418 663.855 16.6573 663.139 16.4486 661.883C17.1331 661.452 17.5979 660.656 17.587 658.951C16.0281 659.118 16.1931 656.147 15.3297 654.994C17.0665 655.46 17.6325 653.742 18.1083 652.056C17.6118 651.279 16.8273 650.985 15.8782 651.065C15.484 647.721 17.9612 649.448 18.112 647.116C17.9845 646.02 17.0058 646.428 16.9773 645.108C16.8653 644.324 16.4444 644.155 16.4313 643.146C17.5222 643.523 17.2556 638.679 15.8724 640.177C16.2814 635.094 16.1694 634.311 16.4544 628.386C17.1124 628.535 17.4695 628.155 17.5619 627.427C17.1763 626.486 16.5358 625.951 15.8624 625.492C16.0702 623.202 16.5219 621.397 16.9736 619.592C16.2189 618.971 15.9618 617.478 15.8368 615.686C15.6911 608.835 15.1914 607.808 15.8158 601.89C14.9008 600.249 15.3559 596.1 15.2594 593.031C13.9455 592.037 14.3017 588.112 12.4692 588.122C12.1228 592.803 11.9962 597.85 10.7918 600.931C10.5935 609.169 10.657 612.312 9.6886 619.617C9.55926 630.553 10.2516 642.91 8.5482 651.106L8.54086 660.986C8.26833 661.779 7.95073 662.587 7.99126 663.965C8.50953 668.152 7.61519 668.972 9.12346 671.862C8.48066 672.025 8.67179 673.667 8.56179 674.783C7.20379 677.349 6.94419 681.745 6.33853 685.63C7.95979 690.253 5.82359 695.625 6.32859 701.4C5.17826 701.677 6.20419 705.749 4.62659 705.353C5.62326 701.964 4.57633 700.622 4.64693 696.481C5.95173 686.336 5.42653 672.907 6.33693 662.014C5.17479 659.636 5.52959 659.954 5.76273 656.136C5.29473 656.681 4.8596 657.15 4.07846 657.108C3.77873 654.934 5.1344 655.661 5.2048 654.117C4.1886 653.397 5.12473 652.308 5.17753 651.15C4.87326 650.37 4.60199 649.516 4.61859 648.18C5.45579 647.317 6.39846 646.733 6.2756 644.243C6.43833 641.97 6.18133 640.477 5.7024 639.316C6.677 637.707 7.31773 635.645 7.92213 633.408C7.908 631.45 6.41266 632.165 6.78526 629.501L6.78106 611.774C7.002 610.494 7.76773 610.225 7.9074 608.782C7.69873 607.525 6.91433 607.231 6.7716 605.826C8.03286 605.383 6.99167 600.999 7.33793 598.915C6.73513 594.314 7.49426 593.541 6.7674 588.098C8.0454 583.723 6.9012 575.767 6.1864 570.383C7.24127 567.987 6.54734 562.469 6.75634 558.533C7.7 558.898 7.81 557.783 7.8958 556.55C8.286 553.501 6.3556 554.685 6.79087 551.619C7.47554 548.593 7.67247 544.598 7.90574 540.781C5.94701 538.049 6.87494 529.365 7.33888 525.024C6.55341 523.78 7.01841 520.388 6.22094 519.084C9.06674 514.349 6.97201 508.12 7.31001 498.44C7.18261 497.346 6.20374 497.753 6.17527 496.433C7.76394 495.938 8.14861 493.334 8.39488 490.525C7.44055 485.858 8.65468 483.532 8.38708 477.738C7.98841 475.788 5.08014 478.328 5.61108 474.787C5.33774 472.033 7.71361 477.278 7.82701 473.819C8.13601 470.607 7.42854 469.273 7.23974 466.933C9.23974 460.66 6.58508 450.511 7.78408 445.278C6.99962 444.983 7.32175 442.781 7.22402 441.359C8.01728 441.46 8.79841 441.503 8.90835 440.388C7.29121 439.562 9.22928 437.236 8.91195 435.448C8.30261 430.343 8.63562 427.251 9.46775 421.639C9.04922 420.773 8.87355 419.442 8.90775 417.72C9.80121 413.354 8.16782 408.672 9.46348 403.912C8.42095 403.772 9.11442 400.552 8.32668 400.006C9.56155 400.142 8.57522 396.5 8.87415 395.128C9.19175 394.32 9.46429 393.528 9.42369 392.149C9.11842 390.42 10.1173 386.334 8.83748 386.213C8.42902 383.508 9.93175 384.246 9.96269 382.272C8.33349 381.388 9.32128 380.788 9.40275 378.354L6.59682 378.326L6.60049 373.386C7.52889 373.44 8.03869 372.627 8.27169 371.406C8.67296 367.465 7.74576 365.765 7.71522 362.547C6.91222 361.689 5.53349 361.793 6.03469 358.578C6.37109 355.737 6.88049 360.118 7.68802 359.58C8.30002 358.796 8.03102 357.244 8.23656 355.652C8.64769 352.469 8.66649 350.436 7.68015 346.793C8.44822 345.827 8.78889 344.187 9.33722 342.856C7.37716 344.367 8.98803 339.496 7.66969 339.895C8.07549 334.561 7.41016 327.766 7.66442 321.219C7.71722 320.06 8.74589 315.646 8.21656 312.35C6.57323 309.508 8.87096 303.51 7.6461 301.534C9.42716 298.439 9.39023 292.12 9.29623 285.758C8.65469 284.273 7.69243 283.345 7.61456 280.84C7.05356 275.972 9.72916 269.46 7.0619 267.041C7.40483 264.705 7.8741 262.514 7.6271 259.181C6.45203 253.198 6.3513 248.928 5.95176 243.433C6.71223 241.013 7.61496 245.192 8.16776 242.466C8.15363 240.507 6.65837 241.222 7.07603 238.543C6.35637 239.746 6.18717 238.919 5.3907 238.565C4.92957 234.422 6.4611 233.884 6.4877 230.708C5.91457 225.782 6.30603 221.085 5.93397 215.96C5.75403 213.428 6.4429 211.602 6.50023 209.05C6.6789 199.299 5.25037 189.48 6.5023 180.493C5.2521 180.046 6.28083 175.632 5.96017 173.592C6.13604 172.327 6.94677 172.043 7.04137 170.616C5.80324 170.228 6.6001 165.389 7.04397 164.727C6.25957 164.433 6.59377 162.289 6.48397 160.808C7.58391 158.395 7.02177 152.578 6.49024 149.978C7.01231 146.63 7.23344 142.752 7.60504 139.14C7.67218 137.343 6.93284 137.033 7.04504 135.22C6.97704 133.472 7.73071 133.144 7.59351 131.293C7.28924 130.513 6.97297 129.674 7.03457 128.323C7.49111 119.931 6.82371 111.238 5.91024 102.758C6.13931 95.143 5.61578 88.805 4.78344 83.082C4.53751 80.699 5.79645 80.953 5.31878 78.15C4.78518 73.65 4.13198 66.91 4.75298 63.34C3.63258 60.69 4.39218 54.7301 4.16831 50.5601C3.72891 49.8301 3.78505 48.92 3.60931 47.59C3.34578 45.6 3.65231 45.68 3.05031 44.62C3.11951 44.73 3.59765 42.3399 3.61198 41.6999C3.59005 40.8899 3.13852 40.1 3.05292 38.73C2.99805 37.99 3.61665 37.71 3.61558 36.76C3.61011 37.21 3.07405 36 3.07072 35.75C2.83138 33.87 3.39725 32.16 3.65012 29.85C2.41525 29.71 3.42632 25.69 3.06392 23.91C2.75965 23.13 2.50045 22.3399 2.50498 20.9399C2.32825 18.6599 2.60298 17.17 3.04032 16.01C2.38225 15.86 2.57572 14.21 2.48132 13.04L2.47712 26.3199C1.73892 54.3799 1.95125 29.69 1.34498 27.43C2.00305 27.58 2.31512 27.22 2.45252 26.47C2.82305 21.91 1.58945 20.13 1.35132 16.6C2.07258 58.58 -0.0757593 104.411 1.68151 96.006C1.12131 94.683 0.78311 93.029 0.000976562 92.037C0.742777 89.054 0.758444 84.173 0.00717767 81.208C1.33025 76.82 -0.322888 73.22 0.576179 68.41C0.643312 66.61 -0.0960896 66.3 0.0161106 64.49C0.894111 62.41 0.417648 57.95 1.14505 55.61C0.855115 54.19 1.79138 50.51 0.616982 50.66C1.15479 42.43 1.77512 32.7199 1.16492 24.0699C1.11885 23.1399 0.658517 22.54 0.605917 21.1C0.428318 15.27 0.67485 9.86994 0.798251 4.56994L2.01452 4.14001C2.09905 4.56001 2.21658 4.89002 2.22312 5.40002C2.60705 13.18 2.55925 21.68 2.23785 30.02C2.20265 30.8 1.71918 31.03 1.67518 31.99C1.67518 31.99 2.30132 33.17 2.22112 33.96C2.21232 34.15 1.33005 35.03 1.65845 35.93C2.89332 36.06 1.88225 40.09 2.23258 41.8C2.36651 43.4 1.71171 43.51 1.67098 44.72C2.64971 46.91 1.93745 52.16 2.81725 54.58C1.87765 58.01 3.31565 59.85 2.26512 63.45C2.74398 64.61 3.29078 70.11 2.83565 74.26C2.57071 76.51 2.56085 75.75 2.83191 79.2C3.10964 83.158 2.85331 87.807 2.26198 91.054C3.26898 97.158 4.43751 41.18 3.60752 15.68C4.78485 20.97 3.90105 18.68 3.03499 23.42C4.77292 24.83 4.23625 52.42 3.60545 25.23C4.81518 38.23 4.09998 23.55 5.30971 36.55C5.55565 38.93 4.29665 38.68 4.77432 41.49C5.36632 44.38 6.03618 47.18 5.87551 51.36C5.84458 53.33 4.34178 52.59 4.75025 55.3C4.66878 57.73 5.05211 59.37 5.85511 60.23C5.62731 66.2 6.39491 70.42 7.51631 74.02C6.22865 75.04 6.36458 78.54 6.37424 81.89C6.93671 82.516 6.93551 84.162 8.02871 83.842C8.20425 87.769 8.06664 91.11 6.89978 92.723C8.26531 94.206 7.58598 99.383 8.56465 101.572C7.92198 101.734 8.11298 103.377 8.01511 104.552C7.96558 105.962 7.91611 107.372 8.57411 107.521C10.1122 107.488 9.89391 102.879 9.15351 101.619C10.4401 99.648 10.1164 94.759 10.8582 91.776L10.8775 81.955C11.3181 81.041 11.4819 79.72 11.4261 78.03C11.6668 75.66 10.4144 75.91 10.898 73.08C11.5111 73.25 11.9131 72.85 12.0054 72.13C12.7595 66.61 12.8061 59.75 13.6865 54.38C13.2679 53.51 13.0923 52.18 13.1265 50.46C13.2925 48.44 14.6174 48.54 14.7835 46.52C13.2456 43.96 15.4802 43.55 15.3179 40.63C15.1723 33.78 15.8032 28.37 16.4221 22.9C14.8664 23.32 15.9105 19.21 14.7536 18.99C14.7546 19.94 14.0845 19.7299 13.6461 19.9499C12.7587 16.0799 16.04 19.61 15.893 17C14.722 14.82 16.4647 12.24 15.9134 8.13C14.7445 7.85 15.4018 4.44997 14.245 4.21997C14.5615 2.46997 13.5927 1.43994 14.8243 1.31994C14.6309 2.96994 15.2559 0.200016 15.9469 0.270016C16.6875 -1.06998 16.9999 24.39 15.3597 24.4C15.5627 26.1 14.9201 26.26 14.2653 26.36C14.1603 20.89 14.1606 24.7 15.3649 21.62C14.9375 20.95 14.1393 16.1 15.3675 15.73C15.2861 18.17 15.6694 19.8 16.4725 20.66C17.9173 17.81 16.2344 24.54 16.4797 20.79C15.837 20.95 15.5151 20.55 15.3581 19.79C17.1399 20.24 16.9326 17.33 17.5919 15.84C16.9417 44.96 17.5321 102.218 15.7261 99.053C15.5624 100.377 14.3451 99.854 13.5101 100.021C13.1666 96.216 13.0611 95.936 14.0765 93.111C12.8417 92.974 13.8527 88.947 13.5023 87.234C13.0838 86.368 12.896 84.977 12.9423 83.315C13.5741 81.447 13.6732 78.63 14.0403 76.41C13.1922 75.57 12.8089 73.93 12.9355 71.48C13.3069 70.46 14.2231 70.45 14.0738 68.54C14.2519 66.58 13.9774 65.48 12.9381 65.59C13.47 62.99 14.0164 57.17 12.9443 54.76C13.6288 54.33 14.0936 53.53 14.0827 51.83C13.6061 49.97 13.1535 48.23 12.9648 45.89C14.4264 39.11 11.8351 34.7 12.9605 28.16C13.7537 28.26 14.5348 28.2999 14.6447 27.1899C14.0999 26.1799 13.5221 25.24 12.9773 24.23C13.1403 19.36 12.8713 15.2099 12.4376 11.4399C13.1761 8.19994 13.3072 4.36003 13.1768 0.41003L57.0578 0L61.2514 1078.9L17.624 1079.86L17.6361 1079.92ZM8.11885 861.723C7.54205 861.735 7.69358 862.949 7.55618 863.693C8.08791 863.697 7.99351 862.526 8.11885 861.723ZM18.3601 15.37C16.3738 14.87 15.8801 22.13 18.3575 21.26L18.3601 15.37ZM18.3449 42.92C17.5582 43.32 18.424 43.78 18.3591 44.88C19.0798 44.63 18.9216 42.91 18.3449 42.92ZM17.2338 48.8199C17.3591 48.0199 17.0405 47.8701 16.689 47.8101L16.6925 42.87C16.7421 41.46 16.7917 40.05 16.1336 39.9L16.1451 47.75C15.9824 50.02 15.0441 51.8 16.1425 53.64C17.6992 54.17 15.6891 48.3499 17.2338 48.8199ZM20.0318 66.52C20.1133 64.08 20.1167 61.7401 18.9269 61.5901C19.9883 59.6901 18.9963 59.09 18.9306 56.65C17.3606 57.7 18.2349 60.5601 16.1388 58.5801C15.8629 61.7101 17.1461 62.08 16.6811 65.48C18.0304 63.1 17.6093 68.13 20.0318 66.52ZM15.5652 75.37C17.4679 76.41 16.4422 72.34 16.6895 70.48C15.47 70.65 15.5115 72.98 15.5652 75.37ZM18.3581 74.39C19.2173 74.34 19.5759 67.12 17.7839 68.51C17.3815 71.5 18.7604 71.39 18.3581 74.39C18.2381 77.34 16.0499 73.49 18.3581 74.39ZM18.3403 77.37C16.9582 77.22 15.6573 77.23 14.9707 78.36C15.2749 79.14 15.5792 79.92 15.5297 81.33C16.6394 79.67 16.2328 81.463 17.7467 81.311C18.2444 80.44 18.3962 79.06 18.3403 77.37ZM17.7996 94.083L17.8059 83.253C16.6456 85.37 15.9845 82.373 15.0131 84.234C15.3185 85.963 14.3645 90.034 15.5873 90.111C14.8346 91.388 14.8443 94.741 15.5847 96C16.4163 95.582 16.9921 94.62 17.7996 94.083ZM16.9031 21.59C16.3713 21.58 16.4657 22.7501 16.3405 23.5601C16.8601 23.5001 16.7656 22.33 16.9031 21.59ZM16.3247 28.4399C15.6819 28.5999 15.8729 20.24 15.7751 21.41C16.4179 21.25 16.2267 29.6099 16.3247 28.4399ZM11.8777 137.133C11.3581 137.189 11.4525 138.359 11.3151 139.104C11.8798 139.032 11.7853 137.862 11.8777 137.133ZM12.4887 257.221C11.9082 248.244 13.2801 236.302 11.8998 226.719C11.8319 224.97 12.5855 224.642 12.4483 222.79C10.4225 221.856 11.6955 226.664 11.3372 228.69C11.403 231.136 11.4324 233.404 10.7578 234.591C11.7295 241.469 10.5863 250.987 11.881 259.207C12.4577 259.194 12.3634 258.025 12.4887 257.221ZM11.8915 266.105C10.1972 268.916 12.5117 272.916 11.8852 276.934C12.9949 275.279 12.6385 267.869 11.8915 266.105ZM20.3243 299.551C19.1622 297.173 17.9345 303.683 19.7627 302.471C19.9429 302.408 20.7429 300.417 20.3243 299.551ZM13.5973 332.053L13.6073 316.283C14.149 314.447 11.9244 313.011 13.6241 312.351C14.5741 315.816 15.3809 309.139 13.6241 312.351C12.6332 310.103 13.3576 304.91 12.5228 302.48C15.2572 303.103 13.3465 305.801 14.1735 309.372C15.0085 309.206 14.6967 306.973 14.722 305.444L14.7247 299.555C14.6325 297.687 15.3411 297.375 15.2731 295.627C14.5949 285.228 15.1435 281.299 15.2762 268.019C11.7891 268.673 14.8604 275.194 14.1625 279.807C13.7844 282.916 12.6858 281.086 11.3697 280.788C11.9759 283.045 12.5911 285.108 13.5962 286.718C12.76 288.531 11.2527 289.187 10.7867 291.63C10.4141 294.293 11.9543 293.563 12.4541 294.59C11.4828 296.451 12.0406 301.067 11.903 304.408C12.0127 305.889 11.7237 308.016 12.4631 308.327C10.6169 315.116 13.2242 325.978 11.8878 331.956C12.5459 332.105 12.4964 333.515 12.4468 334.926L12.4431 339.866C12.9648 341.708 10.8004 343.165 12.4263 343.797C15.4389 343.183 12.807 337.395 13.5973 332.053ZM13.053 353.708C12.4762 353.72 11.9445 353.717 11.3677 353.73L11.3818 355.688C11.83 356.227 12.2662 356.706 13.0352 356.69L13.053 353.708ZM9.69935 455.116C9.39835 454.588 8.97308 455.815 9.12354 456.078C9.42454 456.605 9.84988 455.38 9.69935 455.116ZM14.1905 455.122C13.8896 454.594 13.4643 455.821 13.6148 456.084C13.9157 456.612 14.341 455.386 14.1905 455.122ZM9.69668 461.006C9.68355 459.997 9.68255 459.048 9.71448 458.024C9.07182 458.186 9.26281 459.828 9.16495 461.003L9.19228 463.969C9.78995 463.822 9.64388 462.164 9.69668 461.006ZM8.58407 518.128L7.47554 518.138L7.48974 520.096L8.59828 520.086L8.58407 518.128ZM8.04567 581.127C8.3466 581.655 8.77187 580.429 8.60927 580.107C8.32033 579.638 7.8952 580.864 8.04567 581.127ZM15.3437 582.111C14.6562 579.693 14.5443 576.313 14.2106 573.264C13.7867 570.248 15.7466 571.332 15.3226 568.315C15.0219 565.192 13.6718 564.02 13.6589 560.415C13.3306 556.921 15.63 558.013 15.3468 554.504L14.2382 554.513C15.0623 552.641 14.2552 547.985 15.3803 546.641C15.109 545.787 14.8707 544.857 14.2577 544.692C14.7225 543.896 14.5731 541.985 15.396 541.76C14.6402 540.188 14.9339 536.667 13.7014 535.833C14.587 532.609 13.562 532.083 13.6776 527.927C12.0801 531.21 13.7211 534.749 12.5498 537.757C12.489 542.653 13.1108 542.625 12.5744 546.613C12.1062 549.753 14.0036 548.644 14.243 550.522C13.8474 551.421 13.2442 552.013 12.5718 552.502C12.5014 554.047 12.8132 556.28 12.0233 556.431C11.8628 558.006 12.5659 558.139 12.5823 559.4C12.457 560.204 12.0066 560.362 12.0196 561.371C11.692 564.019 12.7431 569.158 11.4674 570.239C11.886 571.104 12.0617 572.436 12.0275 574.158C12.4788 577.545 10.9956 578.319 12.0249 580.047C11.76 582.293 10.9248 585.056 12.0354 586.945C14.2019 587.388 13.4936 582.507 15.3437 582.111ZM15.34 587.051C15.039 586.523 14.6138 587.749 14.7642 588.013C15.0653 588.54 15.4906 587.315 15.34 587.051ZM14.7743 721.925C12.5596 721.247 12.5572 724.54 12.5548 727.833C14.1281 727.027 13.9982 729.226 15.3616 728.81C16.3571 727.068 15.629 723.271 14.7743 721.925ZM15.3271 735.724L14.2186 735.733C14.7309 731.628 12.5421 735.562 14.2186 735.733C14.2679 736.919 14.4073 738.073 15.3413 737.682L15.3271 735.724ZM14.7759 745.542C15.3243 744.21 16.2549 743.566 17.0229 742.6C16.8495 740.571 15.9025 739.954 15.3423 738.631C13.9721 741.138 12.6833 743.807 13.119 749.479C15.1207 750.296 15.8866 747.431 14.7759 745.542ZM14.2369 755.418C14.6526 750.84 13.2947 750.81 13.6602 755.431C13.3535 757.945 12.7031 759.249 14.752 759.353C15.0081 757.301 14.4126 756.749 14.2369 755.418ZM16.4645 762.297C15.9328 762.294 16.0393 763.523 15.9019 764.268C16.4787 764.255 16.3271 763.043 16.4645 762.297ZM15.3701 764.264C15.2581 763.481 14.7803 763.269 14.8243 762.304C14.3739 762.462 14.2485 763.266 13.7168 763.262C13.8288 764.046 14.2616 764.274 14.2626 765.224C14.668 765.082 14.7933 764.277 15.3701 764.264ZM16.4818 781.033C15.9501 781.03 16.0566 782.259 15.9192 783.003C16.4389 782.947 16.3445 781.778 16.4818 781.033ZM14.7985 782.954C15.6632 782.46 14.8305 781.929 14.2537 781.942C14.0965 783.77 14.7787 784.037 14.7985 782.954ZM16.4792 786.923C15.2905 787.72 14.9407 792.148 15.9129 793.833C17.1742 793.391 16.1209 788.948 16.4792 786.923ZM13.1151 881.433C12.5833 881.43 12.6777 882.6 12.5524 883.404C13.1291 883.392 13.0347 882.221 13.1151 881.433ZM12.5655 884.412C10.5109 887.349 14.2483 887.683 12.5655 884.412ZM13.1538 892.247C12.4331 892.5 12.5911 894.217 13.1679 894.205C13.9545 893.801 13.0889 893.346 13.1538 892.247ZM12.0222 907.017C11.7213 906.489 11.296 907.715 11.4915 907.963C11.7475 908.506 12.1727 907.281 12.0222 907.017ZM14.8105 1015.32C14.9709 1013.75 14.3128 1013.6 14.2515 1012.35C13.2055 1011.96 13.4393 1016.88 14.8105 1015.32ZM11.5001 1018.25C11.1155 1018.26 10.731 1018.27 10.3916 1018.26L10.4057 1020.22C10.7903 1020.21 11.1297 1020.22 11.5142 1020.21L11.5001 1018.25ZM15.3889 993.724C14.8947 992.254 13.9928 991.613 12.5689 991.733L12.5486 1000.61C14.4283 999.887 14.3067 995.745 15.3889 993.724ZM13.1646 1003.62C13.2437 1004.48 12.9284 1004.59 12.601 1004.64C12.6954 1005.81 13.6413 1005.48 14.2994 1005.63C14.5138 1003.84 13.8557 1003.7 13.1646 1003.62ZM15.4105 1010.18C14.2185 1010.72 14.2315 1011.73 14.8489 1013.09C16.7242 1013.77 15.7389 1011.07 15.4105 1010.18ZM10.3792 1049.56C10.7187 1049.56 11.1032 1049.56 11.4877 1049.55C11.6658 1047.59 11.3463 1046.49 10.352 1046.58L10.3792 1049.56ZM11.5381 1037.75C11.4043 1033.55 11.5837 1029.95 13.1987 1028.87C12.3343 1026.77 11.5808 1024.51 10.9712 1022C9.7397 1022.11 10.7204 1026.2 10.4369 1027.88L10.4343 1033.77C10.223 1038.4 10.6204 1041.99 10.9728 1045.6C12.7548 1046.06 11.4005 1041.09 12.6739 1040.7C13.8591 1042.25 12.8765 1047.6 13.8069 1049.56C15.0519 1047.85 14.0031 1042.01 14.3449 1038.73C13.0025 1039.01 12.1367 1038.55 11.5381 1037.75ZM16.5427 1048.53C16.7107 1048.41 17.5556 1046.4 17.0921 1045.55C16.6648 1044.87 15.4143 1049.63 16.5427 1048.53ZM14.3078 1051.53C13.3354 1052.44 12.8815 1054.95 13.7724 1056.47C14.6997 1055.57 15.1865 1053 14.3078 1051.53ZM14.3052 1057.42C12.7012 1057.6 12.9404 1062.08 14.8652 1061.34C14.9445 1059.6 14.2051 1059.29 14.3052 1057.42ZM15.4231 1063.36C14.2751 1062.94 13.9158 1064.01 13.2071 1064.32C13.6893 1065.74 14.0397 1067.45 15.4515 1067.27C15.423 1065.95 15.4395 1064.62 15.4231 1063.36Z" fill="#FCDE3B"/>
</g>
</g>
</g>
<defs>
<clipPath id="clip0_66_1530">
<rect width="50" height="1080" fill="white"/>
</clipPath>
</defs>
</svg>
